<?xml version="1.0" encoding="utf-8"?>
<svg viewBox="0 0 450 450" xmlns="http://www.w3.org/2000/svg">
  <g transform="matrix(0.10000000149011612, 0, 0, -0.10000000149011612, 0, 449.99999999999994)" fill="#000000" stroke="none">
    <path d="M 2449 3771 C 2467 3753 2457 3850 2445 3850 C 2437 3850 2430 3857 2430 3865 C 2430 3884 2409 3884 2384 3864 C 2374 3856 2370 3851 2375 3853 C 2381 3856 2402 3846 2423 3830 C 2451 3809 2457 3801 2445 3796 C 2437 3793 2430 3794 2430 3798 C 2430 3802 2421 3811 2409 3818 C 2390 3830 2390 3829 2400 3810 C 2406 3799 2415 3790 2420 3790 C 2426 3790 2438 3782 2449 3771 Z"/>
    <path d="M 3535.945 1807.423 C 3440.25 1782.558 3481 1786 3483 1784 C 3485 1782 3551 1798 3630 1820 C 3710 1842 3782 1858 3791 1855 C 3807 1850 3964 1883 4005 1900 C 4016 1905 4039 1913 4055 1919 L 4085 1930 L 4050 1924 C 4031 1921 3975 1907 3927 1893 C 3854 1873 3642.427 1835.091 3535.945 1807.423 Z"/>
    <path d="M1852 4278 c-9 -9 -8 -16 5 -30 15 -16 15 -21 3 -28 -18 -11 -8 -22&#10;13 -14 13 5 14 10 5 30 -6 13 -15 24 -20 24 -5 0 -6 5 -3 10 4 6 11 7 17 4 7&#10;-4 8 -2 4 4 -9 15 -9 15 -24 0z"/>
    <path d="M1896 4272 c-7 -11 14 -36 45 -52 14 -8 19 -7 19 2 0 9 3 9 12 0 7&#10;-7 23 -12 38 -13 23 -1 24 -1 3 -7 -18 -6 -20 -10 -10 -23 17 -23 76 -51 89&#10;-43 6 4 -1 12 -18 20 -23 10 -25 13 -9 13 30 1 49 -15 42 -34 -4 -9 -3 -13 2&#10;-10 6 3 13 -1 18 -8 9 -16 53 -41 53 -30 0 4 7 -2 15 -13 14 -18 14 -18 15 -1&#10;0 11 9 21 20 24 11 3 20 9 20 14 0 13 -14 11 -28 -3 -8 -8 -15 -8 -26 1 -10 9&#10;-15 9 -18 0 -2 -7 -8 -6 -17 5 -12 14 -12 16 3 10 23 -9 20 7 -9 38 -29 32&#10;-61 44 -79 29 -9 -8 -21 -3 -46 19 -18 16 -37 27 -41 24 -5 -3 -9 -1 -9 5 0 6&#10;-7 8 -15 5 -18 -7 -20 7 -2 25 10 11 8 11 -10 0 -12 -7 -19 -18 -16 -24 2 -5&#10;-4 1 -15 14 -12 14 -22 20 -26 13z"/>
    <path d="M2130 4253 c5 -2 8 -9 5 -13 -6 -10 88 -110 103 -110 23 0 24 -24 2&#10;-40 l-23 -17 28 1 c35 1 41 33 12 68 -10 12 -15 16 -11 8 4 -8 -5 -4 -20 10&#10;-14 13 -24 30 -22 36 3 8 -9 17 -29 24 -19 6 -34 16 -32 22 1 6 -4 12 -11 14&#10;-7 1 -8 0 -2 -3z"/>
    <path d="M2091 4231 c-10 -6 -9 -10 3 -14 8 -3 18 -2 21 3 8 13 -9 20 -24 11z"/>
    <path d="M1675 4178 c6 -71 33 -120 60 -111 11 3 25 6 32 6 6 0 9 6 6 14 -3 7&#10;0 13 6 13 6 0 11 -5 11 -12 0 -6 7 -4 18 5 24 22 29 21 35 -3 3 -13 11 -18 20&#10;-14 8 3 23 -3 32 -13 18 -17 18 -17 11 10 -5 21 -4 27 5 21 9 -5 10 -2 6 10&#10;-4 10 -7 24 -7 33 0 9 -6 13 -15 10 -9 -4 -28 10 -50 38 -30 36 -40 42 -58 36&#10;-24 -9 -32 -47 -12 -55 9 -3 12 3 10 19 -3 31 18 39 34 13 7 -11 8 -17 2 -13&#10;-6 3 -11 1 -11 -4 0 -6 4 -11 8 -11 4 0 8 -9 9 -19 2 -25 -26 -32 -49 -13 -17&#10;14 -43 8 -33 -8 3 -4 1 -19 -4 -32 -9 -23 -9 -23 -16 6 -5 20 -4 31 6 37 12 8&#10;12 11 -1 19 -8 5 -22 10 -32 10 -11 0 -15 7 -13 25 1 14 -1 28 -6 30 -4 3 -6&#10;-18 -4 -47z"/>
    <path d="M1625 4189 l-30 -21 30 7 c35 8 38 10 34 24 -3 6 -17 2 -34 -10z"/>
    <path d="M1870 4191 c0 -5 7 -12 16 -15 24 -9 28 -7 14 9 -14 17 -30 20 -30 6z"/>
    <path d="M1593 4149 c-6 -8 -14 -25 -18 -39 l-7 -25 22 28 c12 15 20 32 18 38&#10;-2 7 -7 7 -15 -2z"/>
    <path d="M1931 4151 c-8 -6 -9 -11 -3 -15 7 -4 7 -17 2 -35 -6 -23 -4 -33 11&#10;-47 10 -9 16 -21 12 -27 -3 -6 -1 -7 6 -3 9 6 9 11 0 22 -10 12 -9 13 5 8 12&#10;-5 16 0 16 20 0 15 -6 29 -13 32 -18 7 -17 34 0 34 8 0 24 -5 36 -11 20 -10&#10;20 -10 7 4 -19 19 -61 29 -79 18z"/>
    <path d="M1630 4131 c0 -11 5 -23 11 -26 6 -4 8 -13 5 -21 -3 -8 0 -13 7 -11&#10;7 1 11 -4 9 -11 -1 -8 2 -11 8 -7 11 7 -2 39 -20 50 -5 3 -7 12 -4 19 3 8 1&#10;17 -5 21 -7 3 -11 -2 -11 -14z"/>
    <path d="M2294 4114 c0 -21 2 -32 4 -25 2 6 10 11 18 11 18 0 18 15 -2 34 -20&#10;21 -20 21 -20 -20z"/>
    <path d="M1990 4096 c14 -13 27 -22 29 -20 6 5 -35 44 -46 44 -4 0 4 -11 17&#10;-24z"/>
    <path d="M1596 4094 c-8 -21 -8 -21 10 -28 12 -4 15 -2 10 9 -3 8 -1 15 5 15&#10;6 0 7 5 4 10 -9 15 -22 12 -29 -6z"/>
    <path d="M1567 4063 c5 -12 2 -15 -10 -10 -11 4 -14 2 -11 -7 3 -8 -6 -23 -20&#10;-33 -14 -11 -22 -23 -19 -27 3 -3 -1 -6 -10 -6 -10 0 -17 -8 -17 -19 0 -11 -5&#10;-23 -11 -26 -6 -4 -8 -13 -5 -21 3 -8 1 -14 -4 -14 -6 0 -10 -5 -10 -11 0 -8&#10;5 -8 15 1 12 10 15 10 15 -4 0 -9 -6 -16 -14 -16 -20 0 -32 -40 -15 -51 21&#10;-12 51 20 44 48 -4 17 -2 21 10 17 8 -4 15 -15 15 -25 0 -10 5 -19 11 -19 6 0&#10;9 7 5 15 -7 20 4 19 19 -2 12 -16 12 -14 8 10 -3 15 -9 27 -13 27 -16 0 -19&#10;32 -5 46 13 14 16 13 21 -3 3 -10 12 -30 20 -44 7 -14 11 -28 9 -31 -3 -3 1&#10;-5 9 -5 8 0 14 11 14 25 0 16 -3 20 -9 11 -8 -14 -21 11 -35 66 -5 21 -2 25&#10;15 25 22 0 23 1 25 42 1 15 -2 24 -6 22 -4 -3 -8 -1 -8 5 0 6 -9 15 -20 21&#10;-16 9 -19 8 -13 -7z m-26 -72 c4 7 11 10 16 6 9 -9 -17 -28 -29 -21 -4 3 -8&#10;11 -7 17 0 8 3 7 6 -2 4 -11 7 -11 14 0z m-12 -57 c-5 -6 -7 -18 -3 -27 4 -11&#10;0 -14 -13 -12 -10 2 -21 4 -25 4 -15 2 -8 21 8 21 11 0 14 5 10 16 -9 23 3 36&#10;19 21 8 -7 10 -16 4 -23z m-49 -95 c-7 -11 -14 -19 -16 -16 -7 7 7 37 17 37 6&#10;0 5 -9 -1 -21z"/>
    <path d="M1790 4061 c-8 -6 -18 -7 -22 -5 -4 3 -8 -4 -8 -15 0 -12 5 -21 10&#10;-21 6 0 10 -11 10 -24 0 -16 14 -36 44 -61 44 -36 48 -47 31 -75 -6 -11 -3&#10;-10 11 2 36 32 26 108 -14 108 -13 0 -12 -3 4 -16 18 -14 18 -15 -6 -8 -27 7&#10;-42 23 -34 36 3 4 -2 18 -10 30 -18 26 -20 38 -7 38 5 0 13 -10 17 -22 5 -18&#10;8 -19 15 -5 19 33 -8 58 -41 38z"/>
    <path d="M2035 4061 c-6 -11 9 -23 19 -14 9 9 7 23 -3 23 -6 0 -12 -4 -16 -9z"/>
    <path d="M2303 4056 c4 -10 7 -20 7 -22 0 -3 5 -2 10 1 6 3 10 1 10 -4 0 -6&#10;-4 -11 -10 -11 -5 0 -10 -7 -10 -15 0 -8 5 -15 11 -15 18 0 39 -27 39 -50 0&#10;-12 4 -19 9 -15 6 3 13 -1 18 -8 4 -7 16 -16 26 -20 14 -5 13 0 -8 27 -14 18&#10;-25 38 -25 44 0 7 -7 12 -16 12 -8 0 -12 5 -9 10 3 6 -4 10 -16 10 -18 0 -19&#10;2 -9 15 11 13 9 19 -10 38 -20 18 -23 18 -17 3z"/>
    <path d="M2087 4054 c-3 -3 -3 -12 -1 -19 4 -8 -3 -11 -21 -10 -20 3 -24 1&#10;-15 -10 13 -16 -11 -28 -37 -18 -10 4 -14 2 -10 -5 4 -6 21 -13 37 -17 18 -4&#10;27 -11 23 -18 -4 -7 0 -8 11 -4 9 4 15 3 12 -2 -6 -8 17 -33 25 -28 2 1 3 0 2&#10;-2 -2 -2 3 -11 10 -19 10 -13 9 -14 -11 -3 -12 6 -21 8 -20 4 1 -4 -3 -18 -10&#10;-30 -12 -22 0 -44 13 -23 4 6 19 -3 36 -21 21 -23 33 -29 41 -21 7 7 4 13 -10&#10;21 -11 6 -28 18 -37 28 -16 15 -15 17 7 29 12 7 19 14 13 14 -5 0 -3 5 5 10&#10;12 8 13 12 1 19 -15 10 -3 40 32 78 11 13 17 26 14 30 -4 3 -7 1 -7 -6 0 -8&#10;-7 -10 -20 -6 -14 5 -20 2 -20 -9 0 -9 -4 -16 -9 -16 -4 0 -6 -12 -4 -27 4&#10;-27 4 -27 -11 -9 -9 11 -16 24 -16 29 0 4 -4 6 -9 2 -5 -3 -12 -1 -16 5 -3 5&#10;1 10 9 10 10 0 13 7 11 21 -5 26 -9 31 -18 23z"/>
    <path d="M2250 4051 c0 -11 31 -24 39 -16 3 3 -1 10 -9 15 -19 12 -30 12 -30&#10;1z"/>
    <path d="M1631 4029 c-1 -15 5 -29 14 -33 8 -3 15 0 15 6 0 6 3 8 8 4 4 -4 7&#10;-13 7 -18 0 -18 23 -21 27 -4 3 13 5 13 23 0 18 -14 18 -16 4 -27 -9 -7 -14&#10;-19 -11 -27 4 -12 2 -13 -9 -2 -17 16 -29 15 -29 -3 0 -9 6 -12 17 -8 13 5 15&#10;2 10 -13 -5 -12 2 -8 18 11 20 24 27 27 34 16 5 -8 7 -20 4 -28 -3 -7 0 -13 6&#10;-13 17 0 13 53 -6 79 -9 14 -11 21 -5 17 7 -4 12 -1 12 7 0 24 -13 28 -32 10&#10;-18 -16 -19 -16 -14 12 5 27 4 28 -8 13 -7 -10 -18 -18 -24 -18 -6 0 -15 8&#10;-21 18 -9 16 -10 16 -17 -3 -8 -19 -9 -18 -15 5 l-7 25 -1 -26z"/>
    <path d="M1911 4028 c-1 -9 4 -29 9 -44 15 -40 3 -43 -14 -3 -9 19 -15 27 -16&#10;19 0 -13 -2 -13 -11 0 -9 12 -10 12 -5 -3 3 -10 6 -21 6 -23 0 -3 5 -2 10 1 6&#10;3 10 0 10 -8 0 -8 7 -18 16 -21 8 -3 12 -11 8 -17 -4 -8 -3 -9 4 -5 7 4 16 -3&#10;21 -18 8 -19 15 -23 32 -19 14 4 20 2 16 -4 -4 -6 0 -13 8 -17 29 -11 14 15&#10;-20 36 -38 22 -41 40 -9 47 15 3 16 1 6 -12 -16 -19 -1 -30 39 -29 20 0 30 -5&#10;35 -20 5 -16 8 -18 15 -7 12 19 11 29 -3 27 -6 -2 -18 9 -25 23 -9 19 -24 29&#10;-51 35 -20 4 -41 6 -45 5 -5 -1 -6 3 -3 8 4 5 1 13 -5 16 -6 4 -14 17 -19 29&#10;-7 16 -9 17 -9 4z"/>
    <path d="M2211 4033 c-1 -18 19 -27 32 -13 9 10 8 12 -5 7 -9 -3 -19 -1 -22 6&#10;-3 9 -5 9 -5 0z"/>
    <path d="M2250 4010 c-8 -5 -23 -7 -32 -4 -10 3 -18 0 -18 -6 0 -6 5 -8 10 -5&#10;15 9 12 -36 -4 -67 -8 -16 -11 -28 -5 -28 5 0 9 1 9 3 1 14 29 78 30 66 0 -18&#10;20 -29 51 -29 16 0 19 4 14 23 -11 35 -37 58 -55 47z"/>
    <path d="M1950 4005 c0 -2 9 -9 20 -15 15 -8 20 -8 20 3 0 7 -9 13 -20 14 -11&#10;1 -20 0 -20 -2z"/>
    <path d="M2184 3976 c6 -23 4 -27 -7 -23 -11 4 -13 0 -10 -14 4 -14 9 -17 18&#10;-9 21 17 24 48 7 62 -13 11 -14 10 -8 -16z"/>
    <path d="M1643 3935 c-1 -31 4 -48 18 -61 10 -9 19 -12 19 -6 0 6 -8 16 -17&#10;22 -11 7 -14 13 -7 16 11 5 7 61 -5 68 -4 3 -7 -15 -8 -39z"/>
    <path d="M1607 3947 c-2 -6 2 -18 9 -25 12 -11 14 -8 14 13 0 26 -14 34 -23&#10;12z"/>
    <path d="M2293 3899 c8 -11 13 -29 10 -40 -7 -26 6 -24 16 4 6 15 4 27 -7 40&#10;-21 24 -36 21 -19 -4z"/>
    <path d="M2171 3893 c-1 -12 4 -25 9 -28 12 -7 12 2 0 30 -8 19 -9 19 -9 -2z"/>
    <path d="M2222 3891 c-11 -7 -11 -9 2 -14 9 -4 16 -2 16 3 0 5 7 6 17 3 11 -4&#10;14 -3 9 5 -8 14 -26 15 -44 3z"/>
    <path d="M1890 3872 c0 -5 12 -15 28 -23 36 -18 51 -23 30 -9 -10 6 -18 18&#10;-18 25 0 8 -9 15 -20 15 -11 0 -20 -4 -20 -8z"/>
    <path d="M2202 3840 c-1 -38 -9 -50 -32 -50 -13 0 -17 -5 -13 -21 4 -14 -11&#10;-4 -49 33 -30 29 -61 54 -69 56 -9 1 -8 -2 3 -11 10 -8 14 -17 10 -21 -4 -4&#10;-2 -6 5 -4 6 2 12 -1 12 -7 3 -17 -51 -18 -61 -1 -5 9 -17 16 -26 16 -13 0&#10;-14 -2 -3 -9 9 -6 10 -10 2 -16 -7 -4 -17 -2 -24 3 -8 7 -19 6 -34 -2 l-23&#10;-12 26 -27 c13 -15 21 -27 17 -27 -4 0 5 -9 22 -20 45 -30 44 -14 -3 29 -39&#10;36 -56 61 -32 46 6 -3 10 -1 10 6 0 8 6 6 18 -4 10 -10 28 -17 40 -17 23 0 42&#10;-22 24 -28 -7 -2 -10 -8 -6 -13 3 -5 12 -2 20 6 9 8 20 13 25 10 5 -4 6 1 3 9&#10;-3 9 -11 13 -17 9 -6 -3 -7 -1 -3 6 10 15 36 -4 36 -26 0 -8 4 -12 9 -9 5 4&#10;11 0 14 -6 2 -7 8 -10 12 -6 8 8 -10 44 -22 40 -4 -1 -9 7 -9 18 -2 28 7 25&#10;40 -15 16 -19 35 -35 42 -35 15 0 24 -34 13 -51 -5 -8 -8 -23 -8 -34 0 -11 3&#10;-14 6 -7 2 6 9 10 14 7 5 -4 6 0 3 8 -3 8 -1 18 5 22 14 8 14 45 0 45 -5 0 -7&#10;5 -4 10 3 6 2 10 -3 10 -6 0 -8 9 -5 20 3 10 10 18 15 17 5 -1 12 17 14 41 2&#10;23 0 42 -4 42 -5 0 -9 -13 -10 -30z"/>
    <path d="M2265 3860 c-4 -6 -13 -9 -21 -6 -8 3 -14 -1 -14 -10 0 -11 4 -12 19&#10;-4 27 14 30 13 26 -10 -4 -21 2 -25 22 -12 8 5 6 13 -7 30 -12 14 -21 18 -25&#10;12z"/>
    <path d="M1694 3811 c21 -22 35 -44 32 -50 -4 -6 -2 -11 4 -11 7 0 14 9 17 20&#10;3 11 9 17 14 14 5 -3 9 0 9 6 0 7 -8 9 -20 5 -13 -4 -29 3 -51 24 -46 45 -50&#10;38 -5 -8z"/>
    <path d="M1603 3824 c0 -7 6 -10 14 -7 7 3 13 0 13 -6 0 -6 5 -11 10 -11 6 0&#10;6 7 -1 18 -13 21 -36 25 -36 6z"/>
    <path d="M1870 3811 c0 -25 -8 -26 -38 -5 -21 14 -22 14 -22 -6 0 -12 4 -19&#10;10 -15 17 11 50 -27 44 -52 -4 -14 -2 -23 5 -23 6 0 11 5 11 10 0 6 12 3 26&#10;-7 l27 -17 -26 48 c-14 26 -23 54 -21 61 3 7 1 16 -5 20 -7 3 -11 -2 -11 -14z"/>
    <path d="M1415 3805 c-3 -8 -7 -21 -9 -28 -2 -8 0 -20 5 -28 7 -11 9 -9 9 7 0&#10;16 6 21 23 20 35 -3 40 4 16 25 -27 23 -38 24 -44 4z"/>
    <path d="M2312 3803 c-6 -3 -10 -9 -7 -13 3 -5 12 -7 20 -3 9 3 15 -1 15 -10&#10;0 -9 5 -19 10 -22 16 -10 11 11 -7 33 -10 11 -24 18 -31 15z"/>
    <path d="M2247 3786 c-4 -10 -5 -21 -2 -24 9 -9 17 6 13 25 -3 17 -4 17 -11&#10;-1z"/>
    <path d="M1785 3760 c-9 -14 14 -42 28 -33 6 4 8 0 4 -10 -4 -11 -2 -14 9 -10&#10;11 4 12 9 3 19 -9 11 -9 14 0 14 8 0 7 5 -3 15 -17 18 -32 19 -41 5z"/>
    <path d="M2277 3763 c-13 -12 -7 -44 8 -49 8 -4 12 -10 10 -15 -7 -11 40 -23&#10;54 -14 7 4 8 -1 4 -12 -6 -15 -4 -16 9 -5 14 11 19 8 38 -23 24 -39 37 -47 20&#10;-12 -10 20 -10 20 3 5 9 -12 13 -38 11 -78 -2 -57 -1 -60 22 -60 16 0 24 6 24&#10;18 -1 23 -25 54 -36 44 -4 -4 -3 0 2 8 6 8 10 39 8 68 -3 35 0 52 8 52 9 0 9&#10;3 0 12 -7 7 -12 17 -12 23 0 5 5 3 11 -5 9 -13 10 -13 6 0 -2 8 -11 14 -19 12&#10;-9 -1 -19 5 -22 14 -5 12 -2 15 11 10 14 -6 15 -4 6 5 -13 13 -36 3 -27 -13 4&#10;-6 -2 -6 -15 1 -17 10 -21 9 -21 -3 0 -8 4 -18 10 -21 5 -3 15 -15 20 -26 9&#10;-15 7 -19 -5 -19 -8 0 -15 7 -15 16 0 8 -4 12 -10 9 -5 -3 -21 6 -35 21 -14&#10;15 -25 23 -25 19 0 -4 -8 -1 -18 8 -10 10 -22 14 -25 10z"/>
    <path d="M1407 3707 c-3 -8 3 -32 13 -55 10 -22 15 -42 10 -44 -10 -4 15 -118&#10;28 -127 5 -3 21 -30 37 -58 15 -29 32 -53 37 -53 4 0 8 -6 8 -14 0 -7 7 -20&#10;16 -27 17 -14 74 -108 74 -123 0 -5 -7 -3 -15 4 -24 20 -29 4 -9 -30 16 -26&#10;20 -28 25 -13 6 17 7 16 14 -2 4 -11 14 -36 22 -57 8 -20 13 -41 9 -46 -3 -5&#10;1 -13 10 -16 23 -9 24 -8 15 17 -5 13 -22 70 -37 128 -32 124 -60 193 -74 184&#10;-6 -4 -8 -11 -5 -16 15 -23 -13 -6 -36 24 -68 85 -96 161 -113 306 -3 28 -21&#10;39 -29 18z"/>
    <path d="M2115 3709 c-5 -7 -4 -10 2 -6 18 11 24 -35 7 -48 -13 -9 -12 -11 5&#10;-11 11 0 18 2 16 4 -2 2 4 20 12 40 12 30 13 34 1 24 -10 -8 -18 -8 -25 -1 -8&#10;8 -13 7 -18 -2z"/>
    <path d="M2227 3701 c-2 -10 -1 -25 4 -32 7 -12 10 -12 21 0 10 10 10 12 1 7&#10;-8 -4 -13 -1 -13 8 0 9 5 16 10 16 6 0 10 5 10 10 0 18 -28 10 -33 -9z"/>
    <path d="M1824 3673 c11 -13 24 -23 30 -23 18 1 50 29 42 37 -4 5 -14 -1 -22&#10;-12 -18 -24 -17 -24 -45 0 l-24 20 19 -22z"/>
    <path d="M2278 3655 c2 -15 0 -25 -7 -25 -6 0 -11 5 -11 10 0 6 -4 10 -8 10&#10;-19 0 -7 -32 15 -41 13 -5 23 -12 23 -17 0 -5 15 -7 33 -5 24 3 29 2 17 -6 -9&#10;-7 -10 -11 -3 -11 6 0 15 5 18 10 4 6 11 8 16 5 12 -8 11 6 -1 25 -8 13 -10&#10;13 -10 -1 0 -12 -7 -15 -27 -11 -25 5 -26 6 -6 13 32 12 41 33 11 27 -13 -2&#10;-30 1 -36 9 -9 9 -9 13 -2 13 6 0 8 5 5 10 -13 21 -32 10 -27 -15z"/>
    <path d="M2117 3606 c-6 -16 19 -30 28 -16 7 11 -2 30 -15 30 -4 0 -10 -6 -13&#10;-14z"/>
    <path d="M2297 3564 c-4 -4 3 -15 15 -25 11 -11 18 -19 14 -19 -4 0 -2 -9 4&#10;-20 6 -11 16 -20 23 -20 16 0 51 -54 109 -169 28 -58 32 -73 32 -157 1 -51 5&#10;-92 10 -91 5 1 10 -7 11 -18 2 -11 7 -31 11 -44 6 -21 4 -23 -17 -17 -13 3&#10;-18 3 -11 0 14 -7 16 -54 2 -54 -5 0 -10 5 -10 10 0 6 -5 10 -11 10 -16 0 -40&#10;-28 -30 -34 5 -4 11 0 13 6 3 8 9 4 17 -10 11 -21 7 -27 -20 -24 -3 1 -6 -6&#10;-6 -14 0 -7 4 -14 8 -14 4 0 3 -17 -3 -37 -5 -21 -12 -49 -15 -63 -4 -13 -17&#10;-33 -30 -44 -13 -10 -22 -25 -19 -32 3 -8 1 -14 -4 -14 -6 0 -9 -5 -7 -11 1&#10;-6 -7 -16 -18 -22 -11 -7 -28 -21 -37 -31 -10 -10 -18 -15 -18 -10 0 5 -5 1&#10;-11 -9 -7 -12 -17 -16 -30 -12 -10 4 -19 2 -19 -4 0 -5 -8 -10 -17 -11 -84 -4&#10;-134 7 -140 31 -3 10 -9 16 -14 13 -5 -3 -9 0 -9 5 0 6 -6 11 -14 11 -8 0 -16&#10;7 -20 15 -3 8 -11 15 -19 15 -15 0 -59 46 -102 105 -16 22 -60 72 -98 110 -39&#10;39 -58 54 -44 34 15 -20 27 -38 27 -42 0 -9 -145 -51 -165 -48 -3 1 -24 -9&#10;-48 -22 -23 -13 -67 -26 -98 -29 -57 -6 -165 -57 -224 -106 -39 -32 -89 -103&#10;-122 -172 -14 -30 -43 -74 -63 -98 -40 -45 -54 -89 -44 -139 9 -45 -42 -149&#10;-95 -193 -105 -89 -115 -105 -164 -265 -39 -126 -63 -260 -45 -249 4 3 8 17 8&#10;32 1 58 56 244 98 327 13 28 60 87 104 133 43 45 77 86 75 90 -5 9 26 65 38&#10;69 9 2 45 -63 45 -81 0 -5 11 -17 25 -28 14 -11 23 -24 20 -29 -4 -5 1 -6 10&#10;-3 13 5 11 10 -10 31 -35 36 -73 119 -81 178 -6 48 -4 53 34 99 22 27 56 81&#10;76 120 54 111 102 158 213 212 72 35 101 45 124 40 22 -4 40 1 67 19 21 14 65&#10;30 97 36 33 6 79 21 103 33 48 24 38 29 89 -44 10 -13 26 -32 35 -41 29 -30&#10;45 -62 57 -113 7 -26 27 -78 46 -115 37 -72 109 -150 118 -127 3 8 -6 24 -20&#10;37 -39 38 -114 156 -129 205 -7 24 -10 44 -6 44 4 -1 21 -19 37 -40 17 -21 35&#10;-39 41 -40 6 0 18 -7 25 -16 12 -15 63 -40 65 -32 0 2 8 -3 16 -10 13 -10 24&#10;-10 59 2 24 7 58 17 74 22 17 4 33 8 38 9 4 2 12 3 17 4 6 0 10 8 10 16 0 8 5&#10;15 11 15 15 0 39 26 39 43 0 9 4 17 8 19 13 5 80 152 107 233 14 43 25 96 25&#10;119 0 39 -15 138 -26 178 -3 12 3 18 26 23 16 4 37 16 45 28 18 26 2 36 -21&#10;13 -20 -21 -26 -20 -23 2 2 9 -1 28 -5 41 -6 18 -4 28 9 37 13 10 15 20 8 54&#10;-8 43 -30 53 -25 13 1 -13 -2 -23 -8 -23 -6 0 -8 -10 -4 -25 4 -15 1 -32 -7&#10;-41 -10 -13 -10 -17 0 -23 7 -5 11 -17 9 -27 -8 -33 -30 34 -32 98 -1 31 -8&#10;64 -15 72 -8 9 -10 16 -5 16 4 0 3 5 -3 11 -6 6 -9 18 -6 25 3 8 0 14 -6 14&#10;-6 0 -11 -12 -11 -26 l0 -27 -34 37 c-19 20 -41 36 -48 36 -10 0 -9 3 2 10 8&#10;5 12 11 10 12 -13 10 -60 38 -63 38 -2 0 -7 -3 -10 -6z"/>
    <path d="M2514 3507 c-3 -8 9 -29 27 -48 29 -31 31 -37 27 -91 -3 -42 -1 -58&#10;8 -58 7 0 15 4 19 9 7 12 -12 137 -26 174 -12 29 -46 37 -55 14z"/>
    <path d="M1860 3502 c-18 -8 -24 -31 -7 -27 37 9 57 18 57 26 0 10 -28 11 -50&#10;1z"/>
    <path d="M2343 3444 c21 -14 41 -24 43 -21 6 5 -59 47 -72 47 -5 0 9 -12 29&#10;-26z"/>
    <path d="M1650 3442 c0 -8 -5 -10 -12 -6 -9 5 -10 4 -3 -3 14 -15 73 -24 80&#10;-13 5 8 -15 13 -41 9 -4 0 -11 5 -15 13 -7 10 -9 10 -9 0z"/>
    <path d="M 2271 3343 C 2244 3338 2090 3224 2090 3209 C 2090 3203 2091 3182 2115 3203 C 2160 3245 2350 3327 2350 3305 C 2350 3302 2335 3276 2318 3249 C 2297 3218 2276 3197 2260 3194 C 2207 3182 2178 3167 2192 3159 C 2214 3145 2264 3149 2289 3167 C 2320 3188 2370 3241 2370 3251 C 2370 3256 2377 3260 2385 3260 C 2393 3260 2400 3266 2400 3274 C 2400 3300 2388 3320 2373 3320 C 2365 3320 2352 3327 2344 3335 C 2329 3350 2316 3351 2271 3343 Z"/>
    <path d="M1744 3178 c-3 -5 -13 -7 -22 -6 -10 2 -17 -4 -17 -12 0 -12 19 -15&#10;115 -15 63 0 116 -3 118 -7 8 -26 0 -58 -14 -58 -14 0 -15 2 -3 17 10 12 2 10&#10;-29 -7 l-42 -24 -46 22 c-25 12 -50 20 -55 16 -14 -8 -1 -24 21 -24 10 0 23&#10;-6 27 -13 16 -26 44 -35 87 -25 47 11 77 34 69 54 -3 9 1 14 11 14 13 0 15 -4&#10;6 -19 -6 -12 -6 -22 -1 -26 5 -3 12 4 16 15 4 11 11 18 16 15 5 -3 6 1 3 9 -3&#10;8 -14 18 -25 21 -10 4 -19 12 -19 19 0 8 -6 18 -12 24 -17 13 -197 22 -204 10z"/>
    <path d="M2160 3135 c0 -8 5 -15 10 -15 6 0 10 7 10 15 0 8 -4 15 -10 15 -5 0&#10;-10 -7 -10 -15z"/>
    <path d="M2206 2983 c20 -40 19 -45 -27 -92 -41 -44 -59 -48 -114 -26 -18 8&#10;-18 7 -6 -8 7 -9 21 -17 31 -17 10 0 23 -7 30 -15 7 -8 16 -15 21 -15 14 0 61&#10;49 55 58 -2 4 6 21 20 37 13 15 24 34 24 41 0 23 -23 64 -36 64 -10 0 -10 -6&#10;2 -27z"/>
    <path d="M1997 2946 c-11 -29 -8 -53 8 -60 16 -6 20 24 6 58 -7 18 -8 18 -14&#10;2z"/>
    <path d="M2275 2823 c-73 -38 -86 -43 -79 -30 4 6 -4 2 -18 -11 -17 -15 -36&#10;-23 -54 -21 -36 3 -113 -11 -119 -22 -9 -13 15 -22 28 -10 7 5 22 10 32 10 78&#10;1 190 39 250 85 27 21 1 20 -40 -1z"/>
    <path d="M2561 2802 c2 -5 27 -28 56 -51 56 -44 71 -81 58 -140 -8 -38 -17&#10;-39 -44 -5 -12 15 -21 22 -21 17 0 -6 9 -21 19 -35 11 -13 21 -40 23 -59 l3&#10;-34 22 36 c48 77 42 152 -16 210 -38 37 -106 79 -100 61z"/>
    <path d="M1997 2794 c-4 -4 -7 -14 -7 -23 0 -11 3 -12 11 -4 6 6 10 16 7 23&#10;-2 6 -7 8 -11 4z"/>
    <path d="M1791 2790 c-1 -3 -4 -23 -7 -45 -3 -22 -27 -104 -54 -183 -30 -88&#10;-43 -139 -34 -131 19 16 45 74 51 118 3 19 11 50 18 70 l14 36 0 -51 c1 -28 7&#10;-69 15 -90 14 -40 69 -129 87 -140 16 -10 21 2 7 18 -14 15 -33 46 -56 91 -10&#10;20 -11 31 -3 41 6 7 9 15 6 18 -3 3 4 13 16 23 16 15 22 16 28 6 6 -8 10 -2&#10;15 19 9 48 7 100 -4 100 -5 0 -10 -7 -10 -16 0 -8 -9 -35 -20 -60 -14 -30 -27&#10;-44 -40 -44 -16 0 -20 7 -20 33 0 18 -5 38 -11 44 -7 7 -7 24 1 55 7 25 10 56&#10;7 69 -2 13 -5 22 -6 19z"/>
    <path d="M1663 2710 c6 -17 16 -29 21 -27 19 6 15 22 -8 39 l-24 17 11 -29z"/>
    <path d="M2710 2736 c0 -2 118 -63 263 -134 190 -94 276 -132 314 -137 54 -7&#10;79 -27 155 -125 15 -19 28 -31 28 -27 0 14 -91 127 -113 141 -12 7 -49 19 -82&#10;26 -57 12 -328 143 -367 178 -10 8 -18 12 -18 9 0 -3 -35 12 -79 34 -72 36&#10;-101 46 -101 35z"/>
    <path d="M2530 2703 c6 -15 13 -35 17 -43 3 -8 7 -18 7 -22 1 -3 5 -10 9 -15&#10;5 -4 5 10 1 32 -4 22 -11 43 -16 46 -5 3 -9 10 -8 15 1 5 -3 10 -9 12 -8 3 -8&#10;-4 -1 -25z"/>
    <path d="M2175 2700 c-3 -5 3 -10 14 -10 11 0 23 5 26 10 3 6 -3 10 -14 10&#10;-11 0 -23 -4 -26 -10z"/>
    <path d="M1515 2669 c-4 -6 -8 -29 -10 -52 -3 -60 -13 -94 -38 -140 -12 -22&#10;-28 -50 -35 -64 -7 -13 -12 -28 -10 -33 2 -5 24 23 51 61 44 67 47 76 53 155&#10;7 80 4 98 -11 73z"/>
    <path d="M1566 2665 c-3 -9 0 -15 9 -15 8 0 15 7 15 15 0 8 -4 15 -9 15 -5 0&#10;-11 -7 -15 -15z"/>
    <path d="M2755 2648 c8 -13 15 -35 15 -50 0 -35 18 -46 26 -14 6 26 -17 70&#10;-42 80 -13 5 -13 3 1 -16z"/>
    <path d="M1643 2551 c-63 -67 -78 -88 -67 -94 10 -6 21 -1 35 15 l21 23 -14&#10;-25 c-56 -96 -70 -120 -74 -120 -2 0 -1 8 3 18 5 14 4 15 -8 4 -19 -18 -40&#10;-95 -29 -106 12 -12 10 -13 47 54 16 30 47 87 68 125 21 39 47 84 59 100 22&#10;31 49 86 44 90 -2 1 -40 -36 -85 -84z"/>
    <path d="M2850 2619 c43 -34 67 -43 30 -11 -19 17 -39 31 -45 31 -5 0 1 -8 15&#10;-20z"/>
    <path d="M2950 2575 c46 -18 61 -18 30 0 -14 8 -34 14 -45 14 -13 0 -8 -5 15&#10;-14z"/>
    <path d="M2891 2519 c-20 -16 -22 -22 -11 -29 19 -12 40 -1 40 20 0 10 6 21&#10;13 23 8 4 7 6 -3 6 -8 0 -26 -9 -39 -20z"/>
    <path d="M2085 2472 c22 -24 72 -65 112 -93 l72 -50 58 17 c95 27 231 94 236&#10;115 6 22 -18 26 -30 5 -12 -20 -172 -93 -221 -101 -34 -5 -47 -3 -63 11 -10 9&#10;-19 14 -19 10 0 -10 -109 61 -150 98 -31 27 -30 26 5 -12z"/>
    <path d="M2650 2461 c-31 -32 -40 -47 -28 -47 9 0 14 5 11 10 -4 6 1 6 13 2&#10;10 -4 15 -4 11 0 -4 4 1 17 11 28 16 17 37 59 29 55 -1 -1 -22 -22 -47 -48z"/>
    <path d="M2711 2468 c-11 -24 -49 -71 -83 -105 -75 -76 -65 -84 13 -10 50 48&#10;109 141 96 153 -2 3 -14 -14 -26 -38z"/>
    <path d="M1372 2478 c-7 -7 -12 -42 -12 -87 1 -98 20 -73 23 29 1 38 2 70 2&#10;70 -1 0 -6 -5 -13 -12z"/>
    <path d="M3010 2465 c-35 -37 -16 -43 22 -6 21 20 27 31 17 31 -9 0 -26 -11&#10;-39 -25z"/>
    <path d="M1960 2414 c0 -19 42 -94 53 -94 5 0 6 3 4 8 -2 4 -13 28 -25 55 -23&#10;49 -32 58 -32 31z"/>
    <path d="M3290 2420 c0 -5 6 -10 14 -10 8 0 18 5 21 10 3 6 -3 10 -14 10 -12&#10;0 -21 -4 -21 -10z"/>
    <path d="M2792 2378 c-22 -18 -48 -38 -58 -45 -18 -11 -17 -12 5 -12 27 -1 85&#10;39 101 69 16 29 -3 25 -48 -12z"/>
    <path d="M3265 2370 c-4 -12 -5 -24 -2 -27 3 -2 8 5 12 17 4 12 5 24 2 27 -3&#10;2 -8 -5 -12 -17z"/>
    <path d="M3343 2373 c-7 -2 -13 -8 -13 -12 0 -4 -18 -27 -40 -51 -22 -24 -38&#10;-45 -36 -47 8 -8 36 10 36 23 0 8 4 14 8 14 5 0 23 18 41 40 31 38 31 45 4 33z"/>
    <path d="M1220 2358 c0 -16 42 -139 46 -135 7 7 -23 118 -35 130 -6 6 -11 8&#10;-11 5z"/>
    <path d="M1399 2294 c-12 -29 -22 -78 -24 -119 -2 -38 -2 -60 1 -47 3 12 14&#10;27 25 33 24 12 249 50 260 44 4 -3 11 0 14 6 16 24 -244 -6 -269 -31 -17 -17&#10;-29 -11 -23 13 3 12 15 48 27 80 27 72 18 88 -11 21z"/>
    <path d="M2490 2313 c-24 -12 -24 -13 -3 -13 12 0 25 5 28 11 11 16 2 17 -25&#10;2z"/>
    <path d="M3175 2311 c3 -5 1 -12 -5 -16 -5 -3 -10 -11 -10 -18 0 -6 7 -2 15 9&#10;17 23 19 34 4 34 -5 0 -8 -4 -4 -9z"/>
    <path d="M2400 2290 c-12 -8 -11 -10 8 -10 12 0 22 5 22 10 0 13 -11 13 -30 0z"/>
    <path d="M3226 2249 c-18 -54 -16 -79 2 -32 13 35 24 83 18 83 -2 0 -11 -23&#10;-20 -51z"/>
    <path d="M2716 2265 c9 -24 56 -33 109 -21 11 2 23 5 28 5 4 1 7 6 7 11 0 6&#10;-27 9 -63 8 -35 -1 -69 2 -75 6 -8 5 -10 2 -6 -9z"/>
    <path d="M1201 2250 c-1 -48 74 -180 101 -180 6 0 2 10 -9 23 -30 34 -64 94&#10;-79 140 -9 32 -13 36 -13 17z"/>
    <path d="M2505 2254 c17 -7 35 -13 41 -14 6 0 17 -7 24 -15 18 -21 29 -19 23&#10;5 -3 11 0 20 6 20 6 0 11 3 11 8 0 4 -30 7 -68 8 -63 1 -65 0 -37 -12z"/>
    <path d="M3303 2235 c-28 -19 -60 -46 -71 -60 -13 -17 -22 -21 -25 -13 -2 7&#10;-9 -7 -16 -32 -11 -46 -53 -188 -65 -225 -4 -11 2 -2 13 20 11 22 30 72 41&#10;111 21 75 52 115 150 196 57 47 41 49 -27 3z"/>
    <path d="M1240 2227 c0 -25 91 -159 137 -199 11 -10 18 -29 18 -45 -2 -25 -6&#10;-28 -40 -31 -54 -5 -77 3 -129 43 -25 19 -46 31 -46 27 0 -16 64 -63 110 -79&#10;51 -18 51 -20 3 -65 -13 -12 -23 -28 -23 -35 0 -7 -4 -13 -9 -13 -5 0 -14 -13&#10;-20 -30 -5 -17 -17 -30 -26 -30 -12 0 -15 -6 -10 -20 4 -13 -2 -31 -19 -53&#10;-14 -19 -26 -38 -26 -43 0 -5 -21 -31 -45 -57 -25 -26 -58 -74 -75 -107 -16&#10;-32 -34 -62 -40 -65 -16 -10 -124 101 -114 117 6 10 5 11 -8 1 -8 -7 -17 -10&#10;-21 -7 -3 3 -3 -4 0 -16 5 -20 4 -21 -15 -11 -12 6 -25 18 -30 27 -7 13 -12&#10;11 -35 -12 -32 -32 -35 -15 -6 35 20 35 20 35 0 11 -11 -14 -26 -32 -33 -40&#10;-16 -19 -54 -146 -63 -211 -4 -27 -1 -71 6 -103 l12 -56 -76 -150 c-43 -82&#10;-77 -154 -77 -160 0 -6 -9 -29 -19 -53 -39 -84 -101 -361 -101 -449 0 -52 -19&#10;-86 -88 -155 -60 -62 -106 -138 -100 -169 2 -13 13 -20 34 -22 27 -3 34 3 64&#10;50 19 29 42 73 52 98 l17 45 -25 -30 c-24 -30 -56 -76 -88 -128 -16 -27 -36&#10;-36 -36 -17 0 16 63 110 101 151 86 92 95 110 103 189 18 199 85 422 191 639&#10;l74 151 -16 45 c-20 61 -14 165 15 226 23 50 35 63 73 77 29 12 83 -9 124 -48&#10;26 -25 79 -48 130 -57 25 -5 28 -4 18 8 -7 8 -11 26 -10 39 3 32 42 105 64&#10;122 20 15 62 78 82 123 7 17 38 68 69 114 69 103 158 167 151 109 -2 -13 -1&#10;-27 3 -33 3 -5 9 -76 13 -157 8 -170 14 -161 -92 -133 -65 17 -151 19 -173 5&#10;-11 -7 -2 -10 33 -10 27 0 94 -12 149 -26 70 -17 113 -23 140 -19 36 6 54 25&#10;24 25 -8 0 -19 12 -25 28 l-11 27 5 -32 c2 -18 0 -33 -5 -33 -12 0 -20 34 -19&#10;85 1 49 -9 221 -14 255 -3 14 -17 62 -32 108 -19 57 -32 81 -41 78 -14 -5 -76&#10;63 -113 124 -11 19 -21 31 -21 27z"/>
    <path d="M3385 2141 c-22 -26 -51 -63 -65 -81 -14 -18 -75 -83 -137 -144 -85&#10;-84 -111 -105 -107 -86 11 46 25 101 31 116 3 8 -1 14 -9 14 -9 0 -18 -22 -27&#10;-62 -23 -108 -36 -147 -70 -206 -20 -35 -24 -33 -51 23 -24 47 -85 124 -119&#10;149 -17 13 -29 25 -27 27 3 2 -10 14 -29 26 -49 32 -39 3 15 -44 70 -60 100&#10;-94 137 -151 34 -53 38 -90 8 -78 -8 3 -15 0 -15 -6 0 -6 -3 -9 -6 -5 -3 3&#10;-30 -3 -60 -14 -30 -11 -58 -18 -63 -15 -5 4 -12 2 -16 -4 -4 -6 -11 -8 -16&#10;-5 -5 4 -9 3 -9 -2 0 -4 -21 -9 -48 -11 -26 -2 -49 -7 -50 -13 -2 -5 -19 -7&#10;-40 -3 -34 7 -36 6 -23 -9 11 -14 11 -17 0 -18 -8 0 -4 -5 8 -11 19 -9 26 -7&#10;40 11 14 16 31 22 75 24 31 1 52 5 46 8 -13 8 41 19 59 12 26 -10 10 -46 -27&#10;-58 -35 -12 -35 -13 -38 -75 l-3 -63 35 21 c36 22 46 20 46 -9 0 -13 -11 -20&#10;-35 -25 -34 -6 -53 -20 -42 -30 3 -3 22 2 42 10 36 15 37 15 32 -4 -3 -11 -1&#10;-23 4 -26 5 -3 9 32 9 80 0 76 -2 85 -17 79 -11 -4 -12 -8 -5 -11 19 -6 14&#10;-32 -6 -32 -29 0 -33 10 -16 41 15 30 8 38 -16 17 -12 -11 -12 -10 -1 5 16 20&#10;47 23 54 5 3 -8 6 -6 6 5 1 9 2 17 4 17 1 0 32 9 70 19 56 16 67 17 67 5 0 -8&#10;5 -14 11 -14 8 0 9 11 5 31 -3 17 -7 39 -7 48 -1 9 -4 3 -8 -13 -5 -26 -13&#10;-31 -71 -47 -36 -10 -66 -18 -67 -19 -2 0 -3 11 -3 25 0 14 -6 25 -12 26 -18&#10;1 30 19 61 23 14 2 34 7 45 11 10 4 31 8 46 9 15 1 26 4 23 9 -2 4 1 7 6 7 6&#10;0 11 8 11 17 0 29 34 91 57 104 12 6 22 15 21 18 -2 20 4 30 15 26 6 -3 32 8&#10;57 25 25 16 40 30 34 30 -6 0 -28 -11 -49 -25 -68 -47 -48 -18 41 56 105 89&#10;270 290 236 289 -4 0 -25 -22 -47 -49z"/>
    <path d="M3302 2129 c-13 -16 -19 -29 -15 -29 14 0 56 47 46 53 -4 2 -18 -9&#10;-31 -24z"/>
    <path d="M4452 2135 c-16 -19 -57 -21 -46 -2 5 7 0 6 -11 -3 -17 -14 -14 -16&#10;39 -24 64 -10 72 -6 56 23 -13 25 -20 26 -38 6z"/>
    <path d="M3443 2118 c-11 -13 -33 -43 -48 -68 -16 -25 -67 -84 -114 -132 -48&#10;-49 -84 -88 -80 -88 16 0 100 65 124 96 14 19 37 47 50 62 40 44 45 51 45 58&#10;0 4 10 21 23 38 13 17 27 37 31 44 12 20 -9 13 -31 -10z"/>
    <path d="M1340 2110 c6 -11 16 -20 22 -20 6 0 3 9 -7 20 -10 11 -20 20 -22 20&#10;-2 0 1 -9 7 -20z"/>
    <path d="M4378 2079 c-23 -13 -23 -24 3 -48 15 -13 17 -21 9 -26 -7 -4 -16 -1&#10;-21 6 -7 12 -9 11 -9 -1 0 -11 -18 -20 -62 -29 -130 -27 -199 -44 -195 -48 3&#10;-2 58 8 122 22 96 22 123 25 144 15 20 -9 22 -13 10 -21 -9 -7 -1 -8 26 -3 58&#10;10 95 22 71 23 -13 1 -16 6 -12 19 4 12 1 11 -13 -5 -19 -23 -61 -32 -61 -13&#10;0 6 -8 10 -17 11 -15 0 -15 2 2 9 11 4 24 4 30 -1 5 -5 15 -9 23 -9 11 0 12&#10;10 7 43 -7 40 -20 67 -34 67 -3 0 -14 -5 -23 -11z"/>
    <path d="M3455 2024 c-32 -60 -142 -154 -230 -196 -44 -21 -69 -36 -55 -33 14&#10;3 62 24 107 46 62 30 93 52 127 93 25 29 46 58 46 65 0 6 4 11 9 11 8 0 24 41&#10;18 47 -2 1 -11 -14 -22 -33z"/>
    <path d="M2791 2006 c12 -10 60 -16 54 -6 -3 5 -18 10 -32 10 -15 0 -24 -2&#10;-22 -4z"/>
    <path d="M935 1968 c-4 -13 -7 -26 -6 -30 1 -5 -3 -8 -8 -8 -5 0 -13 -10 -17&#10;-22 -3 -13 -13 -31 -22 -40 -24 -28 -2 -21 24 7 13 14 20 25 17 25 -3 0 2 9&#10;12 20 18 20 18 20 44 0 14 -12 53 -39 86 -62 60 -41 59 -41 -30 45 -49 48 -91&#10;87 -91 87 -1 0 -5 -10 -9 -22z"/>
    <path d="M3479 1958 c-5 -17 -4 -50 3 -54 4 -3 8 9 8 25 0 17 -2 31 -5 31 -3&#10;0 -5 -1 -6 -2z"/>
    <path d="M1573 1945 c11 -13 109 -42 197 -60 86 -18 180 -45 180 -53 0 -14&#10;-39 -31 -72 -32 -29 0 -36 -3 -32 -15 4 -10 -3 -18 -19 -24 -14 -5 -26 -14&#10;-28 -20 -2 -6 -16 -12 -31 -13 -27 -2 -40 -18 -15 -18 6 0 -8 -12 -33 -26 -25&#10;-14 -64 -41 -87 -60 -23 -19 -49 -34 -59 -34 -13 0 -15 -3 -7 -11 12 -12 78&#10;24 183 100 105 76 198 131 264 157 56 22 57 24 21 19 -29 -4 -98 7 -236 39&#10;-108 25 -204 49 -215 52 -10 4 -15 3 -11 -1z"/>
    <path d="M4120 1906 c-50 -10 -55 -13 -52 -35 1 -14 4 -27 7 -29 2 -2 35 5 72&#10;16 37 11 91 23 118 26 47 6 51 4 70 -24 11 -16 27 -30 35 -29 10 0 11 2 3 6&#10;-21 8 -15 32 7 30 12 -1 18 -7 16 -14 -4 -9 4 -13 22 -14 24 0 25 -1 7 -9 -11&#10;-5 -32 -9 -47 -9 -15 -1 -31 -8 -36 -16 -7 -13 -14 -13 -41 -4 -28 10 -31 13&#10;-17 21 9 5 14 14 10 20 -4 6 2 8 17 4 l24 -7 -24 14 c-15 9 -20 16 -12 20 8 4&#10;7 5 -1 3 -7 -2 -13 -8 -13 -14 0 -6 -6 -17 -12 -23 -18 -18 -16 -49 2 -49 8 0&#10;15 -5 15 -10 0 -7 15 -9 38 -6 35 5 34 4 -6 -6 -36 -9 -45 -9 -53 3 -8 12 -13&#10;6 -11 -12 1 -4 -20 -10 -46 -13 -26 -4 -60 -9 -77 -11 -16 -3 -24 -2 -17 1 6&#10;3 12 12 12 20 0 16 17 19 22 4 2 -6 17 -8 36 -4 32 6 32 7 12 21 -14 10 -34&#10;13 -63 8 -41 -6 -41 -5 -17 9 14 9 19 15 13 16 -7 0 -13 5 -13 10 0 7 6 7 18&#10;2 9 -5 35 -8 56 -7 30 2 44 9 60 31 18 25 19 27 2 21 -10 -4 -19 -7 -22 -7 -2&#10;0 -1 -6 2 -13 5 -15 -37 -21 -46 -7 -4 6 -27 5 -61 -2 l-56 -11 14 -66 c18&#10;-91 19 -93 40 -82 10 5 45 15 78 21 33 6 92 27 130 46 68 33 145 88 145 103 0&#10;53 -208 86 -360 57z"/>
    <path d="M2868 1884 c6 -10 29 -32 51 -49 23 -16 51 -38 63 -48 23 -19 32 -17&#10;23 4 -7 17 -104 95 -129 105 -16 6 -17 4 -8 -12z"/>
    <path d="M4017 1874 c-3 -3 -59 -21 -124 -39 -87 -25 -120 -30 -125 -22 -11&#10;17 -10 27 4 27 6 0 9 2 6 5 -13 13 -35 -7 -31 -28 4 -20 -4 -24 -98 -50 -78&#10;-21 -104 -25 -110 -15 -4 6 -5 16 -3 20 3 4 0 8 -6 8 -6 0 -8 -10 -4 -24 5&#10;-20 1 -24 -35 -34 -30 -7 -41 -7 -41 2 0 6 -7 3 -14 -6 -7 -10 -17 -18 -22&#10;-18 -5 0 -10 -16 -12 -36 -1 -20 2 -33 8 -29 5 3 7 12 4 19 -3 8 -1 17 5 21 7&#10;4 11 -4 11 -19 0 -14 4 -27 10 -31 5 -3 7 -13 4 -23 -4 -10 -3 -13 3 -6 4 6&#10;18 14 31 18 30 10 28 28 -2 20 -19 -5 -25 -1 -30 22 -9 33 6 49 52 59 27 6 32&#10;4 32 -12 0 -14 -11 -23 -37 -30 l-38 -11 40 1 c22 1 43 7 47 12 5 6 8 5 8 -3&#10;0 -11 2 -11 13 0 8 7 53 24 100 37 48 13 85 26 82 29 -2 2 -41 -5 -86 -18&#10;-103 -27 -119 -30 -119 -22 1 20 22 32 85 47 39 9 78 21 87 26 34 18 48 11 49&#10;-23 1 -38 7 -77 19 -128 l8 -35 1 32 c1 17 4 33 9 36 4 2 1 2 -5 1 -8 -2 -13&#10;7 -13 24 0 21 2 24 10 12 8 -13 10 -12 10 3 0 9 -4 17 -9 17 -5 0 -12 7 -15&#10;16 -3 8 -2 13 3 9 5 -3 11 -2 13 3 4 11 207 64 218 57 15 -9 0 -34 -23 -37&#10;-16 -3 -13 -5 12 -9 33 -6 33 -6 27 29 -3 19 -7 36 -9 38 -3 3 -149 -36 -225&#10;-60 -17 -6 -19 -3 -15 14 3 11 17 23 32 26 14 3 58 15 96 27 39 11 78 20 88&#10;19 9 0 17 4 17 9 0 5 10 14 23 19 14 5 16 9 6 9 -9 1 -18 -2 -22 -5z"/>
    <path d="M2120 1861 c-12 -8 -7 -11 20 -11 38 0 150 -62 150 -83 0 -20 -16&#10;-38 -30 -35 -8 2 -16 -5 -18 -14 -2 -12 5 -21 23 -28 31 -12 55 -3 34 12 -11&#10;7 -11 11 -1 15 6 2 12 12 13 21 0 10 5 4 10 -13 14 -46 -14 -75 -106 -109 -54&#10;-21 -93 -44 -130 -78 -60 -55 -153 -194 -147 -221 4 -22 22 -12 22 12 0 14 19&#10;24 83 44 78 25 198 57 211 57 11 0 6 -39 -7 -52 -12 -11 -12 -16 1 -27 13 -13&#10;13 -16 -4 -28 -10 -7 -13 -13 -5 -13 20 0 43 27 30 36 -15 9 17 34 43 34 10 0&#10;18 4 18 10 0 6 -9 6 -26 0 -33 -13 -47 -13 -39 1 10 15 -3 59 -18 59 -19 1&#10;-140 64 -143 75 -4 14 44 48 70 49 11 1 20 7 19 13 -1 6 19 16 44 23 44 11 85&#10;42 95 72 3 7 17 12 32 10 21 -1 27 2 23 12 -3 8 -1 17 6 20 7 2 4 5 -5 5 -10&#10;1 -56 31 -104 67 -86 66 -134 85 -164 65z m29 -388 c41 -18 43 -20 27 -36 -10&#10;-9 -28 -17 -40 -17 -12 0 -26 -3 -30 -7 -3 -4 -17 -8 -29 -10 -12 -1 -34 -5&#10;-50 -8 l-27 -5 17 28 c10 15 23 31 30 35 7 4 13 16 13 27 0 22 26 21 89 -7z"/>
    <path d="M3315 1829 c-22 -10 -78 -31 -125 -45 -107 -34 -124 -47 -34 -28 64&#10;15 214 76 214 89 0 8 -12 5 -55 -16z"/>
    <path d="M3358 1802 c-18 -16 -48 -38 -66 -51 -18 -12 -30 -26 -28 -30 3 -4&#10;-18 -13 -45 -20 -28 -7 -48 -15 -45 -18 2 -2 32 3 67 13 35 10 57 20 50 22 -6&#10;2 16 24 51 48 35 25 65 49 66 54 7 19 -17 10 -50 -18z"/>
    <path d="M3381 1766 c-34 -18 -40 -24 -27 -29 26 -10 33 -8 16 4 -11 8 -6 9&#10;20 5 23 -4 28 -3 15 2 -17 8 -15 10 13 15 18 4 32 11 32 17 0 15 -21 11 -69&#10;-14z"/>
    <path d="M4444 1755 c-4 -8 -4 -22 0 -30 3 -8 1 -15 -4 -15 -6 0 -10 -5 -10&#10;-12 0 -9 3 -9 12 0 14 14 42 16 34 3 -3 -5 0 -14 8 -20 11 -9 14 -2 15 39 1&#10;47 -1 50 -24 50 -14 0 -28 -7 -31 -15z"/>
    <path d="M3880 1733 c-30 -8 -59 -18 -64 -23 -9 -9 134 28 143 36 8 7 -24 2&#10;-79 -13z"/>
    <path d="M3315 1713 c12 -61 16 -73 25 -73 6 0 10 9 10 20 0 11 -5 20 -11 20&#10;-7 0 -9 10 -7 25 4 16 1 25 -7 25 -7 0 -12 -8 -10 -17z"/>
    <path d="M4022 1713 c2 -9 8 -18 15 -20 7 -3 9 3 6 16 -6 25 -26 28 -21 4z"/>
    <path d="M2115 1688 c-75 -38 -139 -88 -202 -161 -60 -69 -133 -175 -133 -194&#10;0 -20 30 12 60 62 13 22 27 42 30 45 3 3 24 27 45 55 66 81 69 85 82 85 6 0&#10;16 6 20 13 4 8 28 24 53 38 25 13 47 27 50 30 3 3 19 10 35 16 17 5 31 17 33&#10;26 4 22 -1 21 -73 -15z"/>
    <path d="M3110 1682 c24 -4 24 -5 5 -13 -18 -9 -18 -9 3 -5 18 3 22 0 22 -20&#10;0 -16 -6 -24 -17 -24 -10 0 -25 -5 -33 -11 -12 -8 -9 -9 12 -5 52 11 81 -18&#10;31 -30 -24 -7 -25 -8 -8 -14 11 -4 23 -3 26 2 3 5 8 9 10 8 2 -1 11 1 19 4 37&#10;12 129 36 139 36 6 0 11 -6 11 -14 0 -8 -30 -22 -77 -35 -86 -24 -125 -39&#10;-106 -40 7 -1 10 -8 6 -18 -4 -11 -3 -14 5 -9 7 4 12 13 12 20 0 8 28 21 68&#10;31 37 10 72 20 79 22 6 3 13 -4 16 -14 3 -13 5 -11 6 7 1 18 4 21 10 12 7 -11&#10;9 -11 14 2 4 10 1 16 -8 16 -26 0 -16 28 13 38 58 22 -8 10 -100 -17 -92 -27&#10;-97 -27 -101 -10 -4 16 6 22 69 41 41 11 72 23 70 26 -3 2 -36 -5 -75 -17 -86&#10;-26 -84 -26 -79 3 5 25 -15 38 -52 35 -8 -1 -4 -4 10 -7z"/>
    <path d="M3650 1670 c-36 -11 -76 -22 -89 -24 -31 -7 -30 -5 -21 -51 4 -22 8&#10;-34 9 -27 0 7 6 10 11 7 6 -3 10 -1 10 4 0 6 -4 11 -9 11 -5 0 -11 9 -14 20&#10;-6 22 8 28 16 8 4 -9 6 -7 6 3 1 12 25 23 86 39 47 13 85 24 85 26 0 7 -25 2&#10;-90 -16z"/>
    <path d="M2575 1668 c17 -6 32 -14 35 -18 3 -3 14 -10 25 -14 18 -7 18 -5 -2&#10;16 -14 15 -35 24 -55 25 l-33 2 30 -11z"/>
    <path d="M3845 1670 c-13 -5 -14 -9 -5 -9 8 0 24 4 35 9 13 5 14 9 5 9 -8 0&#10;-24 -4 -35 -9z"/>
    <path d="M4440 1664 c0 -5 14 -18 30 -27 26 -16 30 -16 30 -3 0 9 -8 16 -18&#10;16 -10 0 -23 5 -30 12 -7 7 -12 8 -12 2z"/>
    <path d="M1500 1653 c0 -7 9 -27 20 -45 11 -18 20 -28 20 -23 -1 16 -39 82&#10;-40 68z"/>
    <path d="M 3940 1609 C 3871 1589 3813 1577 3811 1582 C 3810 1587 3801 1585 3791 1577 C 3773 1562 3616 1520 3575 1520 C 3561 1520 3550 1516 3550 1510 C 3550 1505 3543 1500 3535 1500 C 3527 1500 3487 1489 3445 1476 C 3404 1463 3370 1456 3370 1462 C 3370 1467 3365 1468 3358 1464 C 3350 1459 3348 1468 3352 1498 C 3356 1528 3355 1537 3345 1534 C 3336 1530 3335 1517 3341 1487 C 3345 1464 3348 1445 3347 1445 C 3346 1444 3310 1434 3267 1422 C 3224 1410 3184 1402 3178 1406 C 3173 1410 3165 1407 3161 1401 C 3153 1388 3046 1357 3013 1357 C 3000 1358 2993 1354 2995 1349 C 2998 1344 2988 1338 2973 1334 C 2958 1331 2917 1319 2884 1309 C 2824 1290 2822 1288 2816 1249 C 2811 1215 2806 1209 2792 1215 C 2783 1219 2766 1224 2755 1226 C 2738 1230 2738 1229 2758 1219 C 2781 1207 2788 1190 2770 1190 C 2757 1190 2757 1167 2772 1135 C 2786 1104 2802 1102 2795 1133 C 2791 1148 2796 1165 2809 1181 C 2826 1201 2829 1202 2830 1187 C 2830 1158 2850 1178 2850 1208 C 2850 1260 2861 1279 2897 1291 C 2916 1297 2934 1299 2937 1296 C 2940 1293 2949 1298 2957 1308 C 2969 1323 2970 1321 2964 1290 C 2960 1271 2956 1221 2955 1180 C 2953 1092 2932 981 2914 961 C 2905 951 2905 940 2912 919 C 2918 903 2920 883 2917 876 C 2913 867 2920 860 2936 856 C 2973 846 3039 782 3048 747 C 3052 730 3052 691 3048 660 C 3043 630 3038 596 3036 584 C 3035 573 3029 557 3025 549 C 3017 537 3019 537 3033 548 C 3061 571 3090 644 3089 691 C 3088 776 3047 841 2969 881 C 2937 897 2930 906 2930 929 C 2930 974 2990 991 3175 999 C 3347 1006 3330 1020 3151 1018 C 3076 1018 3028 1013 3011 1004 C 2977 986 2944 985 2957 1003 C 2969 1017 2990 1163 2991 1235 C 2992 1307 3000 1321 3051 1335 C 3075 1342 3149 1364 3215 1385 C 3380 1437 3397 1439 3406 1406 C 3409 1392 3410 1369 3406 1356 C 3403 1344 3398 1315 3395 1294 C 3391 1273 3383 1224 3375 1185 C 3364 1123 3363 1008 3374 957 C 3377 944 3374 940 3365 944 C 3354 948 3353 944 3360 924 C 3378 878 3320 708 3299 742 C 3292 752 3290 750 3290 736 C 3290 705 3250 648 3186 587 C 3144 548 3131 530 3145 532 C 3159 534 3165 529 3165 515 C 3165 503 3173 494 3185 492 C 3238 484 3291 466 3299 452 C 3303 444 3316 437 3326 436 C 3337 435 3356 429 3370 423 C 3442 393 3504 371 3508 375 C 3515 381 3447 420 3428 420 C 3419 420 3393 436 3370 455 C 3336 483 3320 490 3285 490 C 3258 490 3238 496 3229 506 C 3222 515 3204 527 3190 532 C 3166 542 3166 543 3184 554 C 3223 576 3290 643 3320 687 C 3378 776 3388 822 3394 1011 C 3397 1130 3405 1217 3419 1285 C 3431 1340 3440 1402 3440 1422 C 3440 1457 3442 1460 3483 1470 C 3506 1476 3530 1483 3537 1485 C 3545 1487 3569 1493 3575 1498 C 3576.571 1499.571 4026.295 1655.803 4209.043 1629.458 C 4326.863 1612.473 4383.032 1510.211 4397.135 1505.384 C 4445.299 1488.899 4414.641 1500.756 4425 1494 C 4448 1479 4452 1479 4475 1494 C 4494 1506 4500 1519 4500 1546 L 4500 1581 L 4463 1551 C 4442 1534 4421 1520 4415 1520 C 4409 1520 4387 1538 4366 1559 C 4274 1654 4144 1669 3940 1609 Z"/>
    <path d="M2510 1615 c7 -8 16 -12 21 -9 5 3 9 0 9 -7 0 -7 3 -9 6 -6 10 9 -16&#10;37 -33 37 -13 0 -13 -3 -3 -15z"/>
    <path d="M3048 1610 c-7 -11 -20 -20 -28 -21 -10 0 -11 -2 -2 -6 22 -9 14 -42&#10;-13 -49 -14 -3 -25 -13 -25 -21 0 -12 2 -12 16 1 8 9 24 16 35 16 15 0 18 5&#10;13 24 -3 13 -1 27 5 30 7 5 11 -5 11 -27 0 -27 5 -36 21 -40 24 -6 49 1 49 14&#10;0 5 -14 6 -31 2 l-31 -6 3 52 c4 54 -3 64 -23 31z"/>
    <path d="M3660 1620 c-11 -8 -7 -9 15 -4 37 8 45 14 19 14 -10 0 -26 -5 -34&#10;-10z"/>
    <path d="M3388 1610 c-6 -18 18 -47 55 -66 23 -12 27 -12 27 0 0 7 -8 20 -17&#10;27 -14 12 -16 12 -9 0 6 -9 5 -12 -5 -9 -8 3 -13 13 -13 22 1 9 -4 16 -11 16&#10;-7 0 -15 6 -17 13 -4 9 -6 8 -10 -3z"/>
    <path d="M2484 1541 c17 -18 17 -20 -1 -28 -10 -5 -28 -8 -40 -7 -13 0 -23 -2&#10;-23 -5 0 -4 -8 -7 -17 -8 -10 -1 -34 -6 -53 -11 -32 -9 -33 -11 -12 -17 17 -6&#10;21 -13 17 -29 -5 -19 -5 -19 5 -3 6 9 8 22 5 27 -3 5 4 10 17 10 46 0 66 4 62&#10;12 -3 4 -1 8 5 8 5 0 12 -8 14 -17 4 -14 5 -12 6 5 0 12 6 22 12 22 5 0 7 -4&#10;4 -10 -3 -6 1 -7 9 -4 9 3 16 10 16 16 0 5 9 6 20 3 11 -4 20 -2 20 4 0 6 5&#10;11 10 11 6 0 10 -15 10 -33 0 -18 7 -42 15 -53 13 -17 14 -17 9 -1 -4 11 0 24&#10;12 33 18 14 18 15 -5 8 -21 -6 -23 -4 -19 19 5 27 1 30 -81 56 -33 11 -34 11&#10;-17 -8z"/>
    <path d="M2892 1503 c-64 -23 -44 -26 24 -4 32 10 50 19 39 19 -11 0 -39 -6&#10;-63 -15z"/>
    <path d="M3240 1500 c-30 -10 -50 -18 -45 -19 6 0 37 8 70 18 33 11 53 19 45&#10;19 -8 1 -40 -7 -70 -18z"/>
    <path d="M3014 1499 c-2 -4 -40 -17 -84 -30 -44 -12 -80 -26 -80 -30 0 -4 28&#10;1 63 12 34 10 63 19 64 19 1 0 4 -8 6 -17 4 -14 5 -12 6 5 0 12 4 21 9 20 4 0&#10;15 2 25 7 11 4 23 3 30 -4 6 -6 29 -11 52 -10 22 0 33 3 25 6 -8 3 -21 11 -29&#10;17 -15 11 -80 15 -87 5z"/>
    <path d="M3151 1448 l2 -33 4 29 c4 22 7 26 14 15 7 -11 9 -11 9 4 0 9 -7 17&#10;-15 17 -11 0 -15 -10 -14 -32z"/>
    <path d="M2993 1433 c-7 -2 -13 -12 -12 -21 0 -11 2 -12 6 -4 2 6 9 10 14 6 5&#10;-3 9 2 9 10 0 9 -1 16 -2 15 -2 0 -9 -3 -15 -6z"/>
    <path d="M2547 1416 c-4 -9 -13 -16 -22 -16 -8 0 -15 -5 -15 -11 0 -5 -4 -7&#10;-10 -4 -16 10 -12 -11 5 -25 9 -7 15 -29 15 -54 0 -46 6 -58 35 -74 11 -6 14&#10;-12 8 -12 -15 0 -18 -30 -4 -30 11 0 18 27 26 106 6 50 4 68 -12 99 -15 29&#10;-21 34 -26 21z"/>
    <path d="M835 1401 c-47 -21 -77 -51 -52 -51 8 0 17 5 19 11 2 5 10 11 18 12&#10;8 2 20 5 25 8 23 13 46 18 40 9 -9 -15 7 -12 29 5 16 12 17 15 4 15 -9 0 -22&#10;2 -30 4 -7 3 -31 -3 -53 -13z"/>
    <path d="M2610 1415 c0 -2 13 -17 29 -34 19 -20 35 -29 45 -25 32 12 11 43&#10;-38 54 -20 4 -36 7 -36 5z"/>
    <path d="M2898 1403 c-27 -8 -48 -18 -48 -23 0 -6 24 0 53 11 81 32 79 38 -5&#10;12z"/>
    <path d="M2350 1367 c0 -15 -5 -38 -12 -52 -10 -22 -17 -26 -40 -21 -33 7 -40&#10;-2 -30 -39 11 -38 37 -48 30 -11 -4 20 -1 26 13 26 11 0 22 1 25 3 4 1 15 -23&#10;25 -53 18 -55 23 -134 7 -124 -4 3 -5 -2 -2 -10 14 -37 34 -2 34 62 0 18 -9&#10;58 -20 89 -30 86 -28 99 20 107 60 9 54 29 -13 41 -35 7 -37 6 -37 -18z"/>
    <path d="M2085 1350 c-4 -16 -11 -30 -17 -30 -5 0 -2 -7 7 -16 19 -20 13 -28&#10;-38 -44 -20 -6 -35 -15 -32 -20 3 -5 17 -3 31 5 15 7 35 12 45 10 11 -2 19 0&#10;19 4 0 5 11 12 24 15 13 3 31 9 40 12 11 4 16 0 16 -13 0 -15 -14 -23 -70 -37&#10;-68 -18 -90 -32 -50 -32 11 0 20 5 20 10 0 5 3 6 7 3 3 -4 12 -2 20 4 7 6 22&#10;9 33 6 11 -3 18 -1 14 4 -3 5 -1 9 5 9 5 0 11 -15 13 -32 2 -19 8 -32 15 -31&#10;6 2 15 -7 18 -18 4 -11 12 -18 18 -16 15 5 16 42 2 42 -28 1 -47 23 -40 45 6&#10;18 9 20 16 9 7 -11 9 -11 9 3 0 9 6 19 13 22 6 4 2 4 -9 2 -19 -3 -22 1 -22&#10;35 -1 23 3 37 9 33 5 -3 9 -11 8 -17 -3 -27 2 -37 19 -36 10 0 12 3 5 6 -7 2&#10;-13 14 -13 26 0 12 -4 27 -8 34 -9 14 -52 6 -52 -9 0 -5 5 -6 10 -3 6 3 10 -3&#10;10 -14 0 -15 -10 -23 -37 -30 -48 -14 -56 -6 -49 45 6 50 1 59 -9 14z"/>
    <path d="M1130 1340 c0 -11 7 -20 15 -20 7 0 18 -7 23 -16 5 -9 12 -12 15 -7&#10;5 8 -37 63 -48 63 -3 0 -5 -9 -5 -20z"/>
    <path d="M2008 1318 c-6 -30 -2 -33 22 -18 9 6 10 10 3 10 -6 0 -13 8 -15 18&#10;-3 12 -6 9 -10 -10z"/>
    <path d="M1750 1286 c-179 -52 -183 -53 -174 -67 4 -8 9 -7 15 2 6 11 11 11&#10;20 2 9 -9 16 -7 30 10 18 22 18 22 19 1 0 -11 -4 -24 -9 -30 -6 -5 -4 -14 4&#10;-21 10 -9 14 -4 19 27 7 43 23 60 37 39 7 -11 11 -10 23 6 12 16 16 17 30 6&#10;14 -11 16 -11 16 3 0 21 29 33 40 16 6 -9 11 -7 19 9 12 22 37 28 43 11 2 -6&#10;11 -1 20 10 24 27 18 26 -152 -24z"/>
    <path d="M2768 1323 c-11 -3 -18 -14 -18 -30 0 -21 3 -24 23 -19 12 3 26 6 30&#10;6 5 0 1 7 -7 16 -9 8 -14 20 -11 25 4 5 5 8 3 8 -2 -1 -11 -3 -20 -6z"/>
    <path d="M1010 1291 c0 -5 12 -19 27 -30 28 -23 27 -31 -6 -34 -25 -2 -25 0&#10;-6 -37 18 -35 16 -34 59 -16 33 14 35 13 61 -14 22 -23 25 -32 16 -47 -9 -16&#10;-10 -16 -11 6 0 20 -4 22 -24 17 -14 -3 -28 -2 -31 4 -3 5 -12 10 -18 10 -7&#10;-1 2 -13 20 -28 27 -24 42 -28 102 -30 38 -1 73 3 76 8 3 6 -1 11 -9 11 -9 1&#10;-20 3 -26 4 -5 1 -17 3 -25 4 -8 0 -54 42 -102 91 -81 85 -103 102 -103 81z&#10;m61 -81 c5 0 9 -5 9 -11 0 -15 -43 -7 -48 10 -3 10 0 12 12 8 10 -4 22 -7 27&#10;-7z"/>
    <path d="M1903 1279 c-35 -10 -38 -15 -24 -37 6 -10 10 -9 14 7 6 22 37 29 37&#10;9 0 -9 4 -8 10 2 20 31 15 34 -37 19z"/>
    <path d="M1496 1240 c-20 -22 -36 -50 -36 -63 0 -12 -11 -80 -25 -150 -23&#10;-117 -24 -132 -11 -170 30 -91 77 -39 95 106 7 51 20 137 30 193 9 55 15 106&#10;13 112 -7 22 -29 12 -66 -28z m49 -20 c-3 -5 -11 -10 -17 -10 -6 0 -17 -8 -24&#10;-17 -13 -17 -13 -17 -14 0 0 10 10 22 23 27 30 12 39 12 32 0z m-25 -57 c-8&#10;-3 -19 -13 -24 -21 -7 -12 -10 -12 -17 -1 -9 14 11 28 41 28 13 -1 13 -1 0 -6z&#10;m-21 -68 c-20 -20 -25 -21 -27 -8 -4 16 14 33 37 33 8 0 5 -9 -10 -25z m-16&#10;-55 c-3 -11 -9 -20 -14 -20 -14 0 -11 28 4 33 6 3 13 6 14 6 0 1 -1 -8 -4 -19z&#10;m-13 -54 c0 -8 -4 -18 -10 -21 -5 -3 -10 3 -10 14 0 12 5 21 10 21 6 0 10 -6&#10;10 -14z m8 -40 c-10 -7 -18 -18 -18 -24 0 -6 -4 -14 -10 -17 -5 -3 -10 2 -10&#10;13 0 10 10 24 23 30 30 15 35 14 15 -2z"/>
    <path d="M1967 1262 c-10 -10 -17 -23 -17 -29 0 -6 -8 -9 -19 -6 -10 3 -22 0&#10;-25 -6 -4 -7 -1 -9 8 -5 18 7 59 -14 51 -27 -4 -5 -11 -7 -16 -4 -13 9 -10 -6&#10;7 -35 l15 -25 -5 26 c-7 32 2 43 21 27 8 -6 13 -7 12 -2 -4 21 2 28 11 14 8&#10;-13 10 -12 10 4 0 11 -5 16 -13 13 -26 -10 -39 7 -27 38 13 35 8 41 -13 17z"/>
    <path d="M1229 1247 c6 -8 8 -17 4 -20 -3 -4 2 -7 11 -7 12 0 16 5 12 16 -3 9&#10;-6 18 -6 20 0 2 -7 4 -16 4 -13 0 -14 -3 -5 -13z"/>
    <path d="M1785 1245 c-22 -7 -53 -16 -68 -20 -25 -5 -27 -8 -15 -22 12 -15 13&#10;-15 16 0 4 19 27 23 38 6 4 -7 -4 -20 -17 -30 -33 -25 -21 -29 21 -7 19 10 29&#10;18 23 18 -18 0 -16 37 2 44 8 3 22 3 30 0 8 -4 15 -1 15 4 0 6 8 13 18 15 14&#10;4 14 5 -3 5 -11 0 -38 -6 -60 -13z"/>
    <path d="M1311 1206 c-13 -16 -7 -36 11 -36 6 0 17 -8 25 -17 12 -16 13 -14&#10;11 22 -3 43 -25 58 -47 31z"/>
    <path d="M1830 1205 c-38 -15 -38 -17 0 -19 14 -1 34 6 45 16 23 22 7 23 -45&#10;3z"/>
    <path d="M1400 1185 c-19 -7 -28 -14 -20 -14 8 0 29 6 45 14 39 17 21 18 -25&#10;0z"/>
    <path d="M1607 1193 c-10 -9 -9 -23 2 -23 5 0 11 7 15 15 5 15 -5 20 -17 8z"/>
    <path d="M2290 1178 c23 -22 25 -29 8 -46 -9 -9 -9 -12 -1 -12 7 0 15 5 18 11&#10;10 15 -14 66 -31 66 -10 0 -9 -5 6 -19z"/>
    <path d="M1833 1165 c-6 -11 -29 -18 -69 -22 -53 -6 -84 -20 -84 -38 0 -9 44&#10;6 51 17 4 6 9 5 14 -2 6 -9 9 -9 16 1 4 7 24 13 43 13 26 0 38 5 42 19 8 24&#10;-2 33 -13 12z"/>
    <path d="M2036 1163 c-34 -11 -45 -18 -35 -23 8 -5 16 -5 20 2 4 5 20 11 36&#10;12 16 2 38 8 48 14 20 11 20 11 0 11 -11 -1 -42 -8 -69 -16z"/>
    <path d="M1867 1150 c3 -11 7 -20 8 -20 1 0 5 9 8 20 3 12 0 20 -8 20 -8 0&#10;-11 -8 -8 -20z"/>
    <path d="M1639 1153 c-9 -2 -19 -17 -23 -34 -3 -18 -12 -29 -23 -30 -13 0 -12&#10;-3 6 -10 27 -11 41 1 41 35 0 10 8 25 18 32 17 13 11 16 -19 7z"/>
    <path d="M736 1124 c-3 -8 2 -32 12 -52 10 -20 26 -63 36 -94 10 -31 24 -59&#10;32 -62 16 -6 15 -22 -8 -134 -9 -43 -17 -56 -40 -68 -16 -8 -26 -18 -24 -23 3&#10;-4 -10 -24 -28 -44 -19 -21 -31 -37 -27 -37 3 0 -3 -7 -14 -16 -11 -8 -20 -18&#10;-20 -23 0 -12 -78 -121 -87 -121 -4 0 -8 -5 -8 -10 0 -6 -34 -60 -76 -121 -42&#10;-60 -77 -120 -78 -133 -2 -12 -6 -28 -9 -33 -4 -6 3 -10 15 -9 14 1 24 -6 28&#10;-19 3 -11 19 -44 35 -72 22 -39 36 -53 53 -53 28 0 28 11 -2 39 -30 29 -64&#10;106 -72 165 -6 41 -3 48 38 103 24 32 92 126 150 208 107 152 129 177 160 188&#10;13 5 15 2 11 -11 -6 -15 -5 -15 10 -3 18 14 24 47 7 36 -11 -7 -11 9 0 45 8&#10;25 8 25 11 -5 7 -82 6 -85 -15 -91 -12 -4 -22 -2 -24 5 -5 15 -22 4 -22 -16 0&#10;-9 6 -13 14 -10 8 3 16 1 18 -4 7 -20 38 4 55 42 10 21 24 39 32 39 11 0 11&#10;-3 1 -15 -11 -13 -9 -13 17 0 26 13 35 13 84 -4 30 -10 93 -22 141 -25 87 -7&#10;87 -7 105 20 12 20 14 29 6 31 -8 3 -4 14 12 31 13 14 27 38 29 52 3 14 13 68&#10;22 120 11 61 23 100 34 110 19 16 40 53 40 69 0 18 -30 13 -62 -10 -17 -12&#10;-44 -25 -62 -30 -29 -7 -29 -8 -9 -14 l22 -7 -20 -39 c-10 -21 -24 -39 -29&#10;-39 -6 0 -10 -9 -10 -21 0 -19 2 -18 24 8 13 15 30 42 39 59 9 17 23 34 30 37&#10;12 5 13 0 5 -26 -6 -18 -15 -40 -19 -49 -5 -10 -9 -28 -9 -41 0 -36 -23 -61&#10;-48 -53 -12 4 -22 15 -22 23 0 22 -6 14 -14 -21 -6 -24 -4 -28 10 -22 22 8 64&#10;-19 64 -42 0 -22 -19 -42 -40 -42 -11 0 -16 -10 -17 -34 -1 -19 -4 -39 -8 -45&#10;-7 -12 -45 -15 -45 -3 0 4 -29 8 -65 8 -36 1 -86 9 -111 19 -25 9 -54 15 -65&#10;12 -13 -4 -23 2 -31 16 l-11 21 -8 -22 c-13 -35 -30 -27 -17 8 8 24 6 39 -6&#10;70 -18 46 -21 80 -5 80 5 0 7 5 4 10 -4 6 -11 7 -17 4 -6 -4 -8 -2 -4 4 7 12&#10;-13 62 -26 62 -5 0 -7 4 -4 9 3 5 -1 14 -9 21 -8 7 -15 23 -15 37 0 13 -6 26&#10;-14 29 -8 3 -12 12 -10 19 3 7 1 16 -4 19 -6 3 -13 -1 -16 -10z m634 -22 c0&#10;-5 -7 -17 -15 -28 -15 -19 -20 -8 -9 20 6 17 24 22 24 8z"/>
    <path d="M2706 1132 c-2 -4 2 -15 9 -25 11 -16 13 -16 19 -1 10 25 -14 48 -28&#10;26z"/>
    <path d="M2193 1120 c-13 -5 -23 -7 -23 -3 0 3 -6 1 -12 -5 -7 -5 -44 -18 -83&#10;-27 -69 -16 -196 -52 -225 -63 -39 -14 -106 -30 -112 -25 -5 2 -8 -1 -8 -6 0&#10;-6 -13 -11 -29 -11 -17 0 -33 -5 -36 -11 -4 -6 -13 -8 -21 -5 -7 3 -16 0 -20&#10;-5 -3 -6 -15 -9 -25 -6 -11 3 -19 1 -19 -3 0 -5 -10 -10 -22 -13 -21 -3 -21&#10;-4 -4 -12 11 -5 38 -2 71 9 40 12 60 14 80 6 38 -15 66 -12 30 4 -21 8 -25 15&#10;-16 20 7 4 15 5 18 2 3 -3 11 -2 17 3 6 5 27 13 46 19 19 5 43 13 52 17 13 5&#10;15 2 11 -14 -8 -31 13 -26 39 9 20 28 91 61 103 48 3 -3 -2 -24 -10 -48 -18&#10;-52 -18 -55 -2 -43 22 18 67 25 67 10 0 -17 5 -18 113 -22 98 -3 117 9 30 20&#10;-101 11 -183 42 -183 67 0 14 40 5 178 -38 109 -34 125 -43 166 -99 8 -11 18&#10;-17 22 -13 3 4 -18 32 -47 62 -52 54 -57 56 -139 72 -93 18 -161 46 -125 51&#10;11 2 60 -5 110 -16 49 -11 91 -18 94 -16 5 5 -4 8 -84 31 l-60 17 30 13 c17 8&#10;41 11 53 8 16 -3 23 -1 20 7 -6 17 -19 19 -45 9z"/>
    <path d="M1855 1110 c-19 -8 -19 -9 2 -9 12 -1 25 4 28 9 7 12 -2 12 -30 0z"/>
    <path d="M1785 1090 c-16 -7 -17 -9 -3 -9 10 -1 18 -11 21 -28 4 -27 4 -27 6&#10;4 0 17 7 34 14 36 8 4 7 5 -3 6 -8 0 -24 -4 -35 -9z"/>
    <path d="M914 1046 c20 -20 41 -36 46 -36 6 0 10 -12 10 -28 0 -16 8 -32 20&#10;-40 11 -7 20 -18 20 -26 0 -8 20 -19 47 -26 26 -6 53 -16 59 -21 24 -19 43 1&#10;37 38 -5 28 -2 39 12 49 18 13 18 14 -2 14 -18 0 -22 -7 -25 -37 -4 -49 -34&#10;-55 -32 -7 2 29 -2 33 -40 45 -22 7 -47 21 -54 31 -7 10 -18 18 -24 18 -6 0&#10;-21 11 -34 25 -12 13 -34 27 -49 31 -26 7 -26 6 9 -30z m116 -102 c0 -8 -4&#10;-14 -10 -14 -5 0 -10 9 -10 21 0 11 5 17 10 14 6 -3 10 -13 10 -21z m60 -20&#10;c0 -11 -5 -14 -16 -10 -9 3 -18 6 -20 6 -3 0 -2 5 1 10 10 16 35 12 35 -6z"/>
    <path d="M2607 1060 c-3 -11 -1 -23 4 -26 5 -3 9 6 9 20 0 31 -6 34 -13 6z"/>
    <path d="M2733 1065 c-17 -19 -16 -25 2 -25 8 0 15 2 15 4 0 2 3 11 6 20 8 20&#10;-7 20 -23 1z"/>
    <path d="M1675 1060 c-16 -7 -17 -9 -3 -9 10 -1 18 -11 20 -28 3 -25 4 -23 9&#10;10 5 40 5 40 -26 27z"/>
    <path d="M1629 1043 c-8 -10 -9 -14 -2 -10 7 5 13 -2 16 -20 3 -23 4 -21 6 10&#10;1 42 -1 44 -20 20z"/>
    <path d="M1587 1033 c-2 -5 -1 -21 3 -38 l6 -30 5 38 c4 33 -3 50 -14 30z"/>
    <path d="M2440 1013 c0 -5 7 -18 15 -29 13 -18 14 -18 8 4 -5 22 -23 41 -23&#10;25z"/>
    <path d="M1664 905 c-16 -25 -16 -29 -3 -39 9 -6 23 -24 32 -41 10 -19 16 -24&#10;17 -13 0 9 -5 20 -11 23 -6 4 -9 24 -8 46 4 50 -5 57 -27 24z"/>
    <path d="M1900 909 c-30 -10 -63 -28 -72 -39 -26 -31 -48 -121 -48 -192 0 -51&#10;6 -72 30 -115 31 -53 111 -118 127 -102 13 13 82 -22 89 -46 4 -11 12 -23 18&#10;-27 8 -5 7 -8 -2 -8 -16 0 -71 28 -93 47 -15 12 -17 11 -21 -16 -4 -27 0 -31&#10;45 -52 57 -27 94 -67 77 -83 -8 -8 -17 -3 -32 17 -19 26 -85 67 -108 67 -19 0&#10;-10 -27 13 -37 33 -15 125 -101 132 -124 4 -10 11 -17 16 -13 5 3 7 14 4 23&#10;-3 10 -7 74 -10 142 -2 69 -7 143 -11 165 -4 21 -6 44 -6 49 2 40 2 184 0 199&#10;-4 25 16 31 28 8 8 -18 14 -18 94 -6 47 7 115 13 151 14 l66 0 1 -55 c0 -30&#10;-4 -57 -8 -60 -4 -3 -6 -13 -3 -24 4 -15 -3 -19 -34 -24 -21 -4 -47 -8 -58&#10;-11 -11 -2 -29 -5 -40 -5 -15 -1 -17 -3 -6 -10 7 -5 23 -6 35 -4 21 5 21 5 1&#10;-10 -24 -20 -51 -22 -54 -4 -1 6 -5 47 -8 90 -4 65 -7 76 -17 62 -7 -10 -32&#10;-19 -58 -22 l-46 -5 -4 -54 c-1 -30 -2 -54 0 -54 1 0 21 9 43 20 45 23 59 20&#10;59 -15 0 -13 4 -35 9 -48 9 -24 12 -25 53 -15 24 5 47 13 53 19 5 5 19 9 32 9&#10;13 0 23 5 23 10 0 6 7 10 17 10 15 0 15 -1 0 -18 -19 -21 -22 -43 -7 -58 14&#10;-14 26 -109 12 -100 -6 3 -13 2 -17 -4 -3 -5 0 -10 7 -10 7 0 18 -12 25 -26&#10;11 -24 9 -27 -33 -52 -34 -21 -43 -31 -39 -47 3 -11 2 -14 -1 -7 -3 6 -18 12&#10;-32 12 -21 0 -24 -3 -12 -10 29 -18 1 -20 -59 -4 -34 10 -66 25 -71 34 -8 14&#10;-5 16 15 12 14 -2 25 -8 25 -13 0 -12 27 -12 35 0 4 8 -46 37 -117 69 -5 2 -8&#10;-15 -8 -37 0 -23 4 -41 9 -41 6 0 38 -22 73 -48 55 -43 127 -75 112 -51 -3 5&#10;-16 9 -29 9 -13 0 -27 5 -31 12 -5 7 -2 9 8 6 8 -4 21 -2 29 4 11 8 10 9 -3 4&#10;-11 -3 -18 0 -18 8 0 9 7 12 20 9 11 -3 20 -9 20 -14 0 -25 34 -3 66 42 43 59&#10;62 54 44 -11 -7 -28 -16 -40 -24 -37 -13 5 -81 -51 -73 -59 7 -7 67 18 67 27&#10;0 5 8 9 19 9 35 0 39 20 34 168 -2 79 0 141 4 139 5 -3 10 4 10 15 2 19 1 19&#10;-17 3 -20 -18 -20 -16 -17 106 2 68 -1 136 -6 152 -6 18 -5 32 2 41 9 11 9 16&#10;0 22 -7 4 -9 3 -6 -3 18 -28 -26 -37 -192 -39 -122 -1 -188 -7 -246 -20 l-80&#10;-19 63 -3 c47 -2 62 -7 62 -18 0 -8 5 -12 10 -9 6 4 8 11 5 16 -4 5 1 9 9 9&#10;21 0 21 -36 1 -48 -13 -7 -14 -14 -6 -35 16 -40 5 -58 -25 -45 -18 9 -28 8&#10;-36 0 -8 -8 -5 -9 10 -5 17 4 23 -1 28 -21 7 -27 0 -56 -13 -56 -5 0 -14 14&#10;-21 30 -13 27 -38 33 -29 7 4 -13 -30 -50 -56 -60 -14 -5 -16 -2 -13 18 3 14&#10;1 25 -4 25 -28 0 -74 150 -51 164 6 4 9 12 5 17 -11 18 20 101 41 110 11 4 14&#10;8 7 8 -26 2 0 21 43 32 25 6 50 17 56 25 14 17 8 16 -61 -7z m113 -396 c9 -2&#10;17 -13 17 -24 0 -17 -4 -19 -22 -13 -13 5 -38 7 -56 6 -44 -3 -55 5 -41 29 10&#10;19 37 20 102 2z"/>
    <path d="M2135 907 c-38 -4 -88 -12 -110 -17 -31 -7 -22 -8 45 -5 79 4 140 12&#10;148 20 9 9 -20 10 -83 2z"/>
    <path d="M2236 908 c7 -10 53 -9 79 2 15 7 6 9 -32 8 -29 -1 -50 -5 -47 -10z"/>
    <path d="M2035 859 c-22 -3 13 -6 80 -6 125 -1 137 4 25 9 -36 2 -83 0 -105&#10;-3z"/>
    <path d="M2298 863 c18 -2 45 -2 60 0 15 2 0 4 -33 4 -33 0 -45 -2 -27 -4z"/>
    <path d="M1613 838 c-6 -7 -16 -23 -22 -35 -10 -19 -9 -22 4 -17 8 4 15 14 15&#10;24 0 10 6 20 13 23 6 2 9 7 6 11 -3 4 -11 1 -16 -6z"/>
    <path d="M2901 835 c-12 -98 -11 -137 1 -133 8 3 12 17 10 38 -2 17 1 30 6 27&#10;5 -4 9 0 9 8 0 8 -4 15 -8 15 -4 0 -10 15 -12 33 -2 17 -5 23 -6 12z"/>
    <path d="M2440 765 c13 -14 26 -23 28 -20 7 7 -29 45 -41 45 -6 0 0 -11 13&#10;-25z"/>
    <path d="M1005 768 c25 -15 219 -23 210 -8 -3 5 -27 9 -53 8 -26 -1 -76 2&#10;-112 6 -54 6 -62 5 -45 -6z"/>
    <path d="M2434 689 c-3 -6 0 -15 7 -20 18 -11 21 -11 39 1 13 9 13 11 0 20&#10;-20 13 -37 13 -46 -1z"/>
    <path d="M2884 676 c-3 -8 -1 -23 5 -33 9 -15 10 -13 11 15 0 34 -7 42 -16 18z"/>
    <path d="M887 662 c-9 -10 -19 -32 -23 -49 -5 -27 -2 -32 31 -51 20 -12 42&#10;-22 49 -22 40 0 86 111 55 131 -25 16 -95 10 -112 -9z m43 -2 c0 -5 7 -7 15&#10;-4 22 9 20 -38 -3 -66 -15 -18 -21 -20 -45 -11 -30 12 -33 22 -16 54 17 32 49&#10;50 49 27z"/>
    <path d="M896 638 c-21 -29 -20 -35 4 -48 11 -6 20 -7 19 -3 -4 23 2 43 11 38&#10;15 -9 12 11 -4 24 -11 10 -17 7 -30 -11z"/>
    <path d="M3001 661 c0 -8 -9 -20 -18 -27 -10 -7 -15 -16 -11 -19 11 -12 40 23&#10;35 43 -3 10 -5 11 -6 3z"/>
    <path d="M2225 650 c-7 -12 12 -12 40 0 18 8 17 9 -7 9 -15 1 -30 -3 -33 -9z"/>
    <path d="M2463 638 c-17 -8 -21 -18 -20 -54 1 -40 3 -43 22 -38 11 4 27 10 35&#10;15 13 7 13 9 0 10 -8 1 -24 1 -35 0 -20 -2 -20 -1 -1 13 11 9 29 13 42 10 38&#10;-10 48 5 23 32 -25 26 -33 28 -66 12z"/>
    <path d="M2113 560 c-30 -12 -33 -60 -4 -60 21 0 91 -37 103 -55 22 -30 4 -32&#10;-54 -5 -35 15 -65 26 -67 25 -2 -2 -1 -19 3 -38 5 -28 14 -37 56 -57 28 -13&#10;58 -32 67 -43 10 -10 30 -25 45 -33 24 -13 27 -12 22 1 -4 8 -15 15 -26 15&#10;-11 0 -18 5 -15 13 2 6 10 11 16 9 7 -1 10 2 6 8 -3 6 -10 8 -15 5 -5 -3 -24&#10;9 -42 26 -30 29 -31 31 -10 26 15 -3 25 0 29 9 5 14 25 21 21 7 -2 -5 1 -9 5&#10;-10 4 -1 18 -8 31 -17 27 -17 67 -11 59 10 -3 8 -14 14 -26 14 -43 0 -87 23&#10;-87 46 0 12 -20 41 -46 68 -26 25 -47 46 -48 45 0 0 -11 -4 -23 -9z"/>
    <path d="M2547 540 c-21 -36 -9 -39 21 -7 25 27 28 37 9 37 -7 0 -21 -13 -30&#10;-30z"/>
    <path d="M1086 543 c-4 -9 -2 -21 4 -27 7 -7 10 -7 10 1 0 6 3 18 6 27 3 9 2&#10;16 -4 16 -5 0 -13 -8 -16 -17z"/>
    <path d="M2600 554 c0 -11 28 -33 34 -27 3 4 6 1 6 -5 0 -13 -62 -52 -84 -52&#10;-9 0 -16 5 -16 10 0 6 -13 4 -30 -5 -16 -8 -36 -15 -44 -15 -9 0 -13 -6 -10&#10;-15 5 -13 10 -13 41 0 45 19 41 -4 -5 -24 -18 -8 -32 -18 -32 -23 0 -5 8 -5&#10;18 1 9 5 61 29 115 55 92 43 119 66 79 66 -10 0 -28 9 -40 20 -21 20 -32 25&#10;-32 14z"/>
    <path d="M976 521 c-4 -5 5 -22 19 -39 l24 -29 -39 -41 c-38 -39 -52 -72 -30&#10;-72 6 0 10 6 10 14 0 8 6 21 13 28 46 46 107 121 103 125 -3 3 -12 0 -21 -7&#10;-8 -7 -15 -8 -15 -3 0 5 -11 15 -25 21 -31 14 -32 14 -39 3z"/>
    <path d="M3110 474 c-39 -28 -55 -53 -22 -35 11 6 29 11 39 11 19 0 46 33 36&#10;44 -9 9 -14 7 -53 -20z"/>
    <path d="M1099 424 c-38 -37 -66 -71 -63 -76 3 -5 0 -7 -7 -6 -7 2 -40 -35&#10;-74 -82 -45 -62 -76 -93 -116 -117 -30 -18 -74 -54 -98 -80 -42 -46 -47 -48&#10;-110 -54 l-66 -6 72 -1 72 -2 46 44 c38 38 95 76 113 76 2 0 -9 -12 -25 -28&#10;-17 -15 -38 -43 -48 -62 l-17 -35 48 45 c26 25 59 57 73 73 24 25 60 39 46 17&#10;-3 -5 25 6 62 24 37 18 78 37 90 40 12 4 32 22 45 39 l22 32 -28 -25 c-27 -25&#10;-178 -102 -185 -95 -4 5 45 47 98 85 76 54 141 89 178 95 21 4 80 15 132 26&#10;109 23 166 26 201 12 31 -13 175 -120 214 -159 15 -16 48 -69 73 -118 32 -64&#10;47 -85 53 -75 6 8 5 18 0 23 -6 6 -10 20 -10 32 0 12 -7 24 -15 28 -8 3 -12&#10;12 -9 21 3 8 1 15 -6 15 -6 0 -9 4 -6 8 3 5 -3 15 -12 24 -38 34 -67 78 -40&#10;62 7 -4 8 -3 4 4 -4 6 -13 9 -20 6 -8 -3 -17 -1 -21 5 -3 6 1 11 10 11 24 0&#10;75 -29 75 -42 0 -9 -3 -9 -12 0 -7 7 -16 12 -21 12 -5 0 13 -24 40 -54 27 -29&#10;62 -79 79 -110 16 -31 35 -56 42 -56 17 0 16 7 -16 64 -16 28 -32 63 -36 78&#10;-3 15 -17 35 -31 44 -24 16 -34 44 -16 44 4 0 25 -11 45 -25 20 -14 40 -25 43&#10;-25 4 0 20 -12 37 -27 l29 -28 -19 33 c-15 27 -37 42 -102 70 -77 33 -97 53&#10;-60 60 8 2 33 -7 54 -20 21 -12 44 -23 52 -24 26 -4 60 -45 77 -92 35 -98 66&#10;-153 83 -150 9 2 18 12 19 23 3 20 3 20 -6 0 -8 -19 -8 -19 -20 2 -10 19 -8&#10;26 9 43 l20 20 36 -32 c20 -18 43 -37 51 -41 31 -18 -5 28 -56 71 -50 42 -51&#10;43 -51 18 0 -40 -29 -20 -36 25 -4 21 -10 36 -15 34 -4 -3 -22 15 -40 39 -17&#10;25 -58 63 -91 86 -65 44 -80 50 -53 20 10 -11 13 -20 7 -20 -6 0 -14 4 -17 10&#10;-10 16 -44 11 -64 -9 -14 -14 -22 -16 -30 -8 -6 6 -16 12 -23 14 -76 16 -109&#10;28 -145 54 -23 16 -75 45 -115 64 -60 29 -88 36 -151 39 -54 2 -83 9 -96 20&#10;-9 9 -32 16 -50 16 -27 0 -45 -12 -102 -66z m69 -4 c-7 -11 -19 -20 -27 -20&#10;-9 0 -6 7 9 20 13 11 25 20 27 20 2 0 -2 -9 -9 -20z m87 11 c-3 -5 0 -13 6&#10;-17 8 -5 9 -3 4 5 -6 10 8 11 66 6 118 -11 117 -25 -5 -54 l-78 -19 4 23 c4&#10;20 1 19 -29 -12 -19 -18 -38 -31 -44 -28 -5 4 -24 -5 -42 -19 -19 -15 -36 -26&#10;-39 -26 -3 0 -33 -19 -67 -41 -34 -23 -64 -39 -67 -36 -6 6 25 57 35 57 3 0&#10;25 18 49 39 23 21 62 48 86 60 24 11 56 32 72 46 26 24 62 35 49 16z m681&#10;-163 l19 -21 -27 18 c-29 18 -34 25 -20 25 5 0 17 -10 28 -22z"/>
    <path d="M766 448 c-9 -12 -16 -37 -16 -54 0 -26 6 -36 32 -48 17 -9 41 -16&#10;53 -16 30 0 58 45 59 95 l1 40 -57 3 c-49 3 -58 0 -72 -20z m49 2 c3 -5 13 -6&#10;22 -3 11 4 14 3 9 -5 -4 -7 -2 -12 6 -12 8 0 9 -3 3 -8 -6 -4 -16 -20 -23 -35&#10;-8 -20 -17 -27 -28 -23 -9 3 -22 6 -30 6 -8 0 -14 9 -13 23 1 16 2 18 6 5 5&#10;-21 14 -23 31 -6 14 14 16 58 3 58 -15 0 -26 -23 -13 -28 14 -4 16 -22 3 -22&#10;-15 0 -22 32 -10 46 13 16 25 18 34 4z"/>
    <path d="M1596 449 c-11 -11 -15 -19 -9 -19 12 0 38 28 32 34 -2 2 -13 -5 -23&#10;-15z"/>
    <path d="M1670 455 c19 -7 55 -13 80 -13 l45 0 -60 14 c-78 17 -111 17 -65 -1z"/>
    <path d="M2690 457 c0 -18 -36 -45 -111 -86 -20 -11 -49 -35 -64 -53 -16 -18&#10;-32 -32 -37 -31 -4 2 -8 0 -9 -5 -7 -68 2 -83 20 -32 5 17 18 33 28 37 10 3&#10;28 17 41 31 20 23 43 40 82 59 42 20 89 93 59 93 -5 0 -9 -6 -9 -13z"/>
    <path d="M1792 408 c-19 -9 -37 -20 -40 -24 -4 -4 -1 -4 7 1 11 6 13 3 9 -13&#10;-5 -18 -3 -20 11 -13 23 13 54 48 50 58 -2 4 -19 1 -37 -9z"/>
    <path d="M3121 421 c-45 -6 -58 -12 -82 -41 -16 -19 -29 -45 -29 -57 0 -12 -7&#10;-29 -16 -38 -13 -13 -14 -19 -5 -28 15 -15 33 13 37 56 1 17 14 42 31 59 28&#10;27 34 29 121 31 50 1 88 5 84 8 -12 11 -85 16 -141 10z"/>
    <path d="M2503 387 c-24 -11 -43 -27 -43 -35 0 -12 5 -11 28 4 15 10 43 26 62&#10;36 51 25 6 21 -47 -5z"/>
    <path d="M2333 363 c-25 -5 -27 -11 -14 -32 5 -8 16 -11 26 -8 9 4 13 12 9 19&#10;-5 8 -2 9 9 5 11 -4 17 -1 17 8 0 15 -6 16 -47 8z"/>
    <path d="M2680 355 c-7 -8 -18 -15 -24 -15 -7 0 -45 -31 -86 -70 -41 -38 -80&#10;-69 -86 -70 -7 0 -14 -9 -17 -20 -3 -11 -12 -20 -21 -20 -9 0 -16 -7 -16 -15&#10;0 -8 5 -15 10 -15 6 0 10 -10 10 -22 0 -18 2 -20 9 -9 5 8 7 19 5 26 -4 11 98&#10;116 201 209 22 19 37 36 34 36 -4 0 -12 -7 -19 -15z"/>
    <path d="M2280 336 c0 -7 8 -20 18 -27 14 -11 15 -11 5 0 -6 7 -9 20 -6 27 3&#10;8 0 14 -6 14 -6 0 -11 -6 -11 -14z"/>
    <path d="M3480 331 c0 -6 9 -15 20 -21 11 -6 17 -16 14 -22 -4 -6 -3 -8 4 -4&#10;6 3 16 0 24 -7 7 -7 36 -30 63 -52 28 -22 66 -54 86 -71 33 -29 179 -110 179&#10;-99 0 3 -24 19 -52 35 -29 17 -62 36 -73 43 -17 10 -130 99 -232 182 -18 15&#10;-33 22 -33 16z"/>
    <path d="M1465 298 c11 -6 22 -14 25 -18 9 -14 48 -21 55 -11 3 7 0 8 -9 5 -9&#10;-3 -16 -2 -16 4 0 6 -14 15 -31 21 -40 14 -50 14 -24 -1z"/>
    <path d="M2795 298 c-25 -14 -21 -11 -133 -104 -51 -42 -104 -91 -118 -110&#10;-15 -19 -30 -34 -34 -34 -9 0 24 40 110 135 l55 60 -65 -60 c-74 -68 -175&#10;-185 -161 -185 5 0 13 5 16 10 4 6 10 8 14 6 4 -3 30 18 57 46 45 46 162 144&#10;229 193 56 40 77 70 30 43z"/>
    <path d="M3240 303 c-75 -13 -193 -50 -252 -80 -62 -30 -92 -51 -51 -36 13 5&#10;15 3 9 -12 -6 -17 -5 -18 11 -3 29 25 212 95 291 111 41 9 76 18 80 21 6 7&#10;-48 6 -88 -1z"/>
    <path d="M3400 293 c0 -5 11 -8 25 -8 14 0 25 3 25 8 0 4 -11 7 -25 7 -14 0&#10;-25 -3 -25 -7z"/>
    <path d="M660 282 c-16 -6 -40 -58 -40 -87 0 -16 7 -28 18 -31 9 -3 25 -10 34&#10;-15 10 -5 27 -9 38 -9 23 0 55 44 44 61 -4 8 -3 9 4 5 8 -5 12 5 12 32 l0 40&#10;-50 4 c-28 1 -55 1 -60 0z m60 -44 c0 -13 -8 -33 -18 -46 -15 -20 -22 -22 -45&#10;-13 -15 6 -27 16 -27 23 0 9 3 9 12 0 19 -19 26 -15 44 23 19 40 34 46 34 13z&#10;m-50 -15 c0 -7 -4 -13 -9 -13 -5 0 -11 6 -14 13 -3 8 1 14 9 14 8 0 14 -6 14&#10;-14z"/>
    <path d="M1560 256 c0 -9 4 -15 9 -13 5 1 18 -9 30 -22 12 -13 21 -21 21 -17&#10;0 4 12 -6 28 -22 15 -16 37 -35 50 -41 12 -7 20 -16 17 -20 -5 -8 22 -36 34&#10;-36 3 0 5 -3 4 -8 -2 -4 2 -7 8 -7 5 0 7 -5 3 -12 -4 -6 -3 -8 4 -4 6 3 27 -8&#10;46 -25 20 -17 36 -27 36 -21 0 12 -190 191 -247 233 -33 23 -43 27 -43 15z"/>
    <path d="M2106 213 c7 -52 16 -68 48 -85 18 -9 19 -9 10 3 -13 17 -35 79 -28&#10;79 11 0 49 -24 73 -46 16 -15 37 -24 56 -23 l30 1 -30 10 c-16 6 -43 23 -60&#10;38 -16 15 -47 37 -67 49 l-38 23 6 -49z"/>
    <path d="M3168 214 c-3 -3 -20 -7 -36 -9 -28 -4 -92 -31 -92 -39 0 -2 17 2 38&#10;10 20 7 46 13 57 14 25 1 77 29 54 30 -9 0 -18 -3 -21 -6z"/>
    <path d="M2519 168 c-22 -24 -39 -50 -39 -57 0 -16 -1 -17 54 52 46 59 37 62&#10;-15 5z"/>
    <path d="M1270 179 c8 -5 32 -19 52 -29 21 -11 63 -41 95 -66 48 -38 52 -41&#10;25 -12 -29 31 -162 118 -180 118 -4 0 0 -5 8 -11z"/>
    <path d="M2874 165 c-18 -13 -18 -14 4 -8 12 3 25 9 28 14 8 14 -10 11 -32 -6z"/>
    <path d="M3013 125 c-81 -39 -133 -74 -133 -91 0 -5 100 47 210 110 71 41 24&#10;29 -77 -19z"/>
    <path d="M2736 105 c-60 -24 -114 -49 -120 -55 -6 -7 7 -4 29 5 22 10 72 29&#10;110 43 39 13 77 30 85 38 19 18 22 19 -104 -31z"/>
    <path d="M2913 125 c-12 -14 -19 -25 -17 -25 14 0 42 21 48 35 8 23 -6 18 -31&#10;-10z"/>
    <path d="M2370 123 c-14 -9 -27 -20 -30 -23 -3 -4 -12 -10 -20 -13 -13 -5 -13&#10;-6 0 -6 8 -1 31 13 50 29 38 33 38 40 0 13z"/>
    <path d="M3205 130 c-16 -4 -43 -13 -60 -20 -16 -7 -37 -12 -45 -11 -10 2 -12&#10;-1 -5 -7 7 -7 38 -1 95 18 78 26 87 39 15 20z"/>
    <path d="M2210 98 c0 -5 8 -8 18 -8 10 0 24 -6 32 -12 12 -11 12 -10 2 3 -6 9&#10;-10 18 -8 20 2 2 -7 4 -20 4 -13 0 -24 -3 -24 -7z"/>
    <path d="M3175 55 c-55 -30 -91 -55 -80 -55 11 0 60 25 110 55 114 70 99 70&#10;-30 0z"/>
    <path d="M1986 52 c16 -28 33 -52 37 -52 10 0 -33 77 -51 93 -8 6 -2 -12 14&#10;-41z"/>
    <path d="M2442 64 c-7 -8 -12 -20 -9 -27 2 -7 9 -2 16 11 15 28 11 36 -7 16z"/>
    <path d="M3030 38 c-26 -24 -32 -32 -15 -20 28 18 73 63 64 62 -2 -1 -24 -19&#10;-49 -42z"/>
    <path d="M1509 43 c13 -18 30 -34 37 -37 22 -8 5 17 -29 44 l-31 25 23 -32z"/>
    <path d="M2345 60 c-16 -4 -28 -9 -25 -10 22 -8 41 -6 51 6 6 8 10 13 8 13 -2&#10;-1 -17 -5 -34 -9z"/>
    <path d="M2985 40 c-10 -11 -22 -17 -26 -14 -5 3 -19 -2 -31 -10 -12 -9 -17&#10;-16 -11 -16 7 0 15 5 18 11 4 6 13 8 20 5 7 -2 23 6 36 20 12 13 20 24 17 24&#10;-3 0 -13 -9 -23 -20z"/>
  </g>
</svg>