<?xml version="1.0" standalone="no"?>
<!DOCTYPE svg PUBLIC "-//W3C//DTD SVG 20010904//EN"
 "http://www.w3.org/TR/2001/REC-SVG-20010904/DTD/svg10.dtd">
<svg version="1.0" xmlns="http://www.w3.org/2000/svg"
 width="900.000000pt" height="900.000000pt" viewBox="0 0 900.000000 900.000000"
 preserveAspectRatio="xMidYMid meet">
<metadata>
Created by potrace 1.10, written by Peter Selinger 2001-2011
</metadata>
<g transform="translate(0.000000,900.000000) scale(0.100000,-0.100000)"
fill="#000000" stroke="none">
<path d="M4900 8913 c0 -49 -3 -225 -6 -393 -2 -168 -5 -392 -6 -497 -1 -157
-3 -193 -15 -193 -14 0 -93 70 -93 83 0 4 -7 19 -16 33 -16 23 -18 24 -35 8
-13 -11 -17 -26 -14 -53 2 -20 4 -39 4 -42 1 -4 10 -9 20 -12 11 -2 21 -15 23
-28 2 -14 11 -25 23 -27 46 -9 39 -43 -12 -63 -28 -10 -30 -29 -4 -29 10 0 21
-7 25 -15 3 -8 11 -15 19 -15 18 0 77 -59 77 -76 0 -8 -7 -14 -15 -14 -8 0
-15 -4 -15 -8 0 -11 69 -77 74 -71 2 2 6 340 8 752 l3 747 -22 0 c-22 0 -23
-3 -23 -87z"/>
<path d="M4981 8763 c-6 -134 -12 -548 -13 -945 l-1 -706 -23 -5 c-30 -5 -45
31 -44 109 0 32 0 70 0 84 0 14 2 53 5 88 5 61 4 62 -20 62 -14 0 -29 8 -34
19 -13 23 -79 27 -88 6 -5 -15 26 -75 39 -75 4 0 8 -7 8 -16 0 -12 -7 -14 -32
-9 -37 8 -68 31 -68 52 0 7 -6 13 -14 13 -8 0 -16 7 -19 14 -8 19 -79 38 -112
30 -14 -4 -33 -17 -42 -30 -9 -14 -25 -24 -39 -24 -31 0 -33 -35 -3 -50 26
-15 58 -5 41 12 -19 19 -14 38 8 38 30 0 44 -44 24 -74 -9 -15 -12 -34 -9 -49
9 -34 -2 -52 -21 -36 -7 6 -21 9 -30 5 -22 -8 -14 -50 11 -54 11 -2 32 -17 48
-34 23 -25 32 -28 58 -23 25 6 31 4 36 -14 7 -27 39 -27 53 -1 7 13 21 20 43
21 l32 1 -27 10 c-16 5 -28 17 -29 26 0 13 -3 11 -11 -6 -9 -18 -18 -22 -41
-20 -43 4 -43 21 -1 41 43 21 40 42 -7 43 -47 1 -79 14 -79 30 0 8 5 14 10 14
6 0 10 8 10 19 0 32 25 44 75 36 39 -5 45 -9 40 -26 -7 -21 5 -25 22 -8 8 8
17 0 32 -32 12 -23 21 -48 21 -55 0 -6 7 -14 15 -18 21 -8 19 -29 -6 -44 -17
-11 -20 -19 -14 -45 3 -18 6 -44 6 -59 0 -14 6 -32 14 -38 8 -7 15 -21 15 -31
0 -10 5 -21 10 -24 15 -9 12 -35 -4 -35 -25 0 -66 66 -66 105 0 33 -3 37 -20
32 -19 -5 -78 17 -90 33 -10 13 -49 18 -58 6 -11 -13 13 -76 28 -76 6 0 9 -23
7 -55 -3 -49 5 -73 15 -44 4 12 37 -2 65 -28 18 -16 16 -28 -1 -13 -8 6 -24
10 -36 8 -18 -2 -13 -9 30 -41 28 -21 55 -35 61 -32 5 4 20 -5 32 -20 21 -27
98 -158 116 -202 6 -11 15 -24 20 -28 6 -3 11 -17 11 -29 0 -13 6 -29 14 -35
19 -16 34 -242 25 -381 -2 -27 5 -48 32 -102 15 -29 10 -46 -18 -73 -23 -22
-34 -25 -66 -20 -32 5 -39 2 -46 -17 -7 -16 -5 -26 5 -34 16 -13 19 -41 3 -46
-7 -2 -7 -27 1 -83 19 -129 18 -156 -7 -207 -13 -27 -23 -56 -23 -67 0 -10
-22 -41 -50 -69 -27 -28 -50 -56 -50 -62 0 -22 -41 -90 -55 -90 -8 0 -36 -22
-62 -48 -63 -63 -88 -78 -143 -86 -25 -4 -56 -14 -69 -22 -16 -11 -37 -14 -70
-11 -134 16 -181 32 -181 62 0 16 -64 65 -85 65 -8 0 -20 11 -27 25 -6 14 -23
27 -40 30 -29 7 -158 124 -158 144 0 7 -22 41 -49 77 -28 36 -51 68 -53 72 -2
4 -34 35 -73 69 -38 34 -79 76 -90 93 -11 16 -23 30 -27 30 -4 0 -32 25 -63
55 -31 30 -65 55 -76 55 -28 0 -23 -17 7 -24 17 -5 24 -12 20 -21 -6 -17 19
-45 40 -45 8 0 14 -6 14 -14 0 -8 7 -16 15 -20 8 -3 15 -17 15 -30 0 -20 -6
-27 -27 -31 -16 -4 -36 -10 -45 -16 -10 -5 -26 -9 -36 -9 -10 0 -38 -6 -63
-14 -24 -7 -73 -22 -109 -32 -36 -10 -98 -33 -138 -51 -50 -22 -96 -35 -145
-40 -66 -6 -195 -49 -221 -74 -6 -5 -20 -9 -32 -9 -11 0 -37 -11 -57 -24 -19
-13 -44 -27 -56 -31 -28 -9 -157 -117 -193 -163 -16 -20 -36 -41 -44 -45 -8
-4 -14 -14 -14 -21 0 -7 -13 -29 -28 -49 -16 -20 -37 -57 -47 -83 -10 -26 -39
-81 -65 -123 -74 -118 -96 -151 -142 -202 -24 -25 -60 -136 -59 -179 0 -19 3
-57 6 -85 5 -39 2 -61 -15 -97 -11 -26 -25 -50 -30 -53 -6 -4 -7 -17 -4 -30 3
-12 1 -26 -5 -29 -6 -4 -11 -16 -11 -26 0 -24 -123 -148 -164 -166 -64 -27
-186 -169 -186 -216 0 -11 -11 -42 -25 -70 -14 -27 -25 -65 -25 -83 0 -19 -4
-36 -9 -40 -6 -3 -13 -27 -16 -53 -7 -46 -28 -121 -45 -153 -5 -9 -12 -38 -15
-65 -4 -27 -11 -56 -15 -64 -5 -9 -18 -88 -29 -176 -15 -120 -26 -171 -44
-204 -22 -42 -34 -77 -58 -174 -19 -75 -20 -245 -2 -339 l17 -89 -33 -66 c-19
-37 -39 -71 -45 -77 -14 -13 -66 -121 -66 -138 0 -7 -13 -28 -30 -47 -16 -19
-29 -44 -30 -55 0 -12 -27 -75 -59 -142 -33 -66 -64 -136 -69 -154 -5 -19 -25
-74 -44 -124 -33 -86 -54 -151 -64 -205 -7 -33 -24 -99 -35 -130 -20 -58 -76
-409 -83 -522 -7 -97 -38 -159 -121 -236 -30 -28 -55 -55 -55 -60 0 -5 -11
-15 -25 -22 -14 -7 -33 -27 -44 -44 -10 -17 -37 -62 -61 -100 -57 -94 -72
-138 -59 -176 9 -24 17 -30 41 -30 24 0 28 3 20 13 -12 15 -6 54 13 77 6 8 28
42 48 76 20 33 46 71 59 85 13 14 40 46 61 72 20 25 50 59 65 74 38 40 105
122 116 142 5 9 15 20 23 24 9 6 13 33 13 95 0 48 5 105 11 126 6 22 15 72 19
110 10 81 26 165 43 216 6 19 14 53 18 75 20 101 76 298 107 375 5 14 18 45
27 70 36 91 129 297 155 340 5 8 25 49 45 90 20 41 40 82 45 90 4 8 16 33 26
55 11 22 25 44 31 48 18 11 16 72 -2 87 -8 7 -15 22 -15 34 0 12 -7 31 -15 42
-20 27 -21 250 -1 296 8 18 32 74 52 125 35 84 42 95 90 129 42 28 62 36 98
36 25 0 46 4 46 9 0 5 -4 9 -9 9 -6 0 -18 13 -28 30 -19 33 -52 40 -73 15 -7
-8 -18 -15 -25 -15 -7 0 -16 -8 -20 -17 -6 -17 -7 -17 -19 0 -7 9 -18 17 -25
17 -14 0 -15 86 -1 95 5 3 10 19 10 34 0 15 10 57 21 92 12 35 21 80 20 100
-1 26 8 53 30 90 23 39 32 67 33 101 1 26 7 53 14 60 6 6 12 20 12 29 0 15 27
80 49 119 5 8 17 33 27 55 35 75 133 185 246 278 35 28 58 60 93 132 55 111
74 128 101 87 33 -49 51 -86 59 -122 7 -32 75 -110 97 -110 4 0 8 -3 8 -8 0
-17 122 -132 140 -132 11 0 20 -6 20 -13 0 -27 93 -87 135 -87 32 0 9 -43 -62
-119 -18 -19 -33 -40 -33 -47 0 -16 -59 -116 -74 -126 -6 -4 -21 -5 -33 -2
-38 10 -45 -5 -18 -40 21 -27 24 -38 16 -59 -5 -14 -18 -31 -28 -38 -10 -8
-31 -40 -47 -72 -15 -32 -41 -67 -57 -79 -16 -12 -29 -30 -29 -39 0 -10 -8
-24 -17 -31 -20 -15 -72 -88 -95 -133 -43 -86 -91 -167 -116 -197 -13 -16 -17
-16 -43 -2 -16 8 -29 19 -29 25 0 5 -10 20 -23 33 -118 123 -113 116 -94 131
32 23 13 55 -32 55 -20 0 -42 5 -49 12 -7 7 -12 10 -13 8 -5 -30 -12 -116 -10
-137 1 -6 20 -22 44 -36 23 -14 71 -53 106 -86 48 -46 72 -61 93 -61 16 0 39
-6 51 -14 25 -15 125 -41 133 -34 2 3 0 17 -6 32 -12 34 -2 107 21 154 11 20
19 42 19 49 0 19 49 113 58 113 20 0 73 57 92 99 12 25 26 53 31 61 24 40 49
101 49 119 0 12 5 21 10 21 6 0 10 5 10 11 0 6 19 36 43 67 24 31 54 75 67 97
35 60 111 157 143 184 34 29 89 58 126 66 l26 6 3 -73 c1 -40 2 -124 2 -186
-1 -65 5 -146 14 -190 11 -54 13 -98 8 -147 l-7 -70 -70 2 c-38 2 -93 10 -122
19 -72 23 -242 16 -295 -12 -21 -10 -38 -22 -38 -25 0 -4 55 -10 123 -14 67
-4 142 -13 167 -21 25 -8 68 -20 95 -28 28 -8 70 -20 95 -28 67 -19 209 -16
243 6 35 23 34 33 -4 41 -18 4 -35 16 -41 31 -13 28 -28 22 -28 -11 0 -42 -18
-37 -39 10 -19 43 -19 50 -6 100 13 52 11 88 -7 112 -10 12 -13 308 -3 323 4
6 -3 23 -14 38 -11 16 -20 42 -19 58 0 35 -39 185 -53 199 -5 5 -9 22 -9 39 0
33 -33 108 -56 126 -7 7 -14 18 -14 24 0 17 -70 77 -81 71 -12 -8 -75 51 -101
94 -12 20 -28 41 -35 46 -11 8 -11 16 -1 43 10 26 10 37 0 52 -6 11 -12 34
-12 52 0 18 -7 46 -15 62 -8 15 -15 39 -15 51 0 26 -34 73 -42 59 -3 -5 1 -36
8 -69 8 -33 17 -77 20 -99 5 -26 13 -40 25 -43 23 -6 25 -36 4 -53 -19 -16
-19 -44 0 -60 8 -7 15 -19 15 -27 0 -11 109 -165 130 -183 3 -3 29 -35 58 -72
48 -60 53 -72 54 -119 2 -73 -19 -85 -137 -80 -29 2 -64 13 -95 32 -8 5 -29
16 -45 23 -54 25 -205 183 -205 214 0 5 -22 32 -50 61 -27 29 -50 61 -50 71 0
10 -5 20 -11 22 -21 7 -53 216 -43 282 7 45 12 53 77 115 26 25 47 49 47 54 0
4 13 26 30 49 16 22 30 46 30 53 0 24 88 183 134 244 60 77 134 152 178 179
66 41 131 72 150 72 10 0 37 12 61 27 103 66 176 81 225 47 22 -15 25 -14 65
21 23 20 47 39 53 43 41 27 81 42 115 42 22 0 52 6 67 14 15 7 52 16 82 20 32
4 67 17 85 30 37 27 93 56 111 56 8 0 25 -22 39 -50 14 -27 29 -50 33 -50 4 0
27 -29 49 -63 23 -35 57 -74 76 -87 35 -24 55 -63 68 -135 17 -93 34 -137 100
-274 62 -129 77 -152 139 -212 75 -72 107 -90 121 -68 5 8 4 15 -1 17 -6 2
-10 10 -10 17 0 7 -13 24 -29 37 -47 40 -231 305 -231 333 0 7 -7 18 -15 25
-8 7 -15 26 -15 42 0 16 -6 31 -15 34 -19 8 -21 74 -2 74 8 0 19 -11 25 -25
14 -30 100 -125 114 -125 5 0 32 -17 61 -39 91 -67 187 -107 218 -91 10 6 30
10 46 10 15 0 48 9 72 20 23 11 47 18 52 15 4 -3 26 3 48 15 22 11 51 20 64
20 28 0 157 117 157 143 0 9 14 36 30 60 17 25 30 47 30 50 0 3 16 29 35 58
19 30 35 60 35 69 0 8 11 35 25 59 14 23 25 56 25 71 0 16 6 35 13 42 16 16
47 116 47 150 0 14 7 31 15 38 8 7 15 23 15 35 0 13 7 51 15 84 14 54 14 65 0
112 -8 29 -15 72 -15 95 0 24 -5 55 -11 71 -17 42 -28 126 -18 144 5 9 25 19
46 23 45 7 103 55 103 85 0 27 -21 27 -45 1 -29 -32 -55 -26 -55 12 0 17 -7
39 -16 49 -12 13 -15 28 -10 54 9 48 33 56 61 21 20 -25 24 -27 44 -15 11 8
21 18 22 24 3 30 -4 98 -17 158 -8 38 -14 85 -14 105 -1 40 -35 109 -63 126
-13 8 -24 7 -44 -6 -36 -22 -42 -59 -11 -73 36 -16 80 -87 76 -121 l-4 -29
-12 28 c-14 32 -32 34 -57 7 -16 -17 -16 -24 -6 -47 11 -23 10 -29 -4 -39 -13
-10 -14 -17 -6 -33 28 -51 -2 -117 -39 -88 -18 14 -26 113 -10 132 16 19 -9
105 -31 105 -9 0 -19 10 -23 23 -9 34 -7 97 3 97 5 0 13 10 16 23 4 12 19 47
35 77 l28 55 4 851 c3 468 7 855 11 861 8 13 -4 153 -13 153 -3 0 -12 -107
-19 -237z m54 -2224 c10 -16 -4 -59 -19 -59 -15 0 -26 21 -26 51 0 21 34 27
45 8z m-35 -660 c0 -10 -7 -19 -15 -19 -15 0 -21 31 -9 43 11 10 24 -3 24 -24z"/>
<path d="M6924 8758 c4 -134 8 -261 10 -283 2 -22 6 -233 10 -470 4 -236 11
-470 16 -520 5 -49 12 -349 15 -665 4 -316 10 -604 15 -640 5 -36 12 -285 15
-555 4 -269 11 -519 16 -555 5 -36 9 -177 9 -315 1 -237 4 -336 30 -824 12
-222 11 -226 -41 -217 -44 8 -58 -12 -65 -92 l-7 -74 45 7 c55 8 62 -2 48 -75
-6 -33 -6 -59 1 -77 13 -35 5 -53 -23 -53 -13 0 -30 -4 -38 -10 -13 -8 -13
-10 0 -14 35 -11 100 -11 104 1 3 6 23 17 45 23 52 14 53 30 2 30 -50 0 -59
14 -33 49 l20 27 -22 10 c-13 5 -23 22 -28 44 -15 78 -17 75 31 78 25 2 54 10
65 18 11 8 35 14 53 14 17 0 35 5 38 10 3 6 22 10 41 10 19 0 51 7 71 15 19 8
53 15 74 15 33 0 40 -4 45 -25 3 -14 3 -40 0 -58 -4 -21 -1 -40 9 -54 12 -18
13 -26 3 -48 -10 -23 -10 -28 5 -36 12 -7 17 -24 17 -67 0 -31 1 -68 1 -82 0
-14 7 -32 14 -40 7 -8 17 -28 20 -43 8 -32 19 -26 29 15 4 18 1 32 -9 42 -16
16 -13 70 6 108 6 11 4 18 -6 22 -20 7 -19 45 2 68 16 18 16 19 -5 25 -26 6
-29 38 -6 64 14 16 13 18 -13 31 -25 12 -28 18 -25 58 4 42 10 53 37 64 6 2 6
8 -1 15 -7 8 -30 9 -80 2 -38 -5 -139 -11 -224 -13 l-155 -3 -6 270 c-15 675
-29 1167 -38 1360 -6 116 -13 406 -16 645 -4 239 -10 485 -15 545 -6 61 -10
243 -10 405 -1 162 -5 428 -11 590 -5 162 -16 529 -24 815 -9 286 -17 532 -19
548 -2 15 -4 45 -5 67 -1 34 -4 40 -23 40 l-21 0 7 -242z"/>
<path d="M8810 8941 c0 -33 5 -72 11 -88 6 -15 15 -95 19 -178 11 -213 37
-583 45 -630 3 -22 10 -110 15 -195 5 -85 14 -182 19 -215 5 -33 10 -116 10
-185 1 -69 6 -141 12 -160 6 -19 14 -136 18 -260 4 -124 10 -231 15 -238 21
-34 26 18 26 279 0 185 -3 278 -10 274 -20 -13 -30 50 -31 198 0 84 -4 175
-10 202 -5 28 -11 124 -14 215 -4 91 -10 185 -16 210 -5 25 -14 128 -19 230
-6 102 -14 221 -19 265 -5 44 -10 116 -10 161 -1 45 -4 102 -7 128 -6 40 -10
46 -30 46 -23 0 -24 -4 -24 -59z"/>
<path d="M3697 8573 c-13 -12 -7 -23 13 -23 11 0 20 7 20 15 0 15 -21 21 -33
8z"/>
<path d="M3777 8546 c-11 -28 5 -53 49 -76 24 -14 44 -28 44 -33 0 -5 14 -6
31 -2 38 8 62 -11 89 -71 14 -33 29 -48 68 -68 63 -32 105 -37 110 -13 2 11
-3 17 -15 17 -10 0 -24 4 -32 9 -11 7 -10 11 7 20 17 9 25 7 49 -15 17 -15 27
-34 25 -46 -2 -13 3 -21 16 -25 11 -2 26 -16 33 -30 14 -27 71 -55 93 -47 9 3
17 -3 21 -15 9 -29 35 -27 35 2 0 33 10 40 32 20 20 -18 34 -11 40 22 2 14 11
20 31 20 15 -1 27 2 27 5 0 16 -64 80 -81 80 -10 0 -19 5 -19 10 0 6 -9 19
-20 30 -11 11 -20 33 -20 48 0 32 -16 49 -73 81 -45 25 -57 26 -57 6 0 -8 4
-15 9 -15 5 0 13 -10 16 -22 4 -13 35 -50 69 -83 80 -78 100 -109 86 -135 -17
-32 -43 -23 -90 31 -25 29 -54 61 -65 73 -35 39 -82 66 -113 66 -17 0 -33 4
-37 9 -7 12 26 31 54 31 12 0 21 6 21 14 0 20 -18 30 -33 18 -7 -6 -28 -12
-47 -14 -30 -3 -35 -6 -32 -26 3 -20 0 -22 -21 -17 -14 4 -28 2 -31 -4 -4 -6
-14 -11 -23 -11 -11 0 -14 7 -11 24 4 18 -1 27 -20 35 -19 9 -23 16 -18 36 7
27 -5 33 -23 11 -17 -20 -49 -26 -61 -11 -8 9 -7 17 5 28 21 22 19 40 -4 32
-11 -3 -22 -1 -26 5 -10 15 -82 12 -88 -4z"/>
<path d="M3575 8499 c-10 -15 1 -23 20 -15 9 3 13 10 10 16 -8 13 -22 13 -30
-1z"/>
<path d="M3602 8420 c23 -32 33 -36 43 -19 4 6 -2 13 -14 16 -12 3 -21 12 -21
19 0 8 -7 14 -15 14 -13 0 -11 -6 7 -30z"/>
<path d="M3736 8442 c-3 -6 -1 -14 5 -17 15 -10 25 3 12 16 -7 7 -13 7 -17 1z"/>
<path d="M3510 8418 c1 -50 14 -88 31 -88 15 0 19 7 19 34 0 19 -3 41 -6 50
-7 19 -44 22 -44 4z"/>
<path d="M3250 8395 c0 -9 -11 -20 -25 -25 -30 -11 -31 -18 -7 -36 24 -19 32
-17 32 6 0 13 10 24 26 30 22 9 24 13 14 25 -16 19 -40 19 -40 0z"/>
<path d="M3445 8397 c-4 -10 -5 -21 -1 -24 10 -10 18 4 13 24 -4 17 -4 17 -12
0z"/>
<path d="M3740 8384 c0 -15 37 -53 53 -54 15 0 6 27 -16 48 -28 26 -37 28 -37
6z"/>
<path d="M4467 8393 c-12 -11 -8 -23 8 -23 8 0 15 7 15 15 0 16 -12 20 -23 8z"/>
<path d="M3625 8351 c-3 -6 2 -14 11 -19 10 -6 14 -19 12 -43 -3 -30 -7 -34
-42 -43 -37 -8 -41 -7 -64 20 -14 16 -33 28 -43 26 -9 -2 -32 6 -51 18 -45 27
-84 27 -92 -2 -11 -43 -7 -96 9 -102 8 -3 15 -13 15 -21 0 -27 51 -88 64 -75
5 5 17 10 26 10 9 0 29 13 45 30 21 22 32 27 41 19 10 -8 20 -6 38 8 14 10 26
21 26 26 0 17 41 5 56 -18 9 -14 25 -25 36 -25 11 0 32 -9 46 -21 l26 -20 8
22 c5 12 16 28 26 35 15 11 15 16 4 35 -12 18 -11 24 2 38 15 14 18 14 26 1
13 -21 12 -64 -1 -77 -9 -9 -8 -21 5 -48 20 -41 35 -50 71 -41 22 6 25 12 25
47 0 32 4 42 20 46 11 3 20 9 20 14 0 14 -43 39 -67 39 -16 0 -23 6 -23 20 0
16 7 20 34 20 19 0 36 -5 38 -11 2 -6 13 -10 23 -8 17 4 14 8 -15 25 -46 28
-112 36 -139 18 -15 -11 -26 -12 -39 -5 -10 5 -24 6 -31 2 -17 -11 -65 13 -90
45 -19 25 -45 31 -56 15z m-147 -102 c4 -32 -25 -61 -39 -38 -10 17 -12 53 -2
63 14 14 38 0 41 -25z"/>
<path d="M4527 8331 c6 -23 40 -57 49 -48 7 7 -34 67 -46 67 -4 0 -6 -9 -3
-19z"/>
<path d="M3159 8283 c-5 -16 -12 -33 -14 -40 -6 -18 14 -26 30 -13 17 14 20
80 5 80 -6 0 -15 -12 -21 -27z"/>
<path d="M3257 8263 c-3 -5 0 -19 5 -33 7 -20 11 -22 18 -10 14 23 12 50 -4
50 -8 0 -17 -3 -19 -7z"/>
<path d="M4594 8248 c3 -13 6 -34 6 -47 0 -19 3 -21 15 -11 8 6 19 9 25 5 21
-13 10 44 -12 59 -31 22 -41 20 -34 -6z"/>
<path d="M3182 8169 c-18 -31 -27 -39 -43 -34 -12 4 -21 1 -25 -9 -3 -9 -12
-16 -19 -16 -7 0 -11 -8 -9 -17 2 -10 -2 -29 -10 -43 -9 -14 -20 -35 -25 -48
-9 -18 -16 -21 -37 -16 -24 6 -26 4 -19 -15 5 -17 2 -24 -13 -28 -32 -8 -91
-173 -62 -173 15 0 12 -28 -4 -37 -16 -9 -46 -66 -46 -87 0 -8 -13 -19 -29
-24 -23 -8 -30 -18 -36 -50 -3 -22 -1 -58 5 -81 7 -28 8 -47 0 -60 -18 -35
-12 -102 12 -128 18 -19 22 -37 24 -96 1 -39 7 -88 13 -107 6 -19 11 -51 11
-71 0 -26 8 -43 30 -64 17 -16 30 -33 30 -37 0 -24 65 -136 105 -180 25 -28
45 -58 45 -67 0 -10 13 -31 30 -47 16 -16 30 -33 30 -37 0 -5 11 -23 24 -40
14 -18 30 -43 36 -57 6 -14 17 -36 25 -49 17 -31 10 -44 -21 -38 -32 6 -35
-12 -9 -50 16 -22 26 -29 36 -22 19 12 25 11 43 -7 9 -8 16 -30 16 -47 0 -18
7 -41 15 -51 8 -11 15 -27 15 -37 0 -9 7 -22 15 -29 9 -8 12 -22 8 -42 -7 -33
7 -48 45 -48 22 0 30 14 13 24 -5 4 -12 25 -16 49 -4 23 -11 47 -15 52 -4 6
-12 30 -18 55 -6 25 -20 77 -32 115 -36 121 -50 175 -50 193 0 9 -19 55 -41
102 -28 59 -38 89 -32 99 12 19 -7 61 -28 61 -9 0 -22 -7 -29 -15 -7 -8 -21
-15 -30 -15 -23 0 -99 85 -106 119 -3 14 -12 44 -20 66 -8 23 -14 48 -14 57 0
9 -4 18 -10 20 -18 6 -50 112 -50 168 -1 32 -7 63 -15 74 -10 13 -15 44 -15
91 0 64 3 74 30 105 30 36 38 64 19 75 -6 4 -7 19 -4 36 4 18 3 29 -4 29 -6 0
-11 7 -11 15 0 8 5 15 10 15 6 0 10 -5 10 -11 0 -6 10 -9 23 -7 19 3 22 9 22
51 0 78 50 86 60 10 5 -40 6 -41 13 -15 8 27 27 30 27 4 1 -9 4 -23 9 -30 4
-7 3 -19 -4 -27 -6 -8 -9 -19 -5 -25 11 -18 25 -11 25 14 0 13 7 29 15 36 11
9 13 16 5 24 -5 5 -10 21 -10 33 0 25 -44 74 -64 72 -31 -4 -39 1 -26 16 9 11
8 20 -9 44 -26 36 -27 51 -3 51 22 -1 52 -23 52 -40 0 -9 6 -8 19 4 12 11 21
14 26 7 11 -18 25 -12 25 10 0 28 18 59 35 59 7 0 30 16 50 35 l37 34 -27 36
c-15 19 -31 35 -36 35 -19 0 -8 19 13 22 16 2 24 12 30 38 15 70 -14 82 -50
19z m-2 -114 c10 -12 9 -16 -4 -21 -24 -9 -47 3 -40 21 8 19 28 19 44 0z
m-305 -553 c0 -18 -20 -15 -23 4 -3 10 1 15 10 12 7 -3 13 -10 13 -16z"/>
<path d="M4487 8173 c-10 -9 -9 -43 1 -43 10 0 42 33 42 43 0 9 -35 9 -43 0z"/>
<path d="M3593 8110 c-28 -12 -30 -24 -3 -15 21 7 23 3 35 -48 7 -34 26 -31
36 5 4 17 2 34 -8 47 -15 23 -26 25 -60 11z"/>
<path d="M3513 8071 c0 -25 -6 -47 -15 -54 -31 -25 -47 -59 -38 -77 12 -22 0
-32 -57 -50 -41 -13 -43 -15 -43 -52 0 -21 4 -38 9 -38 5 0 13 -9 16 -21 6
-19 12 -20 62 -14 36 4 59 3 68 -5 29 -24 45 -5 38 47 -3 26 -12 58 -20 73 -7
14 -13 40 -13 57 0 28 5 35 36 48 28 12 34 19 30 35 -3 11 -9 29 -12 40 -3 11
-14 20 -24 20 -11 0 -23 7 -28 16 -7 12 -9 5 -9 -25z"/>
<path d="M4600 8100 c-13 -9 -13 -11 0 -20 22 -14 60 -12 60 4 0 23 -35 32
-60 16z"/>
<path d="M4152 8065 c-7 -14 -20 -25 -31 -25 -12 0 -23 -11 -30 -30 -7 -22
-18 -32 -41 -36 -16 -4 -30 -10 -30 -14 0 -14 69 -50 75 -39 9 14 25 11 25 -6
0 -9 11 -20 24 -24 28 -11 90 -87 81 -101 -3 -5 -14 -10 -24 -10 -38 0 -64
-55 -42 -89 11 -17 61 -7 61 12 0 27 26 67 43 67 9 0 17 5 17 12 0 6 8 20 17
31 17 18 17 19 -1 32 -21 16 -15 45 8 45 8 0 21 -9 29 -20 11 -16 21 -19 39
-15 20 5 26 2 31 -14 7 -29 37 -16 37 15 0 33 24 40 65 21 29 -14 50 -14 93
-1 9 3 7 13 -8 41 -11 21 -20 45 -20 55 0 20 -29 38 -60 38 -11 0 -23 7 -26
15 -4 8 -17 15 -29 15 -13 0 -27 5 -30 10 -10 16 -45 12 -45 -5 0 -8 6 -15 14
-15 19 0 24 -9 32 -58 5 -34 4 -42 -9 -42 -9 0 -19 9 -22 20 -9 29 -42 25 -48
-6 -3 -16 0 -28 9 -31 8 -3 14 -9 14 -14 0 -14 -23 -10 -48 9 -20 15 -22 22
-13 45 6 15 16 27 22 27 7 0 17 8 24 17 11 14 9 20 -10 35 -13 10 -29 18 -37
18 -14 0 -48 -73 -48 -103 0 -21 -28 -23 -37 -1 -3 8 -17 20 -30 25 -20 7 -22
12 -13 29 13 25 9 82 -6 87 -6 2 -16 -8 -22 -22z"/>
<path d="M4485 8080 c-7 -12 39 -24 60 -16 8 3 15 10 15 16 0 13 -67 13 -75 0z"/>
<path d="M3287 8054 c-3 -3 -1 -14 5 -24 9 -14 9 -22 -1 -34 -11 -13 -11 -16
2 -16 9 0 19 5 22 10 12 20 35 10 35 -14 0 -33 16 -42 29 -17 17 31 14 38 -33
71 -48 32 -50 33 -59 24z"/>
<path d="M3420 8009 c0 -11 5 -17 10 -14 6 3 10 13 10 21 0 8 -4 14 -10 14 -5
0 -10 -9 -10 -21z"/>
<path d="M3800 8015 c0 -8 7 -15 15 -15 8 0 15 -7 15 -16 0 -9 8 -29 17 -45
18 -31 11 -53 -10 -27 -12 16 -57 34 -57 24 0 -11 35 -46 46 -46 6 0 14 -9 17
-20 8 -31 38 -37 55 -12 16 25 52 30 52 7 0 -8 -11 -22 -25 -31 -17 -11 -25
-26 -25 -43 0 -24 4 -28 29 -28 17 0 45 -12 66 -27 20 -16 38 -26 41 -23 9 8
-8 36 -25 42 -10 3 -23 16 -29 30 -9 20 -9 23 3 19 10 -4 18 3 25 20 12 32 18
33 30 1 6 -16 14 -23 25 -19 22 9 18 49 -8 80 -18 21 -32 26 -64 26 -28 -1
-43 4 -47 15 -4 9 -13 13 -22 9 -11 -4 -29 7 -55 35 -22 23 -39 46 -39 51 0 4
-7 8 -15 8 -8 0 -15 -7 -15 -15z"/>
<path d="M4620 8003 c0 -10 12 -24 27 -30 40 -19 44 -16 25 17 -19 33 -52 41
-52 13z"/>
<path d="M3930 7981 c0 -6 5 -11 10 -11 6 0 10 -7 10 -15 0 -8 5 -15 11 -15
18 0 5 45 -13 48 -10 2 -18 -1 -18 -7z"/>
<path d="M3560 7964 c0 -15 47 -84 58 -84 21 0 14 51 -8 57 -11 3 -20 12 -20
19 0 8 -7 14 -15 14 -8 0 -15 -2 -15 -6z"/>
<path d="M3685 7929 c-5 -7 -1 -16 9 -21 20 -11 21 -28 1 -28 -8 0 -15 5 -15
10 0 15 -26 12 -40 -5 -11 -13 -7 -21 24 -49 43 -41 51 -97 16 -116 -11 -6
-20 -19 -20 -30 0 -12 -13 -26 -32 -36 -55 -29 -86 -84 -38 -69 10 3 21 1 25
-5 3 -5 15 -10 27 -10 23 0 98 -72 98 -95 0 -7 -7 -18 -16 -23 -14 -8 -14 -11
-3 -18 32 -20 84 -44 95 -44 7 0 15 -7 18 -16 9 -23 26 -7 26 25 0 17 -11 38
-30 56 -42 40 -68 95 -67 140 1 25 -5 42 -16 50 -9 7 -17 21 -17 33 0 56 37
73 42 20 3 -36 28 -52 28 -18 0 19 4 21 30 15 22 -5 30 -3 30 8 0 19 -32 47
-54 47 -19 0 -36 38 -36 83 -1 31 -15 54 -57 90 -15 14 -23 15 -28 6z"/>
<path d="M3280 7884 c0 -17 -6 -28 -19 -31 -18 -4 -18 -7 -3 -44 16 -41 42
-53 42 -20 0 11 5 23 10 26 8 5 8 61 1 93 -1 1 -8 2 -16 2 -9 0 -15 -10 -15
-26z"/>
<path d="M4456 7842 c-3 -6 -1 -14 5 -17 15 -10 25 3 12 16 -7 7 -13 7 -17 1z"/>
<path d="M3140 7806 c0 -8 5 -18 10 -21 6 -3 10 3 10 14 0 12 -4 21 -10 21 -5
0 -10 -6 -10 -14z"/>
<path d="M4560 7806 c0 -8 7 -17 17 -20 13 -5 11 -11 -15 -35 -18 -15 -32 -33
-32 -38 0 -6 -21 -13 -47 -15 -38 -3 -47 0 -51 14 -3 12 -14 18 -32 18 -16 0
-30 7 -34 16 -8 22 -26 8 -26 -21 0 -13 -5 -27 -10 -30 -15 -9 -2 -25 20 -25
10 0 21 7 24 16 10 26 18 10 22 -45 4 -52 -9 -71 -50 -71 -18 0 -21 31 -5 47
7 7 -2 17 -33 32 -53 25 -58 26 -58 6 0 -8 6 -15 14 -15 8 0 17 -14 21 -31 4
-17 13 -33 20 -35 9 -4 6 -12 -11 -31 -22 -24 -23 -26 -6 -49 9 -13 21 -24 26
-24 5 0 20 -12 34 -27 19 -21 22 -30 13 -42 -6 -9 -14 -23 -17 -31 -3 -8 -10
-23 -15 -32 -15 -28 -11 -40 14 -36 16 2 23 11 25 31 2 18 13 32 33 42 25 13
28 19 19 35 -6 10 -15 22 -20 25 -6 4 -8 15 -5 26 4 12 2 19 -7 19 -8 0 -19 5
-25 11 -17 17 4 69 28 69 19 0 43 32 32 43 -3 3 -2 22 1 42 7 35 7 35 46 29
27 -5 45 -2 57 7 15 13 16 11 9 -23 -6 -36 -5 -38 18 -38 30 0 41 15 38 52 -2
22 1 26 15 21 10 -3 25 -12 35 -20 12 -11 18 -11 24 -2 4 7 1 17 -8 23 -8 6
-18 26 -21 44 -9 47 -77 107 -77 68z m23 -91 c1 -5 -6 -11 -15 -13 -11 -2 -18
3 -18 13 0 17 30 18 33 0z"/>
<path d="M4111 7796 c-7 -9 -8 -21 -2 -37 l9 -24 11 28 c6 15 15 27 21 27 5 0
10 5 10 10 0 15 -36 12 -49 -4z"/>
<path d="M4465 7781 c-11 -5 -26 -6 -32 -4 -15 6 -16 -6 -3 -27 9 -13 11 -13
20 0 5 8 21 15 34 15 14 0 26 5 26 10 1 13 -20 16 -45 6z"/>
<path d="M3193 7769 c-17 -17 -16 -54 1 -69 12 -9 13 -17 3 -37 -10 -23 -8
-28 28 -59 44 -37 58 -38 63 -5 3 16 -2 24 -17 28 -12 3 -21 13 -21 24 0 11
-7 22 -16 26 -8 3 -13 12 -9 21 3 8 1 20 -4 26 -5 6 -11 21 -13 34 -2 19 -5
21 -15 11z"/>
<path d="M3327 7730 c6 -24 19 -34 33 -25 5 3 2 14 -8 25 -21 26 -32 25 -25 0z"/>
<path d="M4096 7665 c18 -28 34 -33 34 -10 0 8 -9 19 -19 25 -30 15 -33 12
-15 -15z"/>
<path d="M3860 7641 c0 -16 -6 -31 -15 -35 -29 -11 -16 -28 15 -21 21 5 39 2
55 -9 13 -9 33 -16 44 -16 36 0 72 -22 65 -39 -16 -39 -16 -61 2 -68 12 -4 22
0 32 15 17 26 47 28 90 6 38 -18 48 -32 34 -46 -13 -13 19 -45 50 -50 15 -2
24 -11 26 -25 3 -22 -22 -52 -94 -113 -17 -14 -34 -41 -40 -60 -9 -34 -12 -35
-58 -35 -30 -1 -53 -6 -60 -15 -12 -16 -72 -40 -98 -40 -9 0 -29 -11 -45 -24
-17 -15 -51 -28 -88 -34 -33 -6 -78 -15 -100 -21 -22 -5 -75 -18 -118 -27 -84
-19 -97 -31 -97 -90 0 -34 34 -29 38 6 2 14 8 30 13 36 14 17 115 17 142 -1
13 -8 33 -13 43 -9 47 15 121 53 133 68 21 25 50 20 62 -11 l11 -28 21 28 c68
87 90 107 118 107 15 0 31 5 34 10 4 6 13 7 23 1 25 -13 59 4 76 38 15 29 18
29 71 24 46 -5 55 -3 55 10 0 9 -5 19 -11 23 -8 5 -6 10 5 16 9 5 16 13 16 18
0 15 -37 12 -44 -2 -5 -10 -7 -10 -12 0 -7 14 -34 16 -34 2 0 -5 -7 -10 -15
-10 -8 0 -15 7 -15 15 0 8 7 15 15 15 8 0 15 5 15 11 0 6 9 9 20 6 17 -4 21 1
26 34 4 25 13 40 25 44 30 10 23 45 -11 58 -19 7 -31 20 -35 37 -8 36 -38 68
-66 72 -22 3 -24 7 -24 61 1 63 -8 73 -24 27 -11 -33 -26 -37 -58 -15 -12 8
-28 12 -37 9 -10 -4 -19 3 -27 19 -6 14 -19 29 -28 32 -16 6 -41 -19 -41 -42
0 -11 -6 -10 -30 2 -25 13 -29 19 -21 34 11 20 5 31 -16 31 -8 0 -13 -11 -13
-29z"/>
<path d="M4810 7601 c0 -10 30 -24 37 -17 3 3 2 9 -2 15 -8 13 -35 15 -35 2z"/>
<path d="M3479 7573 c-21 -3 -28 -11 -32 -36 -7 -47 7 -53 31 -13 12 20 26 36
32 36 5 0 10 5 10 10 0 6 -3 9 -7 9 -5 -1 -20 -4 -34 -6z"/>
<path d="M4474 7545 c-4 -10 -1 -21 7 -26 20 -12 34 -5 34 17 0 24 -33 31 -41
9z"/>
<path d="M4230 7536 c0 -9 7 -16 16 -16 17 0 14 22 -4 28 -7 2 -12 -3 -12 -12z"/>
<path d="M4670 7542 c0 -19 12 -42 22 -42 14 0 5 43 -9 48 -7 2 -13 -1 -13 -6z"/>
<path d="M3868 7504 c-19 -18 59 -104 95 -104 16 0 13 8 -25 52 -45 53 -59 63
-70 52z"/>
<path d="M3432 7428 c5 -32 28 -35 28 -4 0 17 -5 26 -16 26 -10 0 -14 -7 -12
-22z"/>
<path d="M3600 7443 c1 -14 27 -43 39 -43 15 0 14 23 -1 38 -13 13 -38 16 -38
5z"/>
<path d="M3753 7353 c-4 -10 -14 -23 -22 -30 -14 -11 -11 -12 15 -13 39 0 56
17 43 42 -12 23 -28 23 -36 1z"/>
<path d="M3540 7352 c0 -5 7 -16 16 -23 14 -12 16 -11 13 5 -4 20 -29 35 -29
18z"/>
<path d="M4452 7338 c2 -15 11 -24 26 -26 31 -5 29 22 -4 37 -23 10 -25 9 -22
-11z"/>
<path d="M3585 7290 c-4 -7 -16 -10 -26 -7 -12 3 -19 0 -19 -10 0 -10 10 -13
38 -11 24 2 37 8 37 17 0 18 -21 26 -30 11z"/>
<path d="M3676 7275 c-9 -14 -13 -25 -8 -25 13 0 52 30 52 41 0 18 -28 8 -44
-16z"/>
<path d="M4737 7273 c-13 -12 -7 -33 8 -33 8 0 15 9 15 20 0 20 -11 26 -23 13z"/>
<path d="M1768 6962 c-54 -3 -61 -6 -113 -56 l-55 -52 -5 -134 c-3 -73 -8
-137 -11 -142 -3 -4 -12 -117 -20 -251 -8 -133 -19 -300 -24 -372 -14 -192
-15 -366 -2 -398 22 -52 60 -56 627 -59 355 -1 434 1 453 13 12 7 22 20 22 27
0 7 8 24 17 38 13 21 18 64 24 208 5 99 11 197 14 216 7 44 17 228 14 255 -4
40 -1 202 5 295 4 52 9 149 12 215 l4 120 -45 27 c-24 15 -59 30 -77 33 -51 9
-730 23 -840 17z m918 -89 c-12 -52 -25 -258 -27 -443 -1 -102 -6 -200 -11
-217 -5 -18 -12 -169 -16 -335 l-7 -303 -523 0 -524 0 6 30 c20 110 38 304 57
585 5 85 14 216 19 290 5 74 10 197 10 274 l0 138 38 -6 c20 -3 231 -9 467
-12 374 -6 435 -4 465 9 49 22 53 21 46 -10z"/>
<path d="M2596 6798 c-14 -72 -26 -238 -31 -423 -4 -115 -10 -246 -15 -290 -5
-44 -10 -163 -11 -265 -1 -151 1 -185 12 -185 11 0 15 30 21 135 3 74 11 207
17 295 6 88 11 214 11 280 0 66 4 156 9 200 16 133 18 267 4 272 -7 3 -14 -6
-17 -19z"/>
<path d="M1886 6731 c-20 -32 38 -63 79 -41 13 7 29 9 36 4 21 -12 112 -14
127 -2 10 9 15 9 21 0 5 -9 39 -12 113 -11 58 1 111 -1 117 -5 6 -4 25 -5 41
-1 23 5 30 12 30 30 0 20 -5 24 -32 23 -18 0 -46 3 -61 7 -18 5 -37 3 -52 -5
-14 -8 -36 -10 -57 -6 -55 12 -356 17 -362 7z"/>
<path d="M1765 6641 c-7 -12 12 -24 25 -16 11 7 4 25 -10 25 -5 0 -11 -4 -15
-9z"/>
<path d="M1815 6641 c-8 -14 12 -23 36 -16 17 6 19 9 8 16 -18 11 -36 11 -44
0z"/>
<path d="M1855 6580 l-90 -6 119 -2 c66 -1 117 0 115 2 -11 9 -62 11 -144 6z"/>
<path d="M2065 6580 l-50 -7 48 -3 c26 -2 54 -4 62 -4 18 -1 21 19 3 20 -7 1
-35 -2 -63 -6z"/>
<path d="M2211 6581 c-10 -7 -10 -10 -1 -16 6 -4 16 -3 22 3 13 13 -4 23 -21
13z"/>
<path d="M2395 6580 l-40 -7 33 -3 c56 -6 62 -5 63 5 1 13 -8 13 -56 5z"/>
<path d="M2330 6520 c-34 -7 -34 -7 13 -9 30 0 46 3 42 9 -3 6 -9 9 -13 9 -4
-1 -23 -5 -42 -9z"/>
<path d="M1776 6510 c7 -7 19 -7 35 -1 23 9 22 10 -10 10 -24 1 -32 -2 -25 -9z"/>
<path d="M2028 6513 c18 -2 45 -2 60 0 15 2 0 4 -33 4 -33 0 -45 -2 -27 -4z"/>
<path d="M1767 6463 c-4 -3 -7 -14 -7 -24 0 -18 25 -20 138 -10 15 1 16 31 1
31 -6 0 -19 -5 -30 -10 -14 -8 -25 -7 -41 5 -24 16 -50 20 -61 8z"/>
<path d="M2366 6463 c-11 -11 -6 -23 9 -23 8 0 15 4 15 9 0 13 -16 22 -24 14z"/>
<path d="M2103 6453 c-7 -2 -13 -12 -13 -20 0 -12 7 -14 27 -8 34 8 37 11 28
24 -6 11 -21 13 -42 4z"/>
<path d="M2176 6441 c-17 -18 -17 -19 1 -23 10 -3 29 0 43 5 16 5 38 4 62 -4
20 -6 44 -9 54 -5 16 6 16 8 -1 26 -26 28 -134 29 -159 1z"/>
<path d="M1964 6439 c-9 -15 13 -28 37 -22 23 6 25 19 3 27 -23 9 -32 7 -40
-5z"/>
<path d="M1770 6355 c-21 -25 -3 -30 98 -28 87 1 97 3 97 19 0 24 -29 29 -78
13 -30 -10 -43 -10 -58 -1 -25 16 -44 15 -59 -3z"/>
<path d="M2087 6359 c-26 -15 -20 -29 13 -29 32 0 38 11 17 28 -8 7 -18 7 -30
1z"/>
<path d="M2234 6354 c3 -9 6 -18 6 -20 0 -2 9 -4 20 -4 23 0 26 10 8 28 -18
18 -41 15 -34 -4z"/>
<path d="M2324 6349 c-9 -15 12 -33 30 -26 9 4 16 13 16 22 0 17 -35 21 -46 4z"/>
<path d="M1944 6225 c-8 -19 2 -45 16 -45 5 0 10 14 10 30 0 31 -16 41 -26 15z"/>
<path d="M2292 6228 c-15 -18 1 -41 24 -36 23 4 26 41 3 46 -9 1 -21 -3 -27
-10z"/>
<path d="M1930 6123 c0 -10 3 -28 6 -41 9 -30 44 -26 61 8 7 14 17 25 23 24 5
-1 17 -2 25 -2 8 -1 15 -8 15 -16 0 -14 37 -29 52 -20 4 3 8 14 8 26 0 17 -4
19 -27 14 -16 -5 -29 -3 -34 5 -4 7 -34 14 -68 16 -53 3 -61 1 -61 -14z"/>
<path d="M2288 6124 c-16 -8 -28 -19 -28 -24 0 -19 -21 -10 -30 13 -9 21 -9
21 -9 -4 -1 -40 20 -52 56 -34 17 9 37 22 44 31 19 23 -2 35 -33 18z"/>
<path d="M2152 6104 c1 -9 9 -19 16 -22 9 -3 13 2 10 14 -1 9 -9 19 -16 22 -9
3 -13 -2 -10 -14z"/>
<path d="M1880 5975 c0 -16 36 -20 58 -6 11 7 10 10 -3 15 -29 11 -55 7 -55
-9z"/>
<path d="M2310 5970 c20 -13 57 -13 65 0 4 6 -11 10 -37 10 -31 0 -39 -3 -28
-10z"/>
<path d="M1931 5889 c-9 -9 -24 -18 -34 -20 -37 -8 -15 -24 26 -20 76 8 351 6
395 -2 35 -7 42 -6 42 7 0 9 -8 16 -18 16 -9 0 -23 9 -29 19 -11 17 -25 19
-189 17 -151 -1 -180 -4 -193 -17z"/>
<path d="M1827 5774 c-8 -8 1 -24 14 -24 5 0 9 7 9 15 0 15 -12 20 -23 9z"/>
<path d="M1860 5740 c0 -12 45 -24 65 -16 29 11 15 26 -25 26 -22 0 -40 -4
-40 -10z"/>
<path d="M2272 5738 c5 -15 77 -18 81 -3 1 6 -18 11 -42 13 -32 2 -42 0 -39
-10z"/>
<path d="M1665 5650 c-4 -7 129 -9 392 -8 257 1 366 4 308 9 -141 11 -693 11
-700 -1z"/>
<path d="M3382 6904 c4 -35 -23 -45 -52 -19 -10 9 -29 15 -42 13 -18 -2 -24
-10 -26 -35 l-3 -33 74 0 c48 0 78 4 84 13 21 27 19 43 -9 66 l-30 24 4 -29z"/>
<path d="M4460 6896 c0 -8 5 -18 10 -21 6 -3 10 3 10 14 0 12 -4 21 -10 21 -5
0 -10 -6 -10 -14z"/>
<path d="M4436 6796 c3 -9 11 -16 16 -16 13 0 5 23 -10 28 -7 2 -10 -2 -6 -12z"/>
<path d="M4584 6685 c-4 -10 -20 -15 -44 -15 -49 0 -88 -20 -182 -96 -42 -35
-90 -70 -105 -78 -16 -8 -39 -26 -52 -40 -14 -14 -28 -26 -32 -26 -5 0 -25
-12 -46 -26 -31 -21 -46 -25 -80 -20 -23 3 -45 1 -48 -4 -11 -18 7 -89 25 -95
20 -7 65 9 86 30 8 8 32 19 52 25 21 5 51 23 67 38 66 64 184 135 285 170 103
37 124 42 133 33 15 -15 -37 -122 -80 -167 l-42 -44 -78 0 c-43 0 -94 5 -113
10 -31 9 -37 8 -52 -11 -24 -29 -23 -38 7 -49 28 -11 32 -25 10 -34 -23 -8
-18 -35 8 -45 29 -11 87 -2 94 15 3 8 19 14 36 14 87 0 213 84 281 187 15 23
38 44 52 47 20 5 24 12 24 46 0 44 -27 80 -59 80 -11 0 -26 6 -33 13 -20 19
-84 57 -97 57 -6 0 -14 -7 -17 -15z"/>
<path d="M7995 6629 c-4 -13 -2 -27 7 -36 13 -12 16 -12 27 1 15 18 5 56 -14
56 -8 0 -17 -10 -20 -21z"/>
<path d="M3490 6353 c-14 -7 -40 -13 -58 -13 -40 0 -49 -19 -27 -53 14 -22 25
-26 78 -29 34 -2 87 2 117 9 98 23 250 13 250 -15 0 -5 -29 -32 -65 -61 -58
-48 -69 -53 -103 -48 -48 6 -112 31 -122 46 -4 7 -22 11 -41 9 -50 -5 -43 -29
13 -48 26 -8 52 -24 58 -36 6 -11 27 -28 45 -38 34 -18 42 -19 185 -2 14 1 35
8 47 14 12 7 33 12 47 12 15 0 27 7 31 19 3 10 14 26 25 36 25 23 25 36 0 87
-19 39 -19 42 -2 55 16 13 15 14 -8 9 -17 -4 -32 2 -48 17 -23 22 -53 25 -352
41 -25 1 -56 -4 -70 -11z"/>
<path d="M4217 6293 c-15 -14 -7 -43 12 -43 23 0 34 23 18 39 -13 13 -21 14
-30 4z"/>
<path d="M4791 6257 c-7 -17 -18 -27 -31 -27 -31 0 -23 -27 12 -39 17 -6 40
-19 50 -28 17 -15 18 -15 18 3 0 10 2 28 5 39 3 12 -5 32 -20 50 l-24 29 -10
-27z"/>
<path d="M3286 6032 c-3 -6 -1 -14 5 -17 15 -10 25 3 12 16 -7 7 -13 7 -17 1z"/>
<path d="M4365 6009 c-4 -6 2 -20 13 -32 26 -29 52 -81 52 -105 0 -10 -25 -41
-55 -67 -30 -27 -57 -57 -60 -65 -13 -40 -129 -66 -155 -35 -14 16 -46 20 -54
6 -9 -14 36 -48 72 -55 19 -3 45 -15 59 -26 14 -11 30 -20 35 -20 4 0 42 28
83 61 61 51 74 66 69 84 -3 14 6 39 26 73 27 43 31 56 25 90 -11 66 -87 129
-110 91z"/>
<path d="M3312 5971 c4 -13 18 -16 19 -4 0 4 -5 9 -11 12 -7 2 -11 -2 -8 -8z"/>
<path d="M3981 5881 c-6 -11 -11 -28 -11 -39 0 -10 -12 -32 -26 -47 -21 -23
-24 -32 -16 -49 6 -12 13 -29 16 -38 8 -25 25 -22 36 6 5 14 19 26 32 28 26 3
28 26 12 107 -10 50 -27 62 -43 32z"/>
<path d="M4457 5743 c-13 -12 -7 -23 13 -23 11 0 20 7 20 15 0 15 -21 21 -33
8z"/>
<path d="M4575 5652 c-11 -10 -53 -29 -92 -41 -40 -13 -98 -39 -129 -57 -53
-32 -63 -34 -128 -32 -49 2 -82 -2 -106 -14 -19 -9 -50 -16 -69 -15 -22 0 -39
-6 -47 -18 -32 -44 0 -70 50 -41 37 22 128 39 213 40 35 1 67 6 74 14 7 6 19
12 27 12 8 0 37 14 64 30 26 17 57 30 67 30 10 0 37 14 59 30 23 17 50 30 61
30 26 0 44 23 29 38 -18 18 -51 15 -73 -6z"/>
<path d="M4090 5640 c-19 -14 -22 -22 -14 -30 17 -17 48 -8 52 14 6 29 -11 36
-38 16z"/>
<path d="M5115 5590 c-3 -5 34 -40 82 -79 102 -80 122 -102 134 -145 18 -62 4
-196 -20 -196 -10 0 -73 47 -82 61 -13 22 -18 -8 -5 -32 7 -13 25 -46 40 -73
14 -27 26 -64 26 -82 0 -48 23 -43 62 14 33 46 53 101 65 175 6 41 -19 143
-46 187 -27 43 -116 117 -185 154 -54 29 -62 31 -71 16z"/>
<path d="M3988 5579 c-26 -14 -24 -59 2 -59 13 0 20 7 20 19 0 11 7 27 16 35
14 15 14 16 -3 16 -10 0 -26 -5 -35 -11z"/>
<path d="M3566 5541 c-3 -5 -7 -32 -8 -61 -1 -28 -8 -56 -15 -62 -7 -6 -13
-32 -13 -58 0 -29 -6 -52 -14 -59 -8 -7 -14 -28 -14 -49 0 -20 -5 -38 -11 -40
-6 -2 -11 -16 -11 -30 0 -15 -7 -40 -15 -56 -8 -15 -15 -36 -15 -45 0 -9 -6
-25 -14 -36 -7 -11 -17 -35 -21 -54 -4 -19 -18 -55 -32 -80 -36 -67 -53 -111
-44 -111 5 0 23 15 41 33 49 49 88 143 105 254 9 54 20 102 25 107 10 10 25
-18 34 -64 16 -80 68 -229 86 -245 11 -10 20 -25 20 -35 0 -22 104 -130 125
-130 13 0 16 6 12 28 -7 35 -68 206 -76 212 -33 27 -41 108 -13 133 27 25 32
21 29 -20 -1 -29 2 -38 16 -41 13 -3 17 3 17 25 1 15 7 55 15 88 8 33 15 78
15 101 0 44 -17 104 -30 104 -4 0 -17 -34 -30 -76 -33 -114 -59 -154 -98 -154
-31 0 -41 21 -44 90 -3 59 -5 65 -26 68 -18 3 -22 8 -16 20 4 9 10 37 13 62 4
25 13 55 19 67 22 40 10 151 -12 114z"/>
<path d="M4737 5483 c-9 -9 -9 -53 1 -53 4 0 18 9 32 20 21 17 23 21 10 30
-18 11 -34 13 -43 3z"/>
<path d="M5432 5468 c6 -18 79 -67 100 -68 9 0 23 -6 30 -13 13 -12 77 -45
168 -85 118 -52 205 -96 208 -103 2 -5 10 -9 17 -9 8 0 20 -6 27 -12 13 -12
52 -35 108 -62 14 -7 40 -20 58 -29 19 -9 44 -17 57 -17 13 0 28 -6 32 -12 9
-14 63 -42 101 -53 12 -3 22 -10 22 -15 0 -4 12 -11 27 -15 15 -3 31 -11 35
-17 7 -13 84 -28 181 -35 73 -5 89 -15 145 -92 15 -20 41 -51 57 -70 61 -68
71 -79 93 -106 17 -20 27 -24 35 -16 8 8 4 17 -12 33 -25 26 -79 94 -130 163
-49 66 -107 103 -175 111 -31 4 -56 10 -56 13 0 7 -81 31 -105 31 -9 0 -33 11
-55 25 -22 14 -49 25 -61 25 -11 0 -27 7 -35 15 -9 8 -24 15 -33 15 -10 0 -51
19 -90 43 -86 50 -209 118 -271 149 -25 13 -58 32 -75 44 -16 12 -43 24 -60
28 -16 4 -38 16 -48 27 -10 10 -26 19 -37 19 -10 0 -31 6 -47 14 -45 23 -197
86 -206 86 -5 0 -7 -6 -5 -12z"/>
<path d="M5043 5455 c-19 -13 -21 -20 -13 -41 6 -14 10 -43 10 -64 0 -26 6
-42 17 -49 11 -6 18 -23 19 -46 1 -48 20 -67 41 -40 21 28 9 135 -23 203 -13
28 -26 52 -27 52 -1 0 -12 -7 -24 -15z"/>
<path d="M4520 5444 c0 -9 5 -14 12 -12 18 6 21 28 4 28 -9 0 -16 -7 -16 -16z"/>
<path d="M3320 5406 c0 -40 24 -61 52 -45 22 12 15 30 -22 58 l-30 22 0 -35z"/>
<path d="M4465 5430 c-3 -5 -30 -10 -59 -10 -37 0 -61 -6 -77 -19 -13 -10 -34
-21 -46 -25 -13 -4 -23 -14 -23 -22 0 -16 16 -19 25 -4 3 6 30 10 59 10 34 0
58 5 65 14 7 8 24 17 39 21 25 6 42 21 42 38 0 10 -18 9 -25 -3z"/>
<path d="M3138 5339 c-15 -8 -26 -49 -14 -49 2 0 11 -3 19 -6 22 -8 40 28 24
49 -9 12 -16 14 -29 6z"/>
<path d="M3016 5317 c-14 -20 -15 -33 -7 -68 8 -37 6 -50 -14 -94 -13 -28 -27
-76 -31 -108 -4 -31 -13 -62 -20 -68 -8 -6 -14 -17 -14 -23 0 -7 -14 -28 -31
-47 -17 -19 -38 -48 -45 -66 -15 -35 -19 -83 -6 -83 8 0 82 95 82 106 0 3 20
36 44 72 24 37 47 83 51 102 4 19 14 54 22 77 11 31 14 65 11 123 -5 92 -18
115 -42 77z"/>
<path d="M5505 5310 c-3 -5 1 -33 9 -62 8 -29 18 -72 21 -95 9 -55 20 -61 40
-23 19 36 14 71 -18 137 -21 43 -42 60 -52 43z"/>
<path d="M3422 5250 c-12 -14 -63 -69 -113 -122 -51 -53 -96 -103 -100 -110
-4 -8 -30 -29 -57 -47 -62 -43 -95 -90 -87 -124 8 -29 -10 -93 -32 -119 -13
-15 -21 -51 -39 -176 -7 -43 -7 -44 22 -40 24 3 34 15 72 88 24 47 59 108 78
137 19 28 34 58 34 67 0 8 4 17 9 20 5 4 20 27 32 54 13 26 36 65 51 86 15 21
28 43 28 47 0 5 20 38 45 75 25 36 45 76 45 90 0 13 5 24 10 24 12 0 32 48 27
64 -2 5 -13 -1 -25 -14z"/>
<path d="M5676 5235 c9 -14 25 -25 35 -25 25 0 24 17 -1 25 -11 3 -20 11 -20
16 0 5 -7 9 -15 9 -14 0 -13 -3 1 -25z"/>
<path d="M5116 5142 c-3 -6 -1 -14 5 -17 15 -10 25 3 12 16 -7 7 -13 7 -17 1z"/>
<path d="M5900 5131 c0 -18 17 -20 36 -6 18 14 18 14 -8 15 -16 0 -28 -4 -28
-9z"/>
<path d="M5722 5098 c-18 -18 -15 -36 8 -43 22 -7 26 -20 10 -30 -18 -11 -11
-44 13 -59 12 -8 34 -12 49 -9 23 4 30 14 43 58 20 69 20 68 -16 61 -22 -4
-39 0 -59 14 -33 24 -33 23 -48 8z"/>
<path d="M5122 5092 c-9 -6 -11 -21 -6 -49 5 -36 10 -42 44 -52 21 -6 41 -18
44 -26 8 -21 23 -19 36 5 8 15 8 18 -3 15 -21 -9 -56 33 -63 75 -7 40 -23 50
-52 32z"/>
<path d="M3082 4984 c1 -9 9 -19 16 -22 9 -3 13 2 10 14 -1 9 -9 19 -16 22 -9
3 -13 -2 -10 -14z"/>
<path d="M5044 4946 c-38 -42 -67 -62 -131 -90 -45 -20 -84 -36 -88 -36 -3 0
-31 -16 -61 -35 -32 -21 -74 -38 -100 -42 -50 -6 -141 11 -189 37 -16 9 -57
25 -90 35 -33 11 -66 26 -73 33 -7 6 -19 12 -26 12 -7 0 -23 11 -36 25 -21 23
-50 34 -50 19 0 -8 61 -65 101 -94 19 -13 39 -28 44 -33 6 -4 37 -26 70 -47
34 -21 74 -51 90 -66 24 -22 32 -24 47 -15 22 14 165 61 184 61 8 0 14 5 14
10 0 6 6 10 13 10 6 0 24 6 39 14 15 8 40 17 57 21 16 3 35 13 42 21 6 8 19
14 29 14 9 0 37 11 61 25 24 13 53 29 64 34 40 20 64 47 66 76 6 82 -10 85
-77 11z"/>
<path d="M2741 4972 c-30 -56 -40 -109 -35 -187 6 -98 12 -125 24 -125 17 0
30 73 30 168 0 52 5 100 12 111 12 20 5 51 -11 51 -6 0 -15 -8 -20 -18z"/>
<path d="M6074 4973 c-24 -4 -161 -140 -151 -150 11 -11 84 35 140 88 51 48
55 69 11 62z"/>
<path d="M5308 4930 c-18 -22 -50 -52 -71 -67 -32 -22 -37 -31 -32 -52 9 -36
12 -37 38 -14 12 11 29 22 37 25 8 3 26 26 38 52 13 25 27 48 33 51 12 8 12
45 0 45 -6 0 -25 -18 -43 -40z"/>
<path d="M5425 4940 c-3 -11 -11 -20 -16 -20 -6 0 -15 -13 -22 -29 -22 -52
-107 -148 -195 -220 -46 -37 -52 -51 -23 -51 20 0 190 161 229 217 12 18 22
41 22 52 0 11 4 21 9 23 13 5 24 48 12 48 -5 0 -13 -9 -16 -20z"/>
<path d="M3885 4833 c4 -10 14 -40 22 -68 8 -27 20 -57 26 -65 20 -25 37 -59
37 -72 1 -7 12 -26 25 -43 19 -23 27 -27 36 -18 18 18 -7 97 -75 233 -17 35
-28 46 -50 48 -24 3 -28 1 -21 -15z"/>
<path d="M6570 4829 c0 -19 4 -21 38 -14 43 8 46 10 37 24 -3 6 -22 11 -41 11
-28 0 -34 -4 -34 -21z"/>
<path d="M5617 4799 c-10 -6 -38 -30 -62 -55 -25 -24 -50 -44 -57 -44 -7 -1
-24 -10 -37 -21 -20 -16 -23 -24 -14 -37 19 -32 52 -25 125 24 70 48 126 113
113 133 -8 14 -45 14 -68 0z"/>
<path d="M6504 4716 c-3 -8 -1 -23 5 -33 9 -17 10 -16 19 7 5 14 8 28 5 33 -7
12 -23 8 -29 -7z"/>
<path d="M6658 4719 c-10 -5 -18 -16 -18 -24 0 -7 -13 -23 -30 -35 -16 -11
-44 -41 -62 -66 l-32 -45 -14 27 -14 28 -19 -40 c-23 -47 -36 -114 -22 -114
21 0 35 29 28 60 -5 23 -3 30 9 30 9 0 16 -7 16 -16 0 -21 40 -9 60 19 25 35
102 121 127 140 42 34 18 64 -29 36z"/>
<path d="M2814 4635 c-3 -13 -12 -29 -20 -36 -8 -6 -14 -20 -14 -31 0 -10 -9
-31 -21 -47 -15 -20 -19 -39 -17 -72 2 -37 5 -41 16 -29 28 34 62 92 62 108 0
9 6 35 14 56 13 39 11 76 -5 76 -5 0 -11 -11 -15 -25z"/>
<path d="M4971 4622 c-19 -9 -33 -21 -33 -27 2 -20 38 -15 65 7 46 40 29 51
-32 20z"/>
<path d="M6280 4580 c-47 -43 -61 -50 -97 -50 -48 0 -62 -14 -39 -39 9 -10 16
-29 16 -43 0 -13 10 -34 23 -46 l22 -21 32 39 c18 21 42 54 54 74 11 20 24 36
27 36 4 0 20 16 35 35 23 29 26 39 17 50 -19 23 -31 18 -90 -35z"/>
<path d="M4795 4579 c-11 -17 2 -22 42 -14 36 8 37 8 13 15 -37 11 -48 11 -55
-1z"/>
<path d="M4718 4534 c-9 -9 22 -63 42 -74 29 -15 33 -12 25 18 -11 44 -48 76
-67 56z"/>
<path d="M5366 4524 c-35 -9 -62 -10 -98 -4 -33 7 -65 6 -96 -1 -27 -6 -76 -7
-114 -4 -43 5 -68 3 -68 -3 0 -5 12 -13 28 -17 57 -13 99 -38 121 -71 22 -32
26 -33 65 -28 22 4 48 10 56 14 8 5 88 7 178 5 89 -1 165 1 168 6 3 5 36 9 75
9 43 0 69 4 69 11 0 7 11 8 29 4 24 -5 32 -2 41 14 10 20 50 30 50 12 0 -5 11
-11 25 -13 17 -4 29 1 39 16 10 14 18 17 23 10 14 -19 83 -24 119 -9 38 16 44
39 15 55 -29 15 -39 13 -67 -15 -27 -27 -44 -25 -44 6 0 15 -7 19 -34 19 -19
0 -38 -4 -41 -10 -4 -6 -76 -10 -178 -11 -225 -2 -270 0 -281 11 -12 12 -17
11 -80 -6z"/>
<path d="M6666 4511 c-3 -4 -43 -33 -88 -64 -46 -31 -100 -72 -122 -91 -21
-20 -44 -36 -51 -36 -8 0 -19 -17 -25 -37 -7 -21 -16 -42 -21 -47 -5 -6 -9
-34 -9 -63 0 -29 -4 -53 -10 -53 -5 0 -12 -17 -15 -37 -3 -21 -13 -53 -21 -71
-8 -18 -14 -50 -14 -71 0 -25 -5 -41 -15 -45 -17 -6 -20 -41 -5 -51 5 -3 13 7
16 22 4 15 13 34 21 41 7 7 15 25 18 40 3 15 10 41 15 57 5 17 12 49 16 73 4
23 11 45 15 48 5 3 9 15 9 27 0 29 136 186 198 229 65 45 132 108 132 124 0
15 -36 19 -44 5z"/>
<path d="M2397 4468 c-3 -12 -2 -29 3 -37 7 -12 9 -6 10 22 0 42 -5 48 -13 15z"/>
<path d="M3139 4435 c-3 -2 -21 -6 -39 -9 -80 -11 -256 -48 -275 -58 -11 -6
-30 -19 -42 -30 -12 -11 -26 -17 -32 -14 -16 10 -29 -26 -23 -63 l5 -35 16 45
c19 52 -12 42 321 95 137 21 165 23 358 24 89 1 162 5 162 10 0 28 -37 34
-240 37 -114 1 -209 1 -211 -2z"/>
<path d="M6412 4432 c-7 -5 -10 -16 -6 -25 9 -25 24 -20 24 8 0 28 0 28 -18
17z"/>
<path d="M2413 4382 c13 -65 176 -286 177 -240 0 9 -4 18 -8 20 -9 3 -64 83
-75 108 -4 8 -16 29 -27 45 -11 17 -26 45 -34 63 -19 40 -41 43 -33 4z"/>
<path d="M5510 4390 c0 -5 7 -10 15 -10 8 0 15 5 15 10 0 6 -7 10 -15 10 -8 0
-15 -4 -15 -10z"/>
<path d="M6657 4327 c-93 -98 -147 -160 -147 -168 0 -4 -16 -26 -35 -49 -37
-44 -40 -50 -27 -50 11 0 43 32 62 60 8 13 42 51 75 84 62 62 144 157 158 182
5 9 3 14 -5 13 -7 0 -44 -33 -81 -72z"/>
<path d="M6803 4323 c-29 -32 -53 -61 -53 -65 0 -4 -19 -29 -42 -56 -24 -27
-72 -85 -106 -130 -35 -45 -94 -106 -130 -137 -83 -71 -290 -274 -303 -298
-15 -27 -29 -10 -22 26 11 65 45 182 54 192 15 15 10 55 -7 62 -31 12 -51 -41
-88 -222 -7 -33 -15 -67 -18 -75 -4 -8 -9 -37 -13 -64 -4 -27 -11 -54 -16 -60
-34 -41 -79 -107 -79 -116 0 -13 -30 -60 -39 -60 -3 0 -14 22 -24 50 -19 53
-105 189 -147 231 -14 14 -54 58 -90 98 -69 77 -230 211 -253 211 -21 0 -40
-27 -33 -45 3 -9 19 -18 35 -21 17 -4 33 -14 36 -23 3 -9 44 -47 92 -86 98
-79 191 -169 244 -235 47 -59 104 -173 97 -192 -6 -15 -80 -30 -145 -29 -22 1
-33 -4 -33 -13 0 -9 -17 -16 -49 -20 -27 -3 -54 -13 -61 -21 -6 -7 -37 -17
-68 -20 -31 -4 -73 -11 -92 -17 -32 -10 -53 -14 -115 -21 -12 -1 -33 -10 -48
-20 -53 -34 -140 -6 -220 72 -17 17 -40 34 -51 37 -31 10 -86 54 -86 70 0 7
-9 16 -20 19 -11 3 -20 10 -20 14 0 4 -11 13 -25 19 -15 7 -25 20 -25 32 0 17
-4 20 -19 15 -12 -4 -23 0 -28 10 -5 9 -22 18 -37 21 -15 2 -56 27 -90 54 -35
28 -66 50 -70 50 -3 0 -20 15 -38 33 -19 18 -41 36 -51 40 -9 3 -17 12 -17 19
0 21 -66 68 -118 83 -62 19 -98 19 -133 -2 -32 -19 -33 -21 -20 -42 7 -10 13
-11 31 -1 40 21 146 -16 214 -75 16 -14 35 -25 43 -25 7 0 13 -4 13 -8 0 -4
14 -13 30 -19 17 -6 30 -19 30 -28 0 -23 -41 -75 -60 -75 -9 0 -28 -6 -43 -12
-23 -11 -26 -18 -22 -38 9 -35 24 -47 71 -53 50 -6 60 0 69 36 8 30 39 37 49
11 11 -27 7 -54 -9 -60 -8 -4 -15 -12 -15 -19 0 -13 -72 -65 -91 -65 -6 0 -25
-7 -42 -15 -18 -8 -60 -23 -94 -34 -33 -11 -79 -31 -102 -45 -22 -14 -45 -26
-50 -26 -10 0 -163 -149 -196 -191 -32 -40 -65 -88 -65 -93 0 -2 -19 -33 -42
-67 -80 -116 -89 -135 -78 -165 9 -23 12 -24 27 -13 9 8 22 29 30 47 8 19 20
32 31 32 10 0 22 4 28 9 10 10 111 45 162 56 17 4 32 11 32 16 0 5 19 9 43 9
23 0 51 6 62 14 21 14 36 17 168 38 96 15 99 32 12 67 -121 47 -187 82 -215
113 -17 18 -30 36 -30 39 0 14 102 70 124 68 52 -4 75 2 81 19 6 20 45 42 73
42 10 0 24 6 31 13 6 6 24 12 39 12 20 0 27 5 26 18 -1 10 8 28 20 41 11 12
30 35 41 50 20 28 20 28 79 17 33 -6 77 -11 99 -11 30 0 40 -4 44 -19 3 -11
32 -33 66 -51 82 -42 96 -51 133 -80 61 -48 78 -60 87 -60 9 0 1 -66 -10 -84
-3 -5 -13 1 -22 12 -14 19 -76 40 -174 59 l-27 5 17 -30 c22 -38 14 -47 -46
-47 -26 0 -54 -5 -62 -11 -15 -12 -63 -21 -161 -30 -32 -3 -58 -7 -58 -8 0 -2
5 -17 11 -35 8 -23 17 -31 36 -31 18 0 28 -8 36 -30 14 -37 32 -34 32 6 0 27
4 30 55 42 100 23 110 24 125 12 8 -6 19 -9 25 -5 14 9 13 32 -2 39 -7 3 3 3
23 0 25 -4 39 -1 48 10 8 9 26 16 42 16 16 0 38 5 49 12 26 17 31 9 32 -53 1
-37 8 -63 22 -81 23 -33 36 -36 36 -9 0 10 7 24 15 31 23 19 19 43 -6 37 -37
-10 -48 1 -42 41 8 45 40 74 66 60 15 -8 26 -1 60 35 l42 44 80 2 c44 1 84 6
90 10 15 11 89 31 117 31 13 0 29 -5 36 -12 18 -18 40 6 24 25 -17 20 -5 27
44 27 24 0 46 5 50 11 3 6 17 8 30 5 14 -4 38 1 61 14 21 11 54 20 74 20 67 0
129 47 129 98 0 12 9 40 20 62 11 22 20 45 20 52 0 16 47 68 61 68 5 0 14 12
19 26 9 22 13 24 26 14 10 -9 18 -10 25 -3 7 7 5 14 -6 23 -20 16 -20 60 0 60
8 0 15 6 16 13 0 6 50 50 112 97 156 119 247 208 343 335 46 61 102 133 124
160 97 120 92 174 -7 68z m-2510 -1410 c20 -19 23 -52 5 -58 -7 -2 -46 -6 -85
-10 -61 -5 -73 -4 -73 9 0 8 9 17 19 21 18 5 18 8 4 36 -11 23 -12 33 -3 44
10 12 19 11 63 -6 29 -11 60 -28 70 -36z"/>
<path d="M8910 4276 c0 -9 -11 -23 -25 -32 -44 -29 -28 -41 62 -50 l53 -5 0
31 c0 19 -5 30 -15 30 -7 0 -18 6 -22 14 -13 21 -53 31 -53 12z"/>
<path d="M6909 4257 c-49 -49 -78 -85 -101 -126 -39 -71 -43 -77 -58 -93 -8
-8 -33 -37 -55 -63 -71 -85 -148 -169 -184 -200 -20 -16 -55 -48 -77 -71 l-41
-40 22 -22 c26 -26 53 -28 61 -7 4 8 16 15 29 15 12 0 28 7 35 15 7 8 19 15
27 15 36 0 153 82 233 164 59 60 70 73 70 84 0 5 14 12 30 16 17 3 33 14 36
23 4 10 12 32 20 50 8 17 14 55 13 85 0 40 -2 48 -9 32 -5 -12 -13 -25 -19
-29 -6 -3 -11 -15 -11 -25 0 -10 -6 -25 -12 -32 -7 -7 -26 -32 -42 -55 -58
-86 -319 -313 -359 -313 -9 0 -23 -7 -31 -16 -17 -16 -61 -16 -61 1 0 6 10 11
23 13 13 2 26 10 29 18 3 8 9 14 15 14 20 0 92 68 185 173 87 99 128 153 197
258 13 20 38 47 54 61 23 19 29 31 25 51 -6 33 -13 34 -44 4z"/>
<path d="M8761 4251 c-19 -13 -4 -31 26 -31 19 0 24 4 19 16 -3 9 -6 18 -6 20
0 7 -24 4 -39 -5z"/>
<path d="M8724 4136 c-14 -23 -14 -28 2 -62 10 -20 26 -39 36 -42 13 -3 16
-11 12 -26 -7 -29 15 -48 58 -49 31 -2 33 0 36 37 2 21 -1 43 -7 49 -6 6 -11
23 -11 38 0 15 -4 39 -10 53 -8 23 -15 26 -55 26 -36 0 -47 -5 -61 -24z"/>
<path d="M5580 4026 c0 -30 43 -41 138 -37 42 1 42 21 -1 21 -19 0 -56 7 -83
15 -27 8 -50 15 -51 15 -2 0 -3 -6 -3 -14z"/>
<path d="M8655 3970 c-24 -5 -26 -8 -13 -14 22 -10 73 -3 71 9 -3 13 -21 15
-58 5z"/>
<path d="M1880 3957 c0 -7 -9 -30 -20 -52 -11 -22 -20 -47 -20 -56 0 -9 -9
-24 -20 -34 -11 -10 -20 -29 -20 -42 0 -19 3 -21 18 -14 9 5 25 12 35 15 11 3
21 15 24 26 10 39 58 25 135 -40 40 -33 76 -60 81 -60 5 0 48 -25 94 -56 90
-61 124 -65 58 -7 -22 19 -53 47 -70 62 -16 15 -61 53 -100 83 -74 59 -116
101 -154 156 -23 33 -41 42 -41 19z"/>
<path d="M8515 3941 c-29 -7 -28 -8 17 -15 46 -8 68 -3 68 15 0 10 -40 10 -85
0z"/>
<path d="M8876 3925 c-4 -11 -20 -15 -56 -15 -27 0 -50 -4 -50 -10 0 -11 51
-13 99 -4 21 5 31 12 31 25 0 23 -16 25 -24 4z"/>
<path d="M6945 3889 c-4 -17 -13 -33 -21 -36 -23 -8 -16 -30 10 -35 29 -6 36
7 36 63 0 46 -16 52 -25 8z"/>
<path d="M8390 3911 c-22 -7 -21 -8 17 -14 43 -7 73 -1 73 14 0 10 -54 10 -90
0z"/>
<path d="M3045 3900 c27 -12 35 -12 35 0 0 6 -12 10 -27 9 -25 0 -26 -1 -8 -9z"/>
<path d="M3112 3878 c3 -7 22 -14 44 -16 21 -2 46 -9 54 -16 8 -7 42 -20 75
-30 33 -9 80 -23 105 -31 25 -8 63 -16 85 -18 22 -2 50 -8 61 -15 12 -6 48
-15 80 -18 33 -4 64 -10 69 -14 6 -4 26 -11 45 -15 55 -11 109 -38 109 -55 0
-36 -25 -49 -120 -61 -82 -11 -91 -14 -66 -23 35 -13 30 -28 -14 -39 -21 -5
-42 -19 -54 -38 -13 -19 -34 -33 -60 -40 -65 -17 -67 -18 -60 -39 4 -14 2 -20
-8 -20 -8 0 -20 -6 -26 -14 -7 -8 -24 -17 -38 -21 -15 -3 -48 -24 -74 -46 -26
-21 -51 -39 -57 -39 -5 0 -28 -20 -51 -45 -28 -30 -50 -45 -66 -45 -20 0 -25
-5 -25 -25 0 -31 26 -33 61 -7 13 10 44 29 69 41 60 29 75 39 142 89 31 23 61
42 67 42 6 0 11 5 11 10 0 6 8 13 18 17 9 3 33 19 53 35 20 15 42 28 48 28 6
0 11 4 11 9 0 5 21 22 46 38 65 39 74 45 121 76 24 15 47 27 52 27 6 0 14 6
18 13 4 7 28 21 53 31 25 10 59 25 77 32 17 8 38 14 46 14 8 0 20 7 27 15 7 8
27 17 46 21 19 3 34 11 34 17 0 6 -27 8 -77 4 -52 -4 -103 -1 -153 9 -41 8
-99 19 -129 25 -29 5 -62 14 -71 19 -10 5 -43 13 -74 16 -31 4 -59 11 -62 15
-3 5 -16 9 -29 9 -32 0 -177 35 -203 49 -11 6 -36 11 -55 11 -19 0 -51 7 -70
15 -45 19 -90 20 -85 3z"/>
<path d="M8090 3851 c0 -6 4 -12 9 -15 13 -8 42 4 35 15 -7 12 -44 12 -44 0z"/>
<path d="M7970 3814 c-7 -8 -30 -14 -52 -14 -25 0 -41 -5 -44 -15 -4 -10 -21
-15 -55 -15 -31 0 -51 -5 -56 -14 -5 -8 -27 -16 -52 -18 -61 -4 -67 -28 -7
-28 24 0 47 4 50 9 3 4 28 11 55 15 28 4 53 11 56 16 3 5 32 12 64 16 48 5 61
11 69 29 13 28 -9 43 -28 19z"/>
<path d="M8400 3823 c-117 -4 -127 -7 -109 -30 13 -15 11 -16 -11 -9 -14 4
-48 10 -76 13 -40 4 -54 1 -68 -13 -21 -20 -19 -45 14 -204 12 -58 26 -130 30
-160 11 -70 27 -82 81 -64 22 8 68 18 103 23 35 5 73 14 84 20 12 6 30 11 41
11 19 0 34 6 126 45 17 7 37 16 45 19 8 3 27 14 42 24 15 9 57 36 95 59 86 52
143 107 143 137 0 32 -37 76 -64 76 -12 0 -32 7 -44 16 -17 12 -35 14 -65 10
-30 -4 -51 -1 -72 10 -32 18 -128 24 -295 17z m237 -83 c7 -14 21 -32 31 -41
11 -8 23 -25 27 -38 6 -19 11 -21 38 -15 18 3 37 11 44 16 7 5 18 8 25 5 8 -4
5 -8 -9 -12 -13 -4 -23 -11 -23 -16 0 -5 -15 -9 -34 -9 -22 0 -42 -8 -59 -26
-23 -23 -30 -25 -69 -17 l-43 9 3 47 c4 51 -7 60 -30 25 -27 -41 -29 -63 -9
-85 11 -12 24 -23 29 -24 5 -2 13 -14 16 -27 7 -21 5 -22 -31 -21 -21 1 -53
-4 -71 -12 -29 -12 -33 -12 -47 7 -22 32 -77 54 -132 54 -55 0 -68 7 -52 26
16 19 1 54 -27 65 -27 10 -24 29 5 29 10 0 24 7 31 15 7 8 27 15 44 15 17 0
40 7 50 15 23 17 141 21 151 5 3 -5 15 -10 26 -10 16 0 19 5 14 19 -4 15 0 21
17 24 46 9 72 2 85 -23z m-233 -246 c33 -13 2 -24 -64 -24 -64 0 -89 8 -73 24
8 8 116 8 137 0z"/>
<path d="M8570 3722 c0 -13 23 -32 39 -32 11 0 9 5 -7 20 -23 21 -32 25 -32
12z"/>
<path d="M8455 3700 c-8 -12 20 -24 35 -15 5 3 10 10 10 16 0 12 -37 12 -45
-1z"/>
<path d="M8256 3672 c-9 -15 20 -39 57 -46 21 -4 45 -10 53 -13 21 -8 18 30
-4 50 -19 17 -97 24 -106 9z"/>
<path d="M8416 3645 c-3 -9 1 -18 10 -22 19 -7 39 11 30 26 -10 16 -33 13 -40
-4z"/>
<path d="M6847 3785 c-20 -19 -33 -36 -29 -39 10 -6 78 61 71 68 -3 3 -21 -10
-42 -29z"/>
<path d="M5720 3784 c0 -25 55 -88 123 -142 68 -53 147 -102 166 -102 16 0
-17 56 -44 74 -11 7 -65 52 -120 100 -100 86 -125 100 -125 70z"/>
<path d="M2247 3764 c-10 -11 3 -24 24 -24 23 0 25 15 3 24 -19 7 -19 7 -27 0z"/>
<path d="M7980 3725 c-14 -8 -32 -14 -40 -15 -8 0 -28 -7 -44 -15 -15 -8 -42
-15 -60 -15 -17 0 -40 -7 -50 -15 -11 -8 -36 -15 -56 -15 -20 0 -45 -7 -56
-15 -10 -8 -28 -15 -39 -15 -11 0 -27 -5 -35 -10 -13 -9 -13 -11 -1 -19 15
-10 79 -3 96 10 6 4 33 12 60 17 28 6 75 18 105 27 30 9 75 19 100 22 36 4 48
10 57 30 20 42 6 52 -37 28z"/>
<path d="M1760 3705 c-7 -8 -8 -15 -2 -15 5 0 15 7 22 15 7 8 8 15 2 15 -5 0
-15 -7 -22 -15z"/>
<path d="M7580 3694 c0 -11 8 -14 27 -12 39 4 42 28 4 28 -21 0 -31 -5 -31
-16z"/>
<path d="M6320 3691 c0 -5 -9 -11 -20 -14 -11 -3 -20 -10 -20 -16 0 -6 9 -11
20 -11 11 0 20 6 20 13 0 8 10 19 23 25 l22 11 -22 0 c-13 1 -23 -3 -23 -8z"/>
<path d="M6665 3660 c-3 -5 -15 -10 -27 -10 -11 0 -32 -6 -46 -13 -15 -8 -42
-21 -60 -30 -19 -9 -41 -17 -51 -17 -9 0 -26 -7 -37 -15 -10 -8 -30 -15 -44
-15 -14 0 -35 -6 -46 -14 -11 -8 -38 -16 -59 -18 -21 -2 -40 -9 -43 -16 -3
-11 7 -13 49 -9 73 7 138 22 152 36 6 6 19 11 29 11 11 0 54 19 96 42 42 23
93 50 112 59 34 18 34 18 8 19 -15 0 -30 -4 -33 -10z"/>
<path d="M6771 3643 c-13 -10 -40 -32 -60 -48 -61 -52 -119 -95 -126 -95 -13
0 -53 -48 -57 -67 -2 -12 -14 -18 -43 -20 -22 -1 -45 -9 -51 -18 -6 -8 -26
-15 -45 -15 -43 0 -69 -14 -44 -24 28 -10 63 -7 79 9 8 8 30 15 50 15 19 0 41
6 48 13 7 8 26 17 41 21 23 5 26 10 21 30 -4 17 -1 25 13 30 80 29 254 186
206 186 -5 0 -19 -8 -32 -17z"/>
<path d="M6235 3641 c-3 -5 -1 -12 5 -16 12 -7 30 2 30 16 0 12 -27 12 -35 0z"/>
<path d="M7972 3620 c-19 -4 -39 -13 -45 -19 -6 -6 -26 -11 -43 -11 -18 0 -39
-6 -47 -14 -8 -8 -34 -16 -57 -18 -60 -4 -66 -28 -7 -28 31 0 47 5 51 15 4 10
20 15 54 15 26 0 52 4 58 9 5 5 27 11 49 13 33 2 41 7 43 26 4 24 -2 25 -56
12z"/>
<path d="M6350 3610 c0 -5 12 -10 26 -10 14 0 23 4 19 10 -3 6 -15 10 -26 10
-10 0 -19 -4 -19 -10z"/>
<path d="M6817 3555 c-19 -12 -45 -26 -57 -30 -28 -9 -20 -29 13 -33 18 -2 29
3 36 17 6 11 23 21 38 23 16 2 29 10 31 19 5 27 -25 29 -61 4z"/>
<path d="M7376 3545 c-15 -8 -42 -15 -58 -15 -16 0 -42 -6 -56 -14 -15 -8 -44
-18 -64 -21 -53 -8 -49 -28 5 -22 59 7 133 24 154 36 10 5 35 13 56 16 23 4
37 11 34 18 -6 18 -39 19 -71 2z"/>
<path d="M8012 3534 c-28 -19 -28 -40 -2 -47 17 -4 20 -12 18 -49 -3 -39 -1
-43 21 -46 20 -3 23 -1 16 15 -4 10 -9 44 -12 76 -3 32 -9 60 -13 62 -4 2 -16
-3 -28 -11z"/>
<path d="M7637 3523 c-16 -16 -4 -24 30 -21 48 4 57 28 11 28 -19 0 -38 -3
-41 -7z"/>
<path d="M8880 3515 c-8 -10 -11 -30 -7 -59 4 -27 2 -47 -6 -55 -9 -9 -3 -11
30 -5 41 6 42 6 50 -27 7 -24 16 -35 31 -37 21 -3 22 -1 22 97 l0 101 -54 0
c-36 0 -58 -5 -66 -15z"/>
<path d="M6680 3484 c0 -10 33 -33 48 -34 18 0 15 27 -4 34 -20 8 -44 8 -44 0z"/>
<path d="M4364 3448 c-50 -40 -93 -68 -103 -68 -19 0 -176 -86 -226 -124 -55
-42 -179 -160 -225 -215 -71 -85 -233 -309 -247 -340 -8 -18 -12 -40 -9 -48 5
-12 9 -12 33 1 16 8 35 17 45 20 9 2 19 19 23 37 9 38 100 159 121 159 8 0 14
10 14 23 1 13 20 41 46 67 25 25 54 62 65 82 14 28 28 40 57 48 25 7 46 22 64
48 17 24 48 48 85 67 32 15 69 38 83 51 14 12 36 25 50 29 13 4 37 17 51 27
15 11 42 23 60 27 32 7 34 9 33 49 -1 33 3 43 18 48 20 6 20 25 1 31 -6 2 -23
-6 -39 -19z"/>
<path d="M7408 3463 c-31 -8 -20 -23 16 -23 38 0 55 14 30 24 -17 6 -19 6 -46
-1z"/>
<path d="M7778 3463 c-45 -7 -32 -24 15 -21 23 2 41 8 40 13 -2 12 -17 14 -55
8z"/>
<path d="M6623 3443 c-18 -6 -16 -28 2 -43 18 -15 24 -11 27 20 3 24 -8 32
-29 23z"/>
<path d="M6860 3438 c-1 -7 -14 -29 -30 -48 -31 -36 -40 -80 -16 -80 8 0 16 7
20 15 3 8 14 15 24 15 25 0 45 48 36 83 -6 27 -34 38 -34 15z"/>
<path d="M7280 3426 c-6 -8 -30 -16 -53 -18 -31 -2 -43 -8 -45 -21 -3 -15 2
-17 40 -11 24 4 50 12 58 20 8 7 30 14 49 16 19 2 36 9 39 16 6 18 -72 16 -88
-2z"/>
<path d="M7650 3432 c-5 -2 -10 -8 -10 -13 0 -15 83 -6 88 9 2 8 -7 11 -32 10
-20 -2 -40 -4 -46 -6z"/>
<path d="M6220 3360 c0 -5 4 -10 10 -10 13 0 40 -54 40 -83 0 -31 -18 -47 -53
-47 -17 0 -26 -4 -22 -10 4 -6 16 -8 26 -5 24 8 69 -19 69 -40 0 -9 -12 -20
-26 -25 -30 -12 -25 -25 12 -34 20 -5 32 -2 46 13 11 12 31 21 49 21 16 0 46
7 66 15 19 8 43 15 53 15 10 0 31 7 46 15 16 8 38 15 49 15 11 0 27 4 35 10
24 15 41 -8 34 -46 -5 -26 -2 -34 14 -43 16 -8 23 -6 38 11 19 20 19 21 -3 35
-30 20 -29 37 2 61 31 24 31 30 3 34 -20 3 -23 9 -23 48 0 35 -4 45 -18 48
-10 2 -24 -1 -32 -8 -11 -9 -11 -16 3 -40 14 -25 15 -32 2 -54 -11 -21 -21
-26 -54 -26 -23 0 -50 -7 -60 -15 -11 -8 -33 -15 -50 -15 -16 0 -37 -6 -45
-14 -9 -8 -36 -16 -61 -17 -44 -4 -45 -3 -45 26 0 21 7 33 24 41 22 11 21 12
-18 19 -22 4 -43 11 -47 16 -3 5 4 25 16 44 l21 34 -38 10 c-48 14 -63 14 -63
1z"/>
<path d="M5090 3352 c0 -16 50 -52 72 -52 10 0 21 -7 24 -15 3 -8 21 -17 40
-21 19 -3 37 -10 40 -15 10 -17 34 -9 34 11 0 21 -74 65 -135 81 -16 4 -40 11
-52 14 -14 5 -23 3 -23 -3z"/>
<path d="M7314 3335 c-18 -13 -16 -14 23 -15 46 0 65 14 30 24 -30 8 -31 8
-53 -9z"/>
<path d="M8784 3339 c-10 -17 13 -36 27 -22 12 12 4 33 -11 33 -5 0 -12 -5
-16 -11z"/>
<path d="M6175 3310 c-3 -5 3 -10 15 -10 12 0 18 5 15 10 -3 6 -10 10 -15 10
-5 0 -12 -4 -15 -10z"/>
<path d="M6495 3306 c-11 -9 -30 -16 -42 -16 -28 0 -53 -10 -53 -21 0 -15 77
-10 83 5 4 9 23 16 49 18 24 2 43 8 43 13 0 16 -58 17 -80 1z"/>
<path d="M6853 3314 c-12 -5 -8 -21 20 -82 9 -18 8 -25 -3 -32 -16 -10 -63 -2
-68 12 -6 14 -30 9 -36 -8 -10 -25 -7 -34 9 -34 8 0 18 -12 21 -27 8 -32 26
-49 67 -64 15 -6 27 -15 27 -20 0 -12 47 -11 55 1 3 6 -3 23 -15 40 -17 24
-26 28 -50 24 -21 -5 -31 -2 -38 13 -13 24 -1 46 21 37 10 -4 19 0 23 9 3 8
30 22 60 32 30 9 54 21 54 25 0 16 -24 25 -65 25 -36 0 -40 3 -40 25 0 24 -17
34 -42 24z"/>
<path d="M7223 3313 c-27 -10 -11 -23 27 -23 29 0 40 4 40 15 0 15 -39 20 -67
8z"/>
<path d="M6771 3286 c-9 -11 -8 -15 5 -20 32 -12 54 -7 54 14 0 24 -41 28 -59
6z"/>
<path d="M7073 3287 c-3 -6 1 -15 9 -21 8 -6 18 -20 22 -31 7 -19 8 -19 21 4
7 14 20 28 29 31 10 3 -1 9 -29 16 -30 7 -48 7 -52 1z"/>
<path d="M8095 3272 c-10 -10 -149 -52 -255 -77 -30 -8 -68 -18 -85 -23 -89
-30 -133 -39 -149 -30 -13 7 -23 5 -39 -10 -14 -12 -56 -25 -117 -36 -88 -17
-133 -27 -235 -56 -23 -7 -47 -11 -55 -10 -29 4 -49 0 -64 -15 -8 -9 -34 -20
-58 -25 -83 -17 -132 -31 -157 -44 -50 -26 -96 -39 -139 -40 -30 -1 -47 -7
-53 -19 -6 -9 -21 -17 -34 -17 -14 0 -42 -6 -62 -14 -38 -13 -113 -35 -189
-55 -23 -6 -49 -8 -57 -5 -9 3 -31 -5 -49 -19 -19 -14 -54 -27 -82 -31 -27 -3
-54 -10 -60 -15 -6 -5 -30 -12 -53 -16 -24 -4 -45 -11 -49 -16 -3 -5 -15 -9
-27 -9 -12 0 -44 -9 -72 -19 -78 -31 -214 -71 -238 -71 -22 0 -65 -24 -79 -44
-4 -6 -8 -28 -8 -49 0 -42 -24 -87 -47 -87 -7 0 -27 10 -43 21 -28 21 -60 20
-60 -1 0 -6 14 -16 30 -21 22 -8 30 -17 30 -34 0 -13 -7 -25 -15 -29 -8 -3
-15 -15 -15 -26 0 -28 37 -91 66 -113 23 -17 24 -17 24 3 0 12 -5 30 -11 41
-13 26 -4 53 32 90 l29 30 0 -30 c0 -28 15 -49 27 -37 3 3 7 27 10 53 4 50 27
138 42 162 5 8 24 14 43 13 18 0 43 6 55 14 12 7 29 14 38 14 8 0 20 9 27 20
7 11 16 20 20 20 12 0 10 -38 -2 -45 -6 -3 -10 -49 -10 -101 0 -112 -27 -378
-42 -414 -5 -14 -14 -49 -19 -79 -8 -54 -28 -80 -61 -81 -24 0 -23 -27 2 -40
11 -6 20 -19 20 -28 0 -10 6 -24 12 -30 7 -7 11 -28 9 -47 -2 -30 1 -35 26
-41 53 -13 104 -46 163 -106 33 -33 63 -72 66 -86 3 -15 10 -38 15 -51 20 -49
-11 -191 -63 -289 -21 -40 -38 -79 -38 -86 0 -8 -7 -16 -15 -20 -21 -8 -19
-26 3 -26 34 0 126 100 160 173 29 60 32 76 32 160 0 145 -39 230 -146 319
-41 34 -161 98 -183 98 -6 0 -9 26 -9 59 l1 58 61 17 c34 10 79 24 101 31 22
8 61 17 88 21 26 3 50 10 53 15 8 13 217 11 270 -2 34 -9 47 -9 59 1 9 8 27
10 46 6 34 -7 109 9 109 23 0 14 -78 20 -332 24 -86 1 -160 5 -164 10 -4 4 4
7 18 7 17 0 35 11 51 29 17 21 28 26 35 19 8 -8 23 -4 54 11 l43 21 -32 0
c-17 0 -33 -6 -36 -12 -3 -10 -7 -10 -20 1 -18 14 -29 10 -70 -31 -10 -10 -32
-18 -51 -18 -23 0 -44 -10 -72 -35 -51 -46 -89 -48 -98 -4 -9 45 -7 88 4 123
5 17 16 114 25 216 9 102 18 197 21 212 7 32 51 53 90 44 16 -4 35 -1 48 7 19
12 59 25 121 41 11 3 45 14 75 25 30 11 69 21 85 21 17 0 44 9 60 20 17 11 40
20 52 20 12 0 37 6 55 14 54 24 144 48 164 44 26 -5 43 -105 25 -153 -11 -33
-39 -174 -44 -223 -1 -13 -9 -29 -17 -35 -12 -10 -15 -43 -17 -175 -1 -105 -5
-168 -13 -176 -8 -11 -7 -17 9 -28 12 -9 23 -34 30 -72 12 -66 9 -76 -19 -69
-15 4 -20 0 -20 -15 0 -12 5 -24 10 -27 15 -9 12 -89 -5 -111 -8 -10 -15 -34
-15 -52 0 -25 -4 -32 -16 -30 -13 2 -23 -15 -41 -66 -13 -38 -31 -78 -39 -90
-8 -11 -14 -29 -14 -39 0 -18 -21 -52 -73 -117 -15 -19 -31 -40 -36 -45 -4 -6
-11 -23 -15 -38 -4 -16 -26 -42 -56 -64 -28 -21 -50 -40 -50 -44 0 -18 -82
-85 -138 -111 -35 -17 -61 -35 -59 -42 6 -20 47 -18 83 3 43 26 52 27 32 4 -9
-10 -18 -27 -19 -38 -2 -11 -19 -27 -37 -37 -43 -21 -72 -47 -72 -65 0 -17 37
-17 47 1 4 7 30 16 58 19 41 4 54 11 78 41 25 31 35 36 72 36 23 0 56 -7 71
-15 16 -8 36 -15 44 -15 9 0 20 -4 25 -9 6 -5 27 -14 48 -21 21 -7 37 -18 37
-27 0 -10 6 -13 16 -9 9 4 34 -6 60 -24 25 -16 53 -30 63 -30 10 0 24 -7 31
-15 7 -8 29 -15 49 -15 20 0 45 -7 55 -15 11 -8 27 -15 37 -15 9 0 22 -7 29
-16 15 -17 61 -15 67 2 6 18 -127 91 -180 98 -39 6 -53 14 -79 47 -44 55 -122
92 -190 89 -77 -3 -83 -2 -112 25 -14 13 -46 33 -71 44 -53 24 -58 45 -12 60
19 7 66 38 105 71 103 87 204 233 269 389 l35 84 2 291 c2 287 12 418 42 537
8 30 14 69 14 86 0 17 6 46 14 64 7 19 16 75 19 125 3 50 12 107 20 127 14 32
20 36 64 42 26 4 62 13 78 22 17 8 40 14 50 12 19 -4 20 -15 22 -234 1 -127 7
-279 12 -340 6 -60 13 -236 16 -390 3 -154 10 -345 16 -425 8 -116 22 -523 33
-945 1 -56 10 -75 33 -75 17 0 17 4 -11 820 -8 228 -20 577 -25 775 -6 198
-15 410 -21 470 -5 61 -12 167 -15 236 -5 112 -3 128 11 133 44 17 355 26 904
25 662 0 773 -5 794 -34 18 -24 69 -22 95 4 12 12 30 21 41 21 18 0 20 7 20
70 0 83 -11 89 -71 38 -59 -51 -96 -78 -107 -78 -5 0 -40 29 -78 65 -70 66
-170 135 -196 135 -8 0 -19 5 -24 10 -23 23 -163 38 -279 32 -16 -1 -55 1 -85
4 -31 3 -59 1 -65 -4z m269 -97 c56 -10 86 -20 100 -36 l21 -21 -28 6 c-15 4
-36 2 -46 -3 -10 -6 -71 -13 -136 -15 -89 -4 -124 -2 -145 9 -21 11 -30 11
-39 2 -9 -9 -16 -8 -32 1 -12 8 -33 11 -50 7 -16 -4 -29 -2 -29 3 0 12 68 33
105 32 56 -2 111 7 140 23 17 9 37 14 45 11 8 -3 51 -12 94 -19z"/>
<path d="M8920 3271 c0 -13 8 -17 48 -26 28 -6 32 -4 32 14 0 18 -6 21 -40 21
-22 0 -40 -4 -40 -9z"/>
<path d="M6102 3237 c-26 -27 -29 -62 -6 -71 13 -5 16 -18 12 -71 -3 -56 -1
-66 14 -71 10 -3 18 -11 18 -19 0 -7 6 -15 13 -18 6 -2 8 -8 4 -13 -4 -4 -17
-3 -27 4 -11 7 -31 12 -45 12 -14 0 -28 7 -31 15 -10 25 -32 17 -39 -14 -6
-27 -11 -30 -48 -33 -30 -2 -43 -8 -45 -20 -3 -14 4 -18 32 -18 19 0 41 6 49
14 23 24 85 31 105 13 10 -9 46 -19 85 -23 64 -6 67 -6 67 15 0 15 -6 21 -22
21 -21 1 -68 31 -68 44 0 3 11 6 24 6 14 0 37 5 52 10 20 8 32 7 49 -4 21 -14
24 -13 39 3 9 10 16 23 16 29 0 16 -35 15 -60 0 -15 -10 -23 -9 -39 6 -20 18
-22 19 -61 1 -32 -14 -43 -16 -53 -6 -8 8 -8 17 -2 29 14 23 13 158 -1 172 -7
7 -17 3 -32 -13z"/>
<path d="M7045 3251 c-6 -11 9 -23 19 -14 9 9 7 23 -3 23 -6 0 -12 -4 -16 -9z"/>
<path d="M7070 3170 c-7 -14 -8 -26 0 -39 5 -11 11 -35 11 -53 l1 -33 8 37 c4
21 14 46 23 55 14 17 13 19 -8 36 -23 17 -25 17 -35 -3z"/>
<path d="M1536 3151 c-10 -11 -16 -25 -14 -32 2 -7 12 0 22 16 21 32 16 43 -8
16z"/>
<path d="M6048 3163 c-2 -5 -3 -30 -3 -58 1 -45 3 -50 24 -53 21 -3 23 -1 18
20 -4 12 -7 40 -7 61 0 25 -4 37 -14 37 -8 0 -16 -3 -18 -7z"/>
<path d="M5940 3145 c-7 -8 -27 -15 -44 -16 l-31 -1 33 -8 c18 -4 42 -16 53
-26 17 -16 22 -16 29 -4 6 8 10 22 10 31 0 8 5 20 12 27 9 9 5 12 -19 12 -17
0 -36 -7 -43 -15z"/>
<path d="M6560 3120 c0 -5 14 -10 30 -10 17 0 30 5 30 10 0 6 -13 10 -30 10
-16 0 -30 -4 -30 -10z"/>
<path d="M5773 3103 c-28 -11 -10 -24 29 -21 51 4 66 28 16 27 -18 0 -39 -3
-45 -6z"/>
<path d="M6418 3083 c-21 -9 -38 -20 -38 -24 0 -14 37 -10 52 4 7 8 28 14 46
14 18 0 38 5 44 11 18 18 -58 14 -104 -5z"/>
<path d="M5632 3059 c-11 -17 -21 -20 -59 -18 -40 3 -49 0 -66 -22 -20 -28
-22 -43 -19 -161 2 -74 3 -78 25 -78 12 0 36 9 52 20 39 26 61 25 68 -1 9 -35
-1 -44 -74 -64 -39 -11 -73 -23 -75 -27 -3 -4 0 -16 6 -27 9 -18 13 -19 43 -7
17 8 47 17 65 21 28 6 33 3 41 -17 7 -20 9 -15 16 29 3 28 4 61 1 71 -4 11 -2
30 3 43 14 37 0 144 -19 144 -11 0 -14 -10 -12 -42 3 -42 3 -43 -28 -43 -30 0
-31 1 -25 33 4 17 14 36 22 40 10 6 13 17 9 33 -9 35 0 45 29 32 22 -10 28 -8
49 15 14 15 32 27 41 27 8 0 15 4 15 8 0 5 -21 10 -48 11 -38 1 -50 -3 -60
-20z"/>
<path d="M5940 3048 l-35 -10 25 -14 c33 -18 47 -17 54 3 10 24 -5 31 -44 21z"/>
<path d="M6650 3045 c-9 -11 -10 -19 -3 -26 17 -17 48 -6 48 16 0 25 -28 31
-45 10z"/>
<path d="M5807 3014 c-12 -12 4 -24 32 -24 16 0 34 7 41 15 11 13 7 15 -27 15
-22 0 -43 -3 -46 -6z"/>
<path d="M6510 3000 c0 -13 30 -13 50 0 11 7 7 10 -17 10 -18 0 -33 -4 -33
-10z"/>
<path d="M5715 2980 c-4 -6 8 -10 29 -10 19 0 38 5 41 10 4 6 -8 10 -29 10
-19 0 -38 -4 -41 -10z"/>
<path d="M6297 2959 c-7 -27 20 -54 39 -38 20 16 18 24 -10 42 -22 15 -24 15
-29 -4z"/>
<path d="M5814 2915 c-10 -8 -29 -15 -42 -15 -27 0 -82 -27 -82 -40 0 -14 18
-21 25 -10 3 5 13 10 22 10 8 0 29 7 46 15 18 8 50 18 71 23 22 4 41 13 44 20
5 17 -60 15 -84 -3z"/>
<path d="M5964 2874 c-3 -11 -10 -27 -15 -36 -8 -16 -4 -18 25 -18 22 0 36 6
40 16 4 9 5 17 4 18 -2 1 -13 10 -25 20 -22 18 -23 18 -29 0z"/>
<path d="M5087 2826 c-3 -8 -20 -17 -37 -21 -17 -4 -34 -13 -37 -21 -3 -8 -11
-14 -19 -14 -21 0 -17 -30 10 -64 20 -26 24 -46 27 -115 l4 -84 50 -43 c60
-53 57 -57 75 119 l12 128 -32 65 c-32 65 -43 76 -53 50z"/>
<path d="M5243 2813 c-34 -7 -28 -21 32 -80 56 -55 72 -62 94 -40 10 10 15 9
25 -5 19 -26 23 -22 18 15 -8 57 -75 118 -127 115 -11 0 -30 -3 -42 -5z"/>
<path d="M1672 2790 c-30 -11 -71 -34 -92 -52 -58 -50 -50 -81 10 -37 25 19
37 21 89 15 50 -6 62 -4 67 8 7 19 77 56 107 56 43 1 -6 17 -68 23 -45 4 -73
1 -113 -13z"/>
<path d="M4495 2757 c-4 -25 -3 -53 3 -63 19 -34 -27 -88 -58 -69 -5 3 -10 24
-10 46 0 36 -2 39 -29 39 -17 0 -31 -6 -35 -15 -4 -13 -10 -14 -26 -5 -16 9
-22 8 -26 -5 -4 -8 0 -23 7 -31 20 -25 20 -123 0 -151 -9 -12 -19 -23 -23 -23
-4 0 -19 -5 -35 -11 l-28 -12 30 -8 c25 -7 33 -5 46 12 15 20 15 20 28 -8 l13
-28 13 32 c7 17 11 41 8 52 -3 11 -3 31 1 44 4 19 11 23 29 20 19 -4 26 0 30
17 4 16 11 21 25 18 35 -10 76 41 65 80 -3 12 -1 28 4 35 6 8 3 24 -8 46 l-17
33 -7 -45z m-97 -126 c6 -37 -15 -50 -28 -17 -14 38 -13 48 8 44 9 -2 19 -14
20 -27z"/>
<path d="M5785 2790 c-3 -5 -17 -10 -31 -10 -31 0 -66 -18 -59 -30 5 -9 47 2
130 34 l40 15 -37 1 c-20 0 -40 -4 -43 -10z"/>
<path d="M4602 2773 c-15 -6 -6 -23 14 -23 8 0 14 7 14 15 0 15 -6 17 -28 8z"/>
<path d="M4700 2750 c-6 -12 -8 -34 -5 -52 4 -17 3 -33 -3 -37 -5 -3 -19 -25
-31 -48 -18 -36 -26 -43 -51 -43 -16 0 -32 5 -35 10 -11 18 -43 11 -50 -11
-13 -40 21 -149 46 -149 5 0 13 8 16 18 4 9 19 30 35 47 24 25 30 27 38 15 5
-8 10 -20 10 -26 0 -6 7 -17 15 -24 8 -7 15 -27 15 -46 0 -18 5 -36 11 -40 7
-4 10 -39 8 -98 -5 -186 4 -205 49 -101 29 69 33 175 7 225 -8 16 -15 38 -15
49 0 11 -6 35 -14 53 -36 85 -45 141 -25 154 6 3 40 7 75 8 75 3 92 14 78 53
-11 33 -41 49 -111 58 -46 6 -53 4 -63 -15z"/>
<path d="M2229 2692 c7 -13 7 -22 -1 -30 -15 -15 -3 -29 32 -36 17 -3 42 -17
56 -31 26 -26 54 -33 54 -14 0 10 -29 49 -82 107 -11 12 -31 22 -44 22 -21 0
-23 -3 -15 -18z"/>
<path d="M3766 2645 c-11 -8 -34 -15 -51 -15 -17 0 -40 -7 -51 -15 -10 -8 -35
-15 -55 -15 -20 0 -42 -7 -49 -15 -7 -8 -18 -15 -25 -15 -13 0 -81 -19 -166
-45 -26 -8 -54 -15 -63 -15 -8 0 -30 -6 -48 -14 -18 -8 -46 -19 -62 -25 l-29
-12 39 -20 c37 -18 40 -18 51 -2 7 9 13 20 13 25 0 14 22 9 35 -9 10 -13 9
-22 -7 -48 -15 -27 -16 -34 -5 -43 11 -9 19 -5 36 18 12 17 19 35 16 40 -9 15
23 80 39 80 23 0 32 -47 12 -69 -23 -25 -20 -41 8 -41 27 0 41 27 31 59 -4 12
4 30 21 50 24 29 28 31 44 16 22 -20 47 -10 66 26 18 35 41 37 56 4 9 -19 7
-29 -6 -50 -15 -23 -21 -25 -60 -20 -38 6 -44 4 -59 -18 -15 -23 -15 -26 3
-42 17 -16 19 -15 32 12 12 25 19 28 58 26 33 -2 47 2 57 17 7 10 23 21 36 23
l22 4 -23 2 c-30 1 -37 24 -22 62 18 43 49 53 79 25 l23 -21 17 25 c9 13 24
33 34 42 9 10 13 18 8 18 -5 0 -15 2 -23 5 -7 2 -22 -2 -32 -10z"/>
<path d="M4151 2636 l-23 -24 22 -7 c25 -8 25 -7 34 22 10 31 -8 36 -33 9z"/>
<path d="M5485 2579 c-8 -58 -4 -67 28 -51 12 6 34 16 50 22 31 11 33 21 11
55 -12 18 -25 25 -49 25 -32 0 -33 -1 -40 -51z"/>
<path d="M2010 2580 c0 -10 8 -35 17 -55 16 -34 16 -36 -5 -65 -22 -29 -22
-31 -6 -62 32 -63 55 -88 80 -88 13 0 24 -4 24 -10 0 -12 74 -90 86 -90 4 0
15 -7 23 -15 21 -18 80 -22 106 -8 13 7 27 8 44 1 29 -10 181 -1 181 12 0 4
-28 13 -62 20 -111 22 -132 37 -312 230 -43 47 -83 92 -90 101 -15 20 -57 49
-73 49 -7 0 -13 -9 -13 -20z m99 -169 c22 -14 4 -33 -20 -21 -11 6 -17 15 -14
21 8 11 16 11 34 0z m137 -87 c8 -33 -10 -46 -51 -38 -52 11 -59 24 -23 44 48
26 67 24 74 -6z m84 -68 c0 -8 -4 -17 -9 -21 -12 -7 -24 12 -16 25 9 15 25 12
25 -4z"/>
<path d="M4000 2590 c-12 -8 -12 -10 2 -15 19 -7 38 1 38 16 0 12 -21 11 -40
-1z"/>
<path d="M3844 2559 c-3 -6 -1 -16 4 -21 13 -13 45 8 36 23 -7 12 -31 11 -40
-2z"/>
<path d="M3942 2547 c-12 -13 -22 -28 -22 -34 0 -6 -6 -13 -14 -16 -8 -3 -16
-16 -18 -29 -2 -16 -9 -22 -22 -20 -27 5 -66 -7 -66 -19 0 -8 16 -10 45 -6 37
4 47 1 55 -14 16 -29 12 -34 -37 -49 l-48 -14 30 -8 c21 -5 34 -17 42 -38 6
-16 18 -30 26 -30 11 0 13 10 9 45 -5 47 5 57 28 30 19 -23 30 -18 30 13 0 16
-11 39 -26 55 -19 21 -23 32 -15 40 6 6 11 19 11 28 0 9 7 22 15 29 16 13 21
60 7 60 -5 0 -18 -10 -30 -23z"/>
<path d="M4145 2550 c-16 -11 -36 -24 -43 -31 -8 -6 -28 -9 -48 -6 -30 5 -35
3 -40 -19 -9 -35 -3 -37 44 -14 22 11 55 20 72 20 33 0 70 15 70 28 0 5 -6 15
-12 24 -12 14 -16 14 -43 -2z"/>
<path d="M4419 2552 c-24 -26 -30 -51 -18 -73 10 -19 12 -18 34 15 13 20 25
43 27 53 4 23 -23 26 -43 5z"/>
<path d="M4225 2550 c-8 -13 35 -13 55 0 11 7 7 10 -17 10 -17 0 -35 -4 -38
-10z"/>
<path d="M4886 2552 c-2 -4 -7 -24 -11 -44 -5 -28 -3 -38 10 -45 9 -6 19 -27
22 -51 6 -48 38 -85 53 -62 17 27 10 60 -17 88 -24 23 -28 35 -26 75 1 34 -2
47 -12 47 -8 0 -16 -3 -19 -8z"/>
<path d="M3004 2503 c-61 -65 -80 -104 -94 -198 -6 -44 -16 -94 -21 -111 -5
-17 -13 -62 -18 -100 -5 -38 -14 -82 -20 -97 -6 -16 -11 -45 -11 -66 0 -21 -7
-58 -15 -81 -8 -23 -15 -55 -15 -70 0 -15 7 -33 15 -40 8 -7 15 -29 15 -49 0
-85 66 -110 117 -43 16 20 35 55 41 77 12 43 37 209 53 355 5 47 13 105 19
130 6 25 11 66 13 91 1 26 8 53 14 60 18 22 28 156 13 174 -23 28 -58 17 -106
-32z m2 -109 c-3 -9 -6 -18 -6 -20 0 -2 -7 -4 -15 -4 -18 0 -20 26 -2 33 23
10 29 7 23 -9z m7 -84 c-13 -5 -23 -16 -23 -24 0 -22 -19 -30 -26 -11 -8 19
22 45 51 44 18 0 18 -1 -2 -9z m-45 -132 c-3 -36 -30 -46 -36 -15 -5 26 5 47
23 47 12 0 15 -8 13 -32z m-21 -122 c-9 -9 -20 -16 -26 -16 -18 0 -13 28 7 39
24 14 39 -4 19 -23z m-12 -86 c11 -18 -6 -50 -26 -50 -13 0 -19 7 -19 23 0 13
3 27 7 30 10 10 31 8 38 -3z m-28 -126 c1 -5 -2 -16 -7 -24 -9 -13 -11 -13
-19 -1 -5 8 -7 20 -4 28 6 15 25 13 30 -3z"/>
<path d="M3729 2519 c-9 -18 -7 -25 9 -41 19 -20 19 -20 30 11 7 19 18 31 29
31 15 0 16 2 3 10 -25 16 -59 11 -71 -11z"/>
<path d="M2402 2490 l-23 -30 30 0 c20 0 32 -6 36 -19 8 -25 35 -31 79 -17 35
11 48 26 24 26 -7 1 -22 15 -33 33 -16 25 -28 33 -55 35 -30 2 -39 -2 -58 -28z"/>
<path d="M6557 2504 c-9 -10 2 -24 19 -24 8 0 14 7 14 15 0 15 -21 21 -33 9z"/>
<path d="M4125 2441 c-9 -16 43 -37 62 -25 8 5 15 14 16 19 3 14 -69 19 -78 6z"/>
<path d="M2614 2420 c-48 -20 -32 -57 49 -114 15 -10 27 -26 27 -36 0 -22 -31
-54 -67 -69 -17 -7 -35 -23 -41 -37 -10 -19 -19 -24 -51 -24 -48 0 -62 -16
-27 -30 14 -5 26 -16 26 -24 0 -29 -31 -85 -63 -116 -30 -28 -35 -39 -40 -95
-3 -44 -11 -72 -26 -91 -11 -15 -21 -31 -21 -35 0 -5 24 -9 54 -9 72 0 106
-26 106 -81 0 -46 -27 -79 -65 -79 -14 0 -33 -9 -42 -20 -11 -13 -30 -20 -53
-20 -19 0 -52 -5 -73 -11 -28 -7 -59 -6 -127 5 -50 9 -106 16 -126 16 -20 0
-52 10 -72 22 -31 19 -33 23 -18 33 19 15 20 29 3 43 -18 15 -91 -10 -95 -33
-5 -21 16 -45 39 -45 11 0 24 -11 30 -24 7 -15 23 -26 43 -30 17 -3 62 -14
100 -25 53 -15 90 -18 160 -15 111 6 169 -5 174 -30 7 -35 -56 -51 -65 -17 -4
16 -9 18 -30 10 -67 -25 -279 -2 -371 42 -60 28 -70 30 -104 20 -41 -13 -58
-8 -58 15 0 21 -14 17 -38 -11 -39 -44 -60 -27 -37 29 19 44 19 100 1 115 -7
6 -16 26 -19 44 -3 17 -10 45 -17 61 -17 45 -34 17 -54 -89 -40 -207 -46 -226
-80 -240 -17 -8 -44 -30 -61 -51 -16 -20 -37 -44 -46 -53 -25 -26 -139 -177
-139 -185 0 -4 -26 -42 -58 -84 -33 -42 -70 -95 -85 -118 -14 -22 -33 -49 -44
-59 -20 -21 -39 -51 -49 -77 -3 -10 -10 -18 -15 -18 -5 0 -14 -10 -20 -23 -12
-26 -26 -51 -54 -92 -37 -55 -46 -70 -51 -87 -3 -9 -12 -19 -20 -22 -16 -6
-19 -32 -4 -41 6 -3 13 1 16 9 3 8 26 36 50 63 24 26 44 50 44 53 0 4 8 16 17
28 10 11 25 30 33 42 8 12 49 68 90 125 41 57 102 143 135 190 33 47 65 92 70
98 11 14 51 70 120 172 26 39 48 71 49 72 0 1 14 5 31 9 l29 7 -17 -26 c-9
-14 -17 -38 -17 -52 0 -21 5 -25 28 -25 15 0 38 -1 50 -1 29 0 72 27 72 45 0
8 6 16 14 19 8 3 24 26 35 51 19 45 34 56 46 36 4 -7 13 -6 27 1 30 16 124 14
151 -3 52 -34 156 -57 299 -69 166 -14 192 -9 221 42 9 17 17 45 17 63 0 18 8
43 18 54 9 12 28 36 42 52 13 17 32 30 42 30 28 0 32 26 9 49 -24 24 -29 101
-10 161 5 19 14 61 19 92 5 32 18 71 30 88 11 16 20 35 19 42 -3 27 2 39 34
75 65 76 76 130 32 159 -21 13 -25 24 -25 63 0 84 -40 119 -106 91z m-95 -552
c11 -27 -9 -54 -33 -45 -16 6 -22 48 -9 60 13 14 34 6 42 -15z m-849 -332 c0
-8 -4 -18 -10 -21 -5 -3 -10 3 -10 14 0 12 5 21 10 21 6 0 10 -6 10 -14z m-2
-177 c-2 -6 -8 -10 -13 -10 -5 0 -11 4 -13 10 -2 6 4 11 13 11 9 0 15 -5 13
-11z"/>
<path d="M3720 2423 c-34 -3 -50 -9 -106 -35 l-26 -12 26 -21 c35 -28 35 -65
1 -65 -14 0 -25 -4 -25 -10 0 -5 9 -10 20 -10 11 0 29 -6 40 -12 17 -11 22
-10 30 2 13 21 12 64 -2 78 -9 9 -8 12 5 12 10 0 20 7 24 16 3 8 16 20 29 25
13 4 24 15 24 24 0 8 -1 14 -2 13 -2 0 -19 -3 -38 -5z"/>
<path d="M4341 2397 c-24 -24 -5 -67 31 -67 9 0 23 -10 29 -22 7 -13 18 -27
25 -31 23 -13 16 -25 -21 -37 -54 -18 -47 -33 20 -44 l41 -7 -1 81 c0 78 -1
81 -30 98 -58 34 -82 41 -94 29z"/>
<path d="M3210 2375 c-7 -8 -9 -22 -6 -31 5 -14 9 -13 31 8 14 12 25 26 25 31
0 13 -37 7 -50 -8z"/>
<path d="M3478 2363 c-14 -2 -32 -11 -38 -19 -7 -8 -23 -14 -36 -14 -30 0 -42
-20 -15 -27 23 -6 27 -23 10 -40 -16 -16 -7 -57 15 -61 10 -2 22 2 26 9 5 7
32 20 62 30 39 12 46 17 27 18 -15 1 -41 7 -58 14 l-30 13 22 19 c12 11 31 22
42 25 20 6 28 32 10 35 -5 1 -22 0 -37 -2z"/>
<path d="M4590 2347 c0 -2 11 -18 25 -37 17 -23 25 -28 25 -17 0 9 -9 26 -20
37 -18 18 -30 25 -30 17z"/>
<path d="M4167 2333 c-12 -11 -8 -33 6 -33 7 0 18 9 25 20 10 17 10 20 -6 20
-10 0 -22 -3 -25 -7z"/>
<path d="M3727 2323 c-22 -6 -12 -23 14 -23 10 0 19 7 19 15 0 15 -2 16 -33 8z"/>
<path d="M3236 2284 c-9 -8 -16 -29 -16 -45 0 -16 -8 -41 -17 -56 -16 -25 -16
-26 6 -44 38 -31 49 -24 57 39 3 31 15 69 25 84 11 14 19 29 19 32 0 13 -59 5
-74 -10z"/>
<path d="M4014 2274 c3 -9 6 -18 6 -20 0 -3 5 -2 10 1 16 10 12 35 -6 35 -11
0 -14 -5 -10 -16z"/>
<path d="M4912 2264 c1 -9 9 -19 16 -22 9 -3 13 2 10 14 -1 9 -9 19 -16 22 -9
3 -13 -2 -10 -14z"/>
<path d="M1467 2240 c-7 -31 14 -100 38 -130 7 -8 16 -32 19 -54 4 -21 18 -63
32 -94 13 -30 24 -65 24 -77 0 -15 15 -36 42 -58 36 -30 44 -33 56 -21 7 8 17
12 22 9 5 -3 11 -1 14 4 6 9 -15 52 -70 146 -13 22 -27 47 -30 55 -4 8 -17 29
-29 45 -12 17 -26 46 -30 65 -4 19 -14 43 -23 53 -9 10 -21 32 -27 50 -14 41
-31 45 -38 7z"/>
<path d="M5391 2251 c-26 -26 -29 -66 -5 -57 9 4 23 1 31 -6 12 -10 18 -9 30
7 36 51 -13 99 -56 56z"/>
<path d="M4592 2249 c2 -6 8 -10 13 -10 5 0 11 4 13 10 2 6 -4 11 -13 11 -9 0
-15 -5 -13 -11z"/>
<path d="M5666 2243 c-4 -12 -13 -24 -21 -27 -28 -10 -15 -26 21 -26 32 0 35
2 28 23 -13 44 -21 52 -28 30z"/>
<path d="M4290 2206 c-20 -13 -60 -27 -90 -31 -30 -4 -62 -13 -70 -20 -17 -14
-60 -24 -132 -29 -26 -2 -57 -11 -70 -20 -12 -9 -42 -16 -65 -16 -24 0 -43 -4
-43 -10 0 -5 -30 -19 -67 -30 -37 -11 -79 -28 -92 -37 -15 -9 -36 -13 -56 -10
-25 4 -38 1 -51 -14 -13 -15 -29 -19 -62 -17 -33 1 -47 -3 -54 -15 -10 -19
-53 -23 -63 -6 -5 7 -15 3 -30 -11 -19 -18 -31 -21 -57 -16 -23 4 -41 1 -56
-10 -15 -10 -32 -14 -49 -9 -19 4 -31 0 -45 -14 -10 -12 -29 -21 -41 -21 -21
0 -21 -1 5 -27 27 -27 28 -27 63 -10 20 9 44 17 53 17 10 0 27 7 39 15 11 8
39 17 61 21 35 5 44 3 67 -20 40 -41 125 -33 125 11 0 8 -12 13 -30 13 -40 0
-38 16 3 23 17 3 44 9 60 12 23 6 27 4 27 -15 0 -22 1 -22 18 -7 12 11 42 18
90 20 81 4 108 21 143 88 18 36 36 49 65 49 8 0 27 9 42 19 56 41 107 0 67
-53 -8 -11 -15 -28 -15 -39 0 -10 -8 -32 -17 -48 -13 -22 -14 -32 -6 -40 9 -9
16 -9 28 1 16 13 58 11 160 -9 66 -13 362 -14 370 -1 6 10 -5 13 -105 29 -36
6 -96 15 -133 21 -38 6 -93 20 -123 31 -59 22 -117 65 -108 80 8 14 96 10 124
-6 14 -8 39 -15 55 -15 17 0 39 -7 49 -15 11 -8 34 -15 51 -15 17 0 36 -5 42
-11 6 -6 26 -14 44 -19 19 -4 50 -14 69 -21 59 -20 64 -22 108 -34 23 -7 42
-10 42 -8 0 3 -13 24 -29 47 -28 40 -34 44 -88 50 -76 9 -267 52 -321 72 -24
9 -41 21 -39 28 6 18 74 19 125 2 25 -9 62 -16 81 -16 20 0 56 -7 80 -16 45
-15 91 -12 91 6 0 6 -11 10 -25 10 -14 0 -43 9 -65 20 -22 11 -52 20 -67 20
-15 0 -39 9 -52 19 l-24 18 32 11 c28 10 31 14 21 32 -13 25 -16 24 -60 -4z"/>
<path d="M3696 2207 c-17 -12 -16 -14 8 -25 27 -12 42 -2 32 23 -7 18 -17 19
-40 2z"/>
<path d="M4940 2181 c0 -35 13 -47 30 -26 16 19 9 49 -13 53 -13 3 -17 -3 -17
-27z"/>
<path d="M3570 2170 c-10 -7 -11 -10 -2 -10 7 0 18 -11 24 -25 13 -29 28 -17
28 23 0 24 -23 29 -50 12z"/>
<path d="M1760 2141 c0 -5 7 -15 16 -22 9 -7 31 -37 50 -66 21 -33 41 -53 53
-53 25 0 37 -17 45 -64 5 -24 20 -51 39 -70 17 -17 31 -39 32 -48 1 -10 4 -19
6 -21 7 -6 123 -36 160 -42 21 -3 49 -15 64 -27 26 -20 28 -20 55 -5 15 10 38
17 49 17 12 0 21 5 21 10 0 6 -7 10 -15 10 -37 0 -49 104 -15 135 29 27 25 35
-19 35 -45 0 -57 -17 -39 -55 16 -36 -3 -75 -37 -75 -28 0 -32 17 -14 70 13
36 2 51 -31 43 -10 -3 -39 7 -64 21 -26 14 -52 26 -59 26 -7 0 -25 16 -40 35
-15 19 -36 35 -45 35 -19 0 -82 61 -101 98 -10 18 -20 22 -61 22 -28 0 -50 -4
-50 -9z m290 -231 c11 0 19 -36 10 -50 -10 -16 -40 -9 -53 11 -14 22 -1 53 19
45 9 -3 19 -6 24 -6z"/>
<path d="M3455 2141 c-7 -12 29 -33 39 -24 3 3 6 12 6 20 0 15 -36 18 -45 4z"/>
<path d="M5040 2121 c0 -12 5 -21 10 -21 6 0 10 6 10 14 0 8 -4 18 -10 21 -5
3 -10 -3 -10 -14z"/>
<path d="M5211 2104 c-11 -31 -11 -38 3 -52 15 -15 16 -12 16 36 0 29 -1 52
-3 52 -2 0 -9 -16 -16 -36z"/>
<path d="M5453 2119 c-18 -12 -33 -26 -33 -33 0 -13 -53 -56 -70 -56 -5 0 -10
-13 -10 -30 0 -16 4 -30 9 -30 5 0 27 20 49 45 23 26 48 45 60 45 23 0 42 27
42 59 0 26 -7 26 -47 0z"/>
<path d="M6380 2136 c0 -2 18 -6 40 -8 22 -2 40 0 40 4 0 5 -18 8 -40 8 -22 0
-40 -2 -40 -4z"/>
<path d="M3350 2110 c-22 -6 -23 -8 -7 -15 20 -8 47 0 47 15 0 11 -4 11 -40 0z"/>
<path d="M3596 2085 c-3 -9 0 -15 9 -15 16 0 20 16 6 24 -5 3 -11 -1 -15 -9z"/>
<path d="M3255 2080 c-19 -7 -19 -8 -2 -15 10 -4 23 -3 29 3 14 14 -3 21 -27
12z"/>
<path d="M4880 2006 c0 -14 11 -38 25 -53 21 -24 24 -25 25 -9 0 32 -23 86
-37 86 -7 0 -13 -11 -13 -24z"/>
<path d="M4966 2014 c-8 -21 43 -89 57 -75 7 7 4 23 -8 51 -19 42 -38 51 -49
24z"/>
<path d="M5705 1908 c-10 -37 -2 -59 12 -33 6 11 7 29 3 40 -7 18 -8 18 -15
-7z"/>
<path d="M4760 1896 c0 -15 18 -31 26 -23 7 7 -7 37 -17 37 -5 0 -9 -6 -9 -14z"/>
<path d="M4660 1866 c0 -8 8 -21 18 -28 21 -16 56 -87 47 -96 -3 -4 -45 -12
-93 -18 l-87 -12 108 -1 107 -1 0 38 c0 27 -8 48 -31 75 -37 45 -69 65 -69 43z"/>
<path d="M5127 1848 c-3 -12 -2 -29 3 -37 8 -14 9 -13 10 3 0 11 7 28 17 38
15 17 15 18 -4 18 -13 0 -23 -8 -26 -22z"/>
<path d="M3343 1828 c-25 -28 -43 -62 -43 -81 0 -7 17 -32 38 -54 21 -22 43
-55 48 -73 5 -18 14 -35 20 -37 19 -6 23 36 8 72 -8 19 -14 60 -14 92 0 70 -8
103 -24 103 -7 0 -22 -10 -33 -22z"/>
<path d="M3895 1837 c-11 -6 -42 -17 -70 -23 -112 -27 -129 -34 -166 -70 -22
-21 -39 -44 -39 -50 0 -7 -6 -25 -14 -41 -43 -87 -72 -263 -61 -377 4 -51 12
-79 20 -83 8 -2 24 -26 35 -51 12 -26 26 -54 31 -62 5 -8 13 -24 18 -36 11
-25 65 -72 106 -91 51 -24 77 -41 86 -54 6 -11 12 -10 26 4 18 15 23 15 83 -4
79 -24 90 -34 97 -87 4 -33 2 -43 -11 -48 -18 -7 -92 34 -127 70 -34 36 -56
33 -62 -6 -3 -18 -8 -43 -12 -55 -6 -18 -3 -23 11 -23 21 0 137 -55 177 -84
16 -12 27 -29 27 -44 0 -22 -3 -24 -29 -19 -16 3 -48 19 -72 35 -82 54 -125
76 -142 69 -31 -12 -19 -44 26 -67 42 -22 99 -64 147 -107 14 -13 28 -23 32
-23 15 0 38 -33 38 -56 0 -38 -21 -29 -89 40 -34 35 -83 74 -108 87 -75 40
-85 47 -94 61 -6 10 -11 10 -20 1 -10 -10 -9 -14 4 -19 9 -3 17 -12 17 -20 0
-8 9 -14 20 -14 11 0 20 -7 20 -15 0 -8 7 -15 16 -15 9 0 18 -9 21 -20 3 -11
13 -20 22 -20 33 0 181 -141 181 -173 0 -12 7 -33 16 -45 9 -13 14 -32 11 -43
-3 -10 -2 -19 2 -19 4 0 14 -18 21 -40 7 -22 19 -45 27 -51 7 -6 13 -17 13
-24 0 -7 6 -18 14 -24 7 -6 16 -26 20 -43 3 -17 11 -37 17 -45 15 -18 58 -17
65 2 4 8 12 15 20 15 16 0 17 10 5 43 -13 33 -3 67 19 67 9 0 47 -29 84 -66
39 -39 71 -62 78 -58 12 8 -184 204 -203 204 -6 0 -9 -10 -7 -21 2 -15 -4 -24
-19 -30 -30 -11 -51 10 -58 59 -3 20 -11 52 -17 71 -12 38 -16 86 -22 241 -5
112 -14 303 -21 410 -2 36 -9 85 -15 110 -6 25 -11 50 -10 55 9 82 17 342 11
348 -5 5 -12 -8 -15 -28 -6 -29 -12 -37 -36 -41 -23 -5 -29 -13 -35 -40 -3
-19 -3 -39 0 -44 11 -18 -15 -50 -40 -50 -36 0 -39 -17 -5 -29 28 -9 30 -13
30 -63 0 -71 -9 -98 -30 -98 -20 0 -35 15 -45 48 -3 12 -17 34 -30 48 l-23 25
-35 -36 c-19 -19 -41 -35 -49 -35 -19 0 -51 34 -41 44 4 4 2 10 -4 14 -31 20
-84 99 -97 146 -21 71 -20 81 6 117 23 30 23 31 4 45 -19 14 -19 15 -1 51 10
21 21 58 24 83 6 44 7 45 61 63 53 18 74 33 64 49 -5 8 31 30 38 22 3 -2 11 2
18 11 7 8 18 15 25 15 16 0 75 48 75 61 0 13 -31 11 -55 -4z m110 -811 c47
-17 68 -58 42 -84 -14 -13 -20 -14 -44 -3 -15 7 -65 16 -110 19 -93 5 -108 19
-77 67 16 25 20 26 83 21 36 -3 84 -12 106 -20z"/>
<path d="M4490 1820 c-19 -5 -129 -13 -245 -20 -116 -6 -230 -17 -255 -24 -25
-8 -57 -17 -72 -20 -16 -4 -28 -11 -28 -16 0 -15 113 -12 135 4 13 8 68 15
160 19 77 4 160 12 185 18 25 6 85 14 134 18 58 4 91 10 94 19 4 14 -51 15
-108 2z"/>
<path d="M4827 1784 c-4 -4 -7 -18 -7 -31 0 -18 5 -24 18 -21 10 2 17 12 17
27 0 24 -15 37 -28 25z"/>
<path d="M4096 1722 c-32 -14 3 -21 100 -21 92 0 169 17 83 18 -25 1 -73 3
-105 6 -32 3 -68 1 -78 -3z"/>
<path d="M4823 1694 c-4 -11 7 -27 33 -49 45 -38 55 -30 25 19 -25 40 -49 52
-58 30z"/>
<path d="M3221 1663 c-11 -16 -26 -34 -32 -41 -17 -21 -59 -101 -59 -115 0 -7
-14 -39 -30 -72 -17 -33 -30 -68 -30 -77 0 -17 1 -18 25 -2 21 14 25 22 20 45
-4 18 -2 29 4 29 16 0 51 61 51 87 0 12 6 26 14 30 20 11 62 74 69 106 10 37
-8 42 -32 10z"/>
<path d="M5787 1680 c-8 -19 -30 -164 -32 -210 -1 -19 -5 -43 -9 -52 -4 -9 -5
-22 -1 -28 3 -5 1 -10 -5 -10 -22 0 -1 -83 27 -108 14 -13 27 -21 29 -19 2 1
0 28 -5 58 -7 45 -6 58 9 79 9 14 20 50 22 80 3 30 8 62 12 71 4 10 0 23 -10
33 -9 9 -20 40 -24 69 -4 29 -9 45 -13 37z"/>
<path d="M5031 1611 c-14 -26 -3 -45 18 -31 11 6 12 14 4 32 l-10 23 -12 -24z"/>
<path d="M4699 1600 c-9 -5 -164 -12 -344 -15 -241 -5 -335 -10 -354 -19 -14
-7 -44 -16 -66 -20 -22 -4 -53 -11 -70 -16 -16 -5 -57 -13 -90 -16 -85 -10
-39 -22 87 -23 85 -1 99 -3 108 -20 5 -11 10 -29 10 -40 0 -36 19 -23 22 16 3
32 7 38 35 45 25 6 32 14 35 36 5 40 40 42 68 2 18 -25 27 -30 44 -25 11 4 66
11 121 15 55 5 147 14 205 20 58 6 138 9 179 8 l75 -3 -3 -65 c-2 -36 -4 -100
-6 -144 -1 -63 -5 -80 -19 -88 -9 -5 -23 -7 -31 -4 -8 3 -39 -4 -69 -15 -31
-10 -75 -22 -97 -24 -23 -3 -49 -10 -59 -15 -10 -6 -24 -10 -30 -10 -23 0 -40
69 -40 160 0 65 -3 90 -12 90 -7 0 -40 -10 -73 -21 -42 -14 -73 -18 -102 -14
-27 4 -44 2 -48 -6 -4 -6 -8 -54 -9 -105 -1 -91 0 -94 22 -94 12 0 48 14 79
30 31 17 62 30 69 30 24 0 47 -47 41 -82 -8 -45 24 -124 50 -121 67 5 171 27
184 39 8 8 37 17 62 20 l47 7 0 -39 c0 -22 12 -70 25 -109 14 -38 25 -89 25
-113 0 -37 -3 -44 -27 -53 l-28 -11 25 -13 c14 -8 33 -33 44 -61 l19 -47 -29
-24 c-16 -13 -39 -26 -51 -29 -13 -4 -23 -10 -23 -14 0 -5 -17 -19 -37 -31
-21 -13 -39 -27 -41 -31 -2 -4 -16 -8 -30 -8 -37 0 -60 -15 -37 -24 10 -3 15
-15 14 -28 -3 -24 16 -68 30 -68 4 0 18 9 31 20 13 11 26 20 29 20 3 0 26 29
51 65 69 99 96 96 85 -10 -7 -67 -18 -85 -49 -85 -13 0 -33 -11 -46 -25 -13
-14 -29 -25 -36 -25 -7 0 -19 -9 -27 -20 -9 -13 -20 -18 -31 -14 -12 4 -16 1
-16 -14 0 -32 18 -36 69 -14 25 11 75 31 110 44 43 16 66 30 72 45 4 12 6 91
3 175 -11 358 -11 408 3 420 15 12 18 48 3 48 -5 0 -14 -9 -20 -21 -6 -11 -17
-18 -23 -16 -9 3 -11 66 -9 243 2 199 0 249 -14 302 -15 56 -19 62 -43 62 -14
0 -33 -5 -42 -10z m-194 -449 c7 -12 -32 -34 -45 -26 -6 3 -10 13 -10 21 0 16
45 20 55 5z"/>
<path d="M5660 1559 c-13 -23 1 -49 26 -49 15 0 34 30 34 54 0 24 -47 20 -60
-5z"/>
<path d="M4860 1547 c0 -14 41 -57 53 -57 15 0 6 28 -16 48 -27 25 -37 28 -37
9z"/>
<path d="M5005 1529 c-10 -31 12 -49 24 -18 5 13 7 27 4 32 -8 14 -22 7 -28
-14z"/>
<path d="M5512 1419 c2 -6 8 -10 13 -10 5 0 11 4 13 10 2 6 -4 11 -13 11 -9 0
-15 -5 -13 -11z"/>
<path d="M6386 1398 c-9 -17 -16 -37 -16 -43 0 -7 -9 -15 -20 -18 -14 -3 -20
-14 -20 -32 0 -33 20 -29 38 8 7 14 21 29 32 32 11 4 20 13 20 22 0 9 7 21 17
28 19 14 9 35 -17 35 -11 0 -25 -13 -34 -32z"/>
<path d="M4865 1376 c-19 -14 -19 -16 -3 -43 20 -33 45 -33 88 -1 44 32 41 37
-35 53 -19 3 -38 0 -50 -9z"/>
<path d="M1807 1333 c-16 -3 -31 -12 -34 -21 -4 -9 -15 -23 -25 -30 -10 -7
-18 -24 -18 -36 0 -13 -7 -26 -15 -30 -36 -13 -2 -79 50 -96 18 -6 41 -20 50
-30 26 -28 85 -27 112 3 67 73 100 176 74 225 -11 20 -19 22 -89 21 -42 -1
-90 -4 -105 -6z m103 -60 c-1 -36 -31 -103 -58 -127 -21 -18 -22 -18 -29 0 -4
10 -2 19 5 22 7 2 12 16 12 32 0 15 6 33 14 39 8 7 17 23 20 36 9 35 36 32 36
-2z m-90 -33 c0 -5 -7 -10 -15 -10 -8 0 -15 5 -15 10 0 6 7 10 15 10 8 0 15
-4 15 -10z m-60 -62 c0 -5 -4 -8 -10 -8 -5 0 -10 10 -10 23 0 18 2 19 10 7 5
-8 10 -18 10 -22z"/>
<path d="M5984 1308 c-4 -13 -17 -36 -30 -51 -13 -16 -24 -35 -24 -44 0 -8
-10 -29 -22 -45 -38 -55 4 -25 55 37 35 44 47 68 47 92 0 38 -15 44 -26 11z"/>
<path d="M4460 1300 c-12 -8 -9 -10 13 -10 16 0 26 4 22 10 -8 12 -16 12 -35
0z"/>
<path d="M4965 1279 c-11 -4 -36 -8 -56 -8 -39 -1 -54 -18 -38 -42 5 -8 9 -47
9 -87 l0 -73 22 15 c12 9 37 16 55 16 17 0 35 5 39 11 10 16 -17 30 -46 25
-14 -3 -32 0 -40 5 -12 8 -11 13 10 29 28 22 60 26 78 8 9 -9 21 -8 52 1 22 6
40 14 40 17 0 11 -56 66 -80 78 -15 8 -33 10 -45 5z"/>
<path d="M5120 1131 c0 -4 -13 -23 -29 -42 -37 -42 -45 -68 -23 -76 11 -5 31
10 64 46 39 42 46 56 37 67 -13 15 -49 19 -49 5z"/>
<path d="M4209 1107 c-32 -9 -38 -15 -43 -45 -8 -50 6 -68 58 -75 25 -4 67
-20 94 -37 27 -16 53 -30 59 -30 16 0 63 -55 63 -73 0 -32 -31 -30 -104 7 -40
20 -77 36 -83 36 -5 0 -24 7 -42 16 -18 9 -34 14 -37 11 -11 -11 20 -139 35
-144 17 -5 66 -28 91 -42 8 -4 33 -16 55 -27 22 -10 50 -31 63 -46 13 -15 30
-28 38 -28 8 0 14 -7 14 -15 0 -8 7 -15 15 -15 8 0 15 5 15 10 0 6 -4 10 -10
10 -5 0 -10 7 -10 15 0 19 48 31 71 17 13 -9 20 -8 29 3 18 22 57 19 63 -5 7
-28 22 -25 47 10 14 19 30 30 46 30 31 0 31 18 0 26 -23 5 -56 42 -69 77 -5
14 -15 18 -41 16 -19 -2 -55 6 -83 18 -26 12 -56 24 -65 27 -10 3 -20 18 -24
33 -12 56 -27 83 -58 103 -17 11 -42 36 -56 56 -54 78 -61 81 -131 61z m401
-391 c0 -33 -16 -42 -30 -16 -12 23 -6 40 16 40 8 0 14 -10 14 -24z"/>
<path d="M2167 1092 c-10 -10 -17 -30 -17 -44 0 -16 -9 -32 -25 -42 -32 -21
-38 -20 -85 9 -22 14 -53 25 -70 25 -26 0 -30 -3 -30 -29 0 -22 11 -39 45 -69
25 -22 45 -42 45 -46 0 -3 -20 -24 -45 -47 -25 -23 -45 -50 -45 -60 0 -14 -7
-19 -29 -19 -25 0 -31 -6 -41 -36 -10 -30 -10 -39 3 -52 13 -13 19 -13 31 -2
9 7 16 18 16 26 0 20 22 64 32 64 12 0 57 50 74 82 7 14 28 36 45 49 17 12 44
40 61 63 16 22 39 43 51 47 16 4 21 11 19 27 -2 12 2 22 7 22 6 0 11 11 11 25
0 30 -29 34 -53 7z"/>
<path d="M5225 1065 c22 -21 35 -41 31 -50 -6 -17 -91 -72 -125 -82 -15 -3
-36 1 -56 11 -31 17 -34 17 -73 -3 -23 -12 -50 -21 -60 -21 -30 0 -44 -23 -28
-45 13 -18 15 -18 60 -1 26 10 50 16 53 12 8 -8 -39 -56 -57 -56 -25 -1 -65
-39 -53 -51 7 -7 15 -5 26 5 9 9 25 16 36 16 11 0 24 6 28 13 4 6 24 19 43 28
19 9 96 46 170 83 74 36 145 66 158 66 19 0 22 -5 22 -35 0 -22 -6 -38 -15
-41 -8 -4 -15 -17 -15 -30 0 -14 -7 -27 -17 -31 -10 -4 -31 -16 -48 -27 -16
-12 -39 -26 -50 -33 -133 -80 -169 -106 -227 -164 -37 -37 -76 -73 -87 -79
-17 -9 -21 -20 -21 -61 0 -46 2 -50 22 -47 16 2 27 15 38 48 12 35 26 52 65
78 54 35 95 42 95 16 0 -26 -29 -68 -63 -92 -18 -12 -49 -38 -70 -56 -21 -19
-41 -36 -46 -38 -5 -2 -17 -21 -27 -43 -17 -36 -23 -40 -60 -43 l-41 -3 5 -88
c3 -51 0 -95 -6 -107 -7 -14 -7 -24 3 -37 16 -22 34 -22 42 1 3 9 17 32 30 50
17 23 22 39 17 55 -6 19 -5 20 9 8 14 -11 18 -11 24 5 4 11 33 49 65 85 84 95
71 107 -18 16 -41 -42 -80 -75 -85 -72 -5 4 -9 17 -9 30 0 25 39 65 235 245
44 40 122 113 173 161 51 49 100 89 109 89 11 0 14 6 9 25 -5 20 -3 25 13 25
21 0 61 44 61 66 0 8 -7 14 -15 14 -8 0 -15 -9 -15 -20 0 -27 -14 -25 -34 5
-19 29 -20 48 -3 76 10 17 9 22 -6 30 -10 6 -22 21 -27 34 -6 16 -24 28 -58
39 -27 9 -66 25 -88 36 -21 11 -47 20 -58 20 -15 0 -12 -7 19 -35z m35 -373
c0 -13 -82 -82 -97 -82 -6 0 -15 5 -18 10 -3 6 1 10 9 10 8 0 20 9 26 20 6 11
17 20 24 20 8 0 19 7 26 15 14 16 30 20 30 7z"/>
<path d="M5920 1015 c-7 -8 -21 -15 -31 -15 -11 0 -19 -4 -19 -10 0 -13 10
-13 48 1 17 6 33 17 36 25 7 19 -18 18 -34 -1z"/>
<path d="M4925 1001 c-3 -5 -1 -12 5 -16 14 -9 52 4 45 16 -8 12 -42 12 -50 0z"/>
<path d="M2313 944 c-26 -20 -94 -82 -150 -137 -56 -55 -106 -103 -110 -106
-4 -3 -26 -28 -48 -55 -21 -27 -50 -61 -63 -75 -13 -14 -27 -33 -31 -42 -3 -9
-16 -29 -29 -45 -12 -16 -42 -57 -66 -90 -32 -45 -58 -68 -93 -85 -26 -12 -51
-27 -54 -32 -7 -9 -40 -30 -75 -46 -20 -9 -78 -65 -172 -165 -51 -54 -78 -61
-202 -52 -59 5 -90 4 -95 -3 -4 -8 63 -11 221 -11 l228 0 60 59 c34 32 93 90
131 127 68 67 94 88 125 99 8 4 24 19 35 35 24 33 93 85 255 191 164 108 184
119 213 119 14 0 28 4 31 8 3 5 44 12 90 15 47 3 95 11 106 17 20 11 40 15
170 39 25 5 72 14 105 21 61 12 168 7 189 -9 6 -4 23 -11 39 -15 15 -3 27 -11
27 -16 0 -6 5 -10 11 -10 5 0 30 -15 53 -32 24 -18 54 -40 66 -48 12 -8 28
-21 35 -27 7 -7 39 -28 72 -47 54 -32 141 -109 188 -166 32 -38 59 -87 120
-210 31 -63 60 -122 64 -130 13 -24 58 -25 71 -1 14 26 26 26 47 1 12 -13 30
-20 55 -20 34 0 51 13 31 22 -5 1 -19 26 -32 53 -13 28 -35 65 -48 83 -13 18
-27 49 -30 70 -8 59 -31 99 -73 129 -38 27 -67 77 -50 88 13 8 69 -6 81 -21 6
-8 17 -14 23 -14 6 0 24 -14 40 -30 16 -17 39 -30 51 -30 14 0 37 -17 61 -45
21 -25 42 -45 46 -45 12 0 10 38 -3 45 -5 4 -14 18 -19 31 -6 16 -32 34 -75
55 -35 16 -67 34 -70 40 -4 5 -17 9 -29 9 -13 0 -30 7 -37 16 -9 11 -23 14
-46 11 -18 -3 -33 -2 -33 3 0 4 -16 17 -35 29 -41 24 -44 46 -10 73 24 19 34
48 16 48 -5 0 -28 -7 -51 -15 -55 -20 -95 -19 -126 2 -18 11 -49 17 -98 18
-76 1 -123 18 -187 67 -20 16 -42 28 -47 28 -6 0 -23 11 -39 24 -28 23 -175
93 -267 126 -74 26 -235 44 -283 31 -52 -15 -47 -16 -96 34 -40 40 -50 45 -90
45 -37 0 -55 -7 -94 -36z m189 -114 c10 -15 20 -18 53 -14 44 5 94 -5 96 -21
2 -13 -55 -44 -109 -61 -41 -13 -43 -13 -37 6 12 39 -6 39 -47 -1 -22 -21 -52
-42 -67 -45 -37 -7 -109 -41 -157 -74 -22 -15 -53 -30 -69 -34 -15 -4 -48 -21
-72 -37 -42 -29 -72 -35 -76 -14 -1 6 8 11 20 13 11 2 33 20 47 41 38 54 95
100 171 135 22 10 47 23 55 27 8 4 33 17 56 29 22 11 51 31 64 45 28 30 55 32
72 5z m1327 -701 c13 -37 5 -55 -15 -38 -15 13 -19 69 -5 69 5 0 14 -14 20
-31z"/>
<path d="M5725 971 c-56 -8 -31 -18 34 -13 36 3 49 7 40 13 -8 5 -18 8 -24 7
-5 0 -28 -4 -50 -7z"/>
<path d="M3219 934 c-32 -14 -67 -59 -55 -71 8 -8 65 27 76 47 13 24 45 26 54
5 3 -9 18 -15 40 -15 19 0 41 -7 50 -15 16 -17 151 -22 160 -6 3 5 -17 16 -45
25 -128 42 -226 52 -280 30z"/>
<path d="M5575 939 c-4 -5 -18 -14 -31 -19 -13 -5 -24 -14 -24 -20 0 -13 37
-13 45 1 4 5 18 14 32 20 13 5 21 13 18 19 -8 13 -32 13 -40 -1z"/>
<path d="M1553 917 c-18 -10 -33 -25 -33 -32 0 -7 -7 -18 -15 -25 -11 -9 -15
-32 -15 -80 0 -72 1 -73 80 -105 8 -3 26 -12 40 -20 40 -24 70 -18 105 20 50
52 75 112 75 178 0 71 -12 78 -124 81 -64 2 -88 -2 -113 -17z m117 -81 c0 -54
-33 -116 -61 -116 -16 0 -18 5 -13 28 4 15 13 41 21 59 7 18 13 42 13 53 0 13
7 20 20 20 17 0 20 -7 20 -44z m-92 -24 c2 -7 -3 -12 -12 -12 -9 0 -16 7 -16
16 0 17 22 14 28 -4z"/>
<path d="M3617 819 c-10 -11 -31 -22 -48 -26 -34 -6 -54 -32 -64 -80 -7 -37
-5 -38 50 -19 52 18 95 70 95 113 0 37 -7 40 -33 12z"/>
<path d="M6217 833 l-88 -4 -47 -48 c-95 -96 -108 -117 -104 -156 4 -31 -1
-41 -32 -71 -20 -19 -36 -39 -36 -44 0 -18 23 -22 61 -10 38 13 65 53 61 90
-4 43 79 170 129 196 21 10 68 14 188 14 148 0 202 9 148 24 -31 9 -176 14
-280 9z"/>
<path d="M4958 741 c-38 -13 -48 -21 -48 -38 0 -30 15 -29 59 5 20 16 45 34
56 40 20 11 20 11 0 10 -11 0 -41 -8 -67 -17z"/>
<path d="M6864 705 c-8 -19 -6 -20 24 -29 29 -9 31 19 2 34 -16 9 -22 8 -26
-5z"/>
<path d="M4195 633 c4 -38 9 -71 11 -75 3 -4 29 -18 59 -33 30 -14 55 -29 55
-33 0 -4 18 -15 40 -26 21 -10 41 -25 44 -32 3 -8 12 -14 20 -14 8 0 16 -5 18
-11 2 -7 12 -7 31 0 24 9 27 15 21 38 -8 34 -41 62 -71 63 -28 0 -31 27 -6 45
16 12 16 15 -7 34 -24 19 -201 111 -215 111 -3 0 -3 -30 0 -67z"/>
<path d="M5747 680 c-9 -11 -14 -20 -11 -20 9 0 64 30 64 35 0 13 -38 2 -53
-15z"/>
<path d="M6955 651 c-6 -11 54 -71 73 -71 24 0 11 35 -21 58 -37 25 -43 26
-52 13z"/>
<path d="M5618 607 c-31 -18 -67 -41 -80 -52 -13 -11 -41 -31 -63 -45 -22 -13
-45 -29 -51 -35 -6 -5 -51 -41 -99 -80 -48 -38 -103 -85 -122 -102 -18 -18
-38 -33 -43 -33 -16 0 -12 20 5 26 8 4 15 12 15 20 0 8 7 14 15 14 8 0 15 7
15 15 0 8 -7 15 -15 15 -8 0 -15 -7 -15 -15 0 -8 -5 -15 -10 -15 -13 0 -100
-86 -100 -99 0 -5 -6 -16 -12 -23 -7 -7 -44 -49 -83 -93 -38 -44 -77 -85 -85
-92 -13 -11 -12 -12 8 -13 12 0 22 5 22 11 0 5 5 7 10 4 6 -3 25 9 43 27 18
18 62 57 98 85 35 29 82 70 104 90 62 58 232 195 272 219 19 12 47 31 61 43
15 12 62 49 105 82 42 34 77 65 77 70 0 13 -9 10 -72 -24z"/>
<path d="M6560 616 c-3 -3 -39 -10 -80 -16 -76 -11 -90 -14 -280 -71 -108 -32
-185 -64 -208 -86 -7 -7 -22 -13 -32 -13 -10 0 -22 -4 -25 -10 -3 -5 -12 -10
-20 -10 -16 0 -84 -42 -85 -52 0 -5 6 -8 14 -8 24 0 27 -31 6 -57 -11 -14 -20
-31 -20 -38 0 -6 -11 -17 -25 -23 -32 -15 -32 -31 0 -24 29 5 75 55 75 82 0
37 14 52 69 77 31 13 70 30 86 38 17 7 66 25 110 40 44 14 84 30 90 35 5 4 26
11 45 15 19 4 41 11 50 16 33 17 155 49 190 49 48 0 135 29 122 42 -11 11 -75
22 -82 14z"/>
<path d="M4530 585 c7 -8 17 -15 22 -15 6 0 5 7 -2 15 -7 8 -17 15 -22 15 -6
0 -5 -7 2 -15z"/>
<path d="M2930 583 c0 -10 66 -53 80 -53 5 0 10 -4 10 -10 0 -17 57 -12 64 6
9 24 9 24 -27 24 -21 0 -41 8 -52 20 -17 19 -75 29 -75 13z"/>
<path d="M6732 567 c-31 -14 -28 -24 11 -32 17 -4 35 -12 39 -18 8 -14 38 9
38 30 0 22 26 26 59 9 19 -10 32 -12 36 -6 3 6 17 10 31 10 13 0 24 5 24 11 0
13 -206 10 -238 -4z"/>
<path d="M7050 564 c0 -10 64 -64 77 -64 6 0 16 -6 20 -13 4 -7 22 -23 38 -36
53 -40 119 -95 151 -126 52 -51 122 -105 133 -105 6 0 11 -4 11 -9 0 -5 10
-12 23 -16 36 -10 147 -68 147 -77 0 -4 10 -8 23 -8 13 0 29 -6 36 -12 10 -11
11 -9 5 7 -8 23 -53 64 -70 65 -6 0 -17 7 -24 15 -7 8 -19 15 -26 15 -8 0 -37
16 -64 35 -27 19 -55 35 -62 35 -13 0 -30 14 -146 118 -35 32 -68 59 -75 61
-6 2 -17 9 -23 15 -7 6 -25 21 -41 33 -16 12 -42 34 -57 48 -23 22 -76 35 -76
19z"/>
<path d="M1281 524 c-17 -18 -31 -42 -31 -53 0 -10 -7 -24 -15 -31 -35 -29 -6
-120 38 -120 11 0 39 -13 64 -30 72 -49 100 -41 159 45 23 34 34 68 41 138 8
76 -7 86 -127 85 l-99 0 -30 -34z m89 -14 c0 -5 -6 -10 -14 -10 -8 0 -18 5
-21 10 -3 6 3 10 14 10 12 0 21 -4 21 -10z m60 -41 c0 -35 -23 -85 -56 -117
l-23 -23 -11 20 c-6 12 -7 21 -2 21 5 0 15 20 22 45 14 51 47 98 61 90 5 -4 9
-20 9 -36z m-95 -39 c-5 -8 -11 -8 -17 -2 -6 6 -7 16 -3 22 5 8 11 8 17 2 6
-6 7 -16 3 -22z"/>
<path d="M3100 506 c0 -15 7 -27 19 -31 10 -3 31 -17 46 -31 15 -14 44 -36 64
-48 20 -13 74 -61 121 -108 47 -46 100 -93 118 -103 17 -11 32 -22 32 -25 0
-7 68 -80 75 -80 3 0 11 -5 18 -10 46 -39 61 -50 69 -50 25 0 17 9 -278 295
-88 86 -144 132 -190 157 -24 12 -47 31 -50 41 -9 27 -44 22 -44 -7z"/>
<path d="M860 491 c0 -6 -15 -35 -34 -66 -28 -47 -33 -64 -29 -96 5 -32 3 -39
-11 -39 -10 0 -16 9 -16 25 0 30 -11 32 -25 6 -6 -10 -32 -46 -60 -81 -27 -34
-67 -94 -88 -133 -21 -40 -47 -80 -59 -90 -20 -17 -19 -17 30 -17 55 0 57 2
111 102 37 67 96 128 124 128 14 0 31 -11 43 -27 22 -31 89 -158 98 -185 5
-15 18 -18 87 -18 l82 0 -66 65 c-37 36 -67 71 -67 78 0 7 -5 18 -12 25 -27
27 -78 213 -78 284 0 36 -4 48 -15 48 -8 0 -15 -4 -15 -9z"/>
<path d="M4204 448 c16 -116 24 -141 47 -159 42 -32 53 -25 46 31 -5 44 -4 50
13 50 22 0 100 -63 118 -96 9 -17 21 -24 42 -24 16 0 33 -7 38 -16 6 -10 12
-13 16 -6 3 5 14 8 25 5 11 -3 21 2 25 12 9 23 -1 35 -29 35 -13 0 -26 4 -29
9 -3 5 -18 12 -33 16 -25 6 -144 97 -151 116 -2 5 -9 9 -16 9 -7 0 -32 14 -54
30 -57 41 -66 39 -58 -12z"/>
<path d="M7320 460 c0 -13 7 -20 20 -20 11 0 20 4 20 10 0 5 -9 14 -20 20 -17
9 -20 8 -20 -10z"/>
<path d="M2225 435 c-16 -13 -35 -24 -41 -25 -6 0 -17 -7 -24 -15 -7 -8 -25
-15 -41 -15 -19 0 -29 -5 -29 -15 0 -8 -9 -15 -19 -15 -26 0 -51 -10 -51 -21
0 -15 57 -10 64 6 3 9 19 15 41 15 19 0 35 4 35 9 0 5 13 12 29 16 17 3 34 17
42 33 8 15 21 32 29 39 8 7 11 12 5 13 -5 0 -23 -11 -40 -25z"/>
<path d="M6330 425 c-14 -8 -45 -17 -70 -21 -25 -4 -60 -14 -79 -24 l-34 -17
52 -7 c40 -5 59 -3 77 9 13 8 32 15 43 15 11 0 23 5 26 10 3 6 19 10 36 10 31
0 41 23 13 34 -23 9 -36 7 -64 -9z"/>
<path d="M4480 372 c0 -16 69 -27 83 -13 8 8 3 11 -20 11 -17 0 -38 3 -47 6
-9 3 -16 1 -16 -4z"/>
<path d="M2545 341 c-6 -11 33 -26 43 -16 4 3 0 10 -8 15 -19 12 -27 12 -35 1z"/>
<path d="M5780 343 c-8 -4 -21 -12 -28 -20 -7 -7 -20 -13 -28 -13 -8 0 -14 -4
-14 -10 0 -15 36 -12 50 4 6 8 21 16 32 18 12 2 23 9 26 16 4 12 -12 15 -38 5z"/>
<path d="M1981 311 c-10 -7 -10 -10 -1 -16 6 -4 16 -3 22 3 13 13 -4 23 -21
13z"/>
<path d="M6160 305 c-7 -8 -19 -15 -26 -15 -8 0 -83 -34 -168 -74 -151 -74
-226 -127 -226 -161 0 -15 3 -15 33 4 17 11 77 44 132 72 55 28 123 64 150 80
28 16 61 35 75 42 14 6 30 17 35 24 6 6 21 13 34 15 14 2 26 9 29 16 6 18 -53
15 -68 -3z"/>
<path d="M5615 260 c-33 -17 -67 -30 -75 -30 -8 0 -33 -9 -55 -20 -22 -11 -45
-19 -52 -20 -6 0 -45 -18 -87 -39 -42 -21 -89 -42 -104 -46 -15 -4 -29 -10
-32 -13 -3 -4 -26 -18 -52 -32 -27 -13 -48 -28 -48 -32 0 -18 45 -6 80 22 21
17 49 30 63 30 14 0 32 7 41 15 8 8 18 15 23 15 4 0 35 13 68 29 33 16 89 39
125 50 148 46 197 71 184 92 -7 13 -12 11 -79 -21z"/>
<path d="M6535 283 c-16 -3 -34 -9 -39 -14 -6 -5 -24 -9 -42 -9 -35 0 -136
-30 -184 -55 -25 -13 -29 -20 -21 -28 9 -9 19 -8 42 6 17 9 41 17 54 17 14 0
39 6 57 14 66 27 134 49 153 48 34 -1 65 8 65 18 0 10 -28 11 -85 3z"/>
<path d="M4757 255 c-17 -24 -17 -25 2 -25 17 0 41 26 41 44 0 15 -27 3 -43
-19z"/>
<path d="M0 257 c0 -17 22 -47 34 -47 11 0 6 15 -14 40 -17 21 -20 22 -20 7z"/>
<path d="M4696 205 c-11 -8 -17 -17 -14 -21 8 -8 48 14 48 26 0 14 -12 12 -34
-5z"/>
<path d="M2305 201 c-7 -12 35 -42 47 -35 11 7 2 21 -22 34 -11 6 -21 6 -25 1z"/>
<path d="M4410 190 c0 -5 12 -10 28 -10 21 0 24 2 12 10 -20 13 -40 13 -40 0z"/>
<path d="M4492 168 c2 -6 10 -14 16 -16 7 -2 10 2 6 12 -7 18 -28 22 -22 4z"/>
<path d="M6440 150 c0 -5 -7 -10 -14 -10 -8 0 -35 -13 -59 -30 -25 -16 -51
-30 -59 -30 -8 0 -19 -5 -25 -11 -6 -6 -37 -24 -69 -40 l-59 -29 41 0 c44 0
68 10 124 50 41 30 67 46 98 59 12 6 22 14 22 19 0 4 12 13 28 19 l27 11 -27
1 c-16 1 -28 -3 -28 -9z"/>
<path d="M2381 113 c13 -16 25 -30 27 -32 1 -2 5 -1 9 2 8 8 -36 57 -50 57 -6
0 0 -12 14 -27z"/>
<path d="M2996 102 c-10 -16 77 -105 98 -101 16 3 14 9 -16 39 -54 56 -76 72
-82 62z"/>
<path d="M3390 103 c0 -16 39 -60 40 -45 0 7 -9 22 -20 34 -11 12 -20 17 -20
11z"/>
<path d="M4678 103 c-42 -5 -50 -18 -16 -26 23 -6 58 8 58 23 0 6 -1 9 -2 8
-2 -1 -20 -3 -40 -5z"/>
<path d="M6065 76 c-9 -13 -25 -26 -35 -29 -11 -3 -20 -10 -20 -16 0 -21 22
-11 61 29 25 25 34 40 25 40 -9 0 -23 -11 -31 -24z"/>
<path d="M3990 61 c0 -12 5 -21 10 -21 6 0 10 6 10 14 0 8 -4 18 -10 21 -5 3
-10 -3 -10 -14z"/>
<path d="M4010 16 c0 -9 7 -16 16 -16 17 0 14 22 -4 28 -7 2 -12 -3 -12 -12z"/>
<path d="M6380 10 c-11 -7 -7 -10 18 -10 20 0 31 4 27 10 -8 13 -26 13 -45 0z"/>
</g>
</svg>
